<svg width="796" height="131" viewBox="0 0 796 131" fill="none" xmlns="http://www.w3.org/2000/svg">
<g filter="url(#filter0_bd_554_3618)">
<path d="M14.976 97.864C12.16 97.864 9.984 97.096 8.448 95.56C6.912 93.96 6.144 91.752 6.144 88.936V38.248C6.144 35.368 6.912 33.16 8.448 31.624C10.048 30.088 12.256 29.32 15.072 29.32H38.688C46.368 29.32 52.288 31.304 56.448 35.272C60.672 39.176 62.784 44.584 62.784 51.496C62.784 58.408 60.672 63.848 56.448 67.816C52.288 71.72 46.368 73.672 38.688 73.672H23.808V88.936C23.808 91.752 23.072 93.96 21.6 95.56C20.128 97.096 17.92 97.864 14.976 97.864ZM23.808 60.136H35.616C38.944 60.136 41.504 59.432 43.296 58.024C45.088 56.552 45.984 54.376 45.984 51.496C45.984 48.552 45.088 46.376 43.296 44.968C41.504 43.56 38.944 42.856 35.616 42.856H23.808V60.136ZM457.449 98.056C450.601 98.056 444.585 96.616 439.401 93.736C434.217 90.792 430.185 86.696 427.305 81.448C424.489 76.2 423.081 70.088 423.081 63.112C423.081 57.864 423.881 53.096 425.481 48.808C427.145 44.52 429.481 40.84 432.489 37.768C435.561 34.696 439.209 32.36 443.433 30.76C447.657 29.096 452.329 28.264 457.449 28.264C464.297 28.264 470.281 29.704 475.401 32.584C480.585 35.464 484.617 39.528 487.497 44.776C490.377 49.96 491.817 56.072 491.817 63.112C491.817 68.36 490.985 73.128 489.321 77.416C487.721 81.704 485.385 85.416 482.313 88.552C479.305 91.624 475.689 93.992 471.465 95.656C467.241 97.256 462.569 98.056 457.449 98.056ZM457.449 83.272C460.841 83.272 463.721 82.472 466.089 80.872C468.457 79.272 470.281 76.968 471.561 73.96C472.841 70.952 473.481 67.336 473.481 63.112C473.481 56.776 472.073 51.848 469.257 48.328C466.441 44.808 462.505 43.048 457.449 43.048C454.121 43.048 451.241 43.848 448.809 45.448C446.441 46.984 444.617 49.256 443.337 52.264C442.057 55.208 441.417 58.824 441.417 63.112C441.417 69.448 442.825 74.408 445.641 77.992C448.457 81.512 452.393 83.272 457.449 83.272Z" fill="#E9492A"/>
<path d="M83.787 97C80.971 97 78.763 96.232 77.163 94.696C75.627 93.096 74.859 90.888 74.859 88.072V38.152C74.859 35.272 75.627 33.064 77.163 31.528C78.699 29.992 80.875 29.224 83.691 29.224C86.571 29.224 88.747 29.992 90.219 31.528C91.755 33.064 92.523 35.272 92.523 38.152V82.312H115.947C118.379 82.312 120.235 82.952 121.515 84.232C122.859 85.448 123.531 87.24 123.531 89.608C123.531 91.976 122.859 93.8 121.515 95.08C120.235 96.36 118.379 97 115.947 97H83.787ZM536.039 98.056C531.111 98.056 526.759 97.448 522.983 96.232C519.207 94.952 516.007 93.064 513.383 90.568C510.823 88.072 508.871 84.968 507.527 81.256C506.247 77.48 505.607 73.128 505.607 68.2V37.384C505.607 34.44 506.375 32.232 507.911 30.76C509.447 29.224 511.623 28.456 514.439 28.456C517.319 28.456 519.495 29.224 520.967 30.76C522.503 32.232 523.271 34.44 523.271 37.384V68.392C523.271 73.32 524.359 77.032 526.535 79.528C528.711 82.024 531.879 83.272 536.039 83.272C540.135 83.272 543.271 82.024 545.447 79.528C547.623 77.032 548.711 73.32 548.711 68.392V37.384C548.711 34.44 549.447 32.232 550.919 30.76C552.455 29.224 554.631 28.456 557.447 28.456C560.263 28.456 562.407 29.224 563.879 30.76C565.351 32.232 566.087 34.44 566.087 37.384V68.2C566.087 74.792 564.935 80.328 562.631 84.808C560.391 89.224 557.031 92.552 552.551 94.792C548.071 96.968 542.567 98.056 536.039 98.056Z" fill="#F6A43F"/>
<path d="M138.023 97.864C136.039 97.864 134.375 97.416 133.031 96.52C131.687 95.56 130.855 94.28 130.535 92.68C130.215 91.016 130.503 89.16 131.399 87.112L155.303 35.656C156.455 33.16 157.863 31.336 159.527 30.184C161.255 29.032 163.207 28.456 165.383 28.456C167.559 28.456 169.447 29.032 171.047 30.184C172.711 31.336 174.151 33.16 175.367 35.656L199.271 87.112C200.295 89.16 200.647 91.016 200.327 92.68C200.071 94.344 199.271 95.624 197.927 96.52C196.647 97.416 195.047 97.864 193.127 97.864C190.567 97.864 188.583 97.288 187.175 96.136C185.831 94.984 184.615 93.128 183.527 90.568L178.343 78.376L185.063 83.272H145.511L152.327 78.376L147.143 90.568C145.991 93.128 144.807 94.984 143.591 96.136C142.375 97.288 140.519 97.864 138.023 97.864ZM165.191 47.752L154.055 74.344L151.367 69.736H179.303L176.615 74.344L165.383 47.752H165.191ZM589.995 97.864C587.307 97.864 585.259 97.16 583.851 95.752C582.443 94.344 581.739 92.264 581.739 89.512V37.192C581.739 34.376 582.443 32.232 583.851 30.76C585.259 29.224 587.115 28.456 589.419 28.456C591.467 28.456 593.067 28.84 594.219 29.608C595.371 30.376 596.651 31.656 598.059 33.448L628.491 71.464H625.803V36.712C625.803 34.024 626.475 31.976 627.819 30.568C629.227 29.16 631.275 28.456 633.963 28.456C636.651 28.456 638.667 29.16 640.011 30.568C641.419 31.976 642.123 34.024 642.123 36.712V89.896C642.123 92.328 641.483 94.28 640.203 95.752C638.923 97.16 637.195 97.864 635.019 97.864C632.843 97.864 631.115 97.48 629.835 96.712C628.619 95.88 627.307 94.6 625.899 92.872L595.467 54.76H598.155V89.512C598.155 92.264 597.451 94.344 596.043 95.752C594.699 97.16 592.683 97.864 589.995 97.864Z" fill="#5ECFB1"/>
<path d="M236.682 97.864C233.866 97.864 231.69 97.096 230.154 95.56C228.618 93.96 227.85 91.688 227.85 88.744V62.44L231.498 72.136L209.418 40.36C208.33 38.824 207.85 37.128 207.978 35.272C208.17 33.352 208.938 31.752 210.282 30.472C211.69 29.128 213.674 28.456 216.234 28.456C218.026 28.456 219.658 28.904 221.13 29.8C222.602 30.632 223.978 32.072 225.258 34.12L238.698 53.896H235.242L248.682 34.024C250.026 31.976 251.402 30.536 252.81 29.704C254.218 28.872 255.882 28.456 257.802 28.456C260.234 28.456 262.122 29.064 263.466 30.28C264.81 31.496 265.514 33.032 265.578 34.888C265.706 36.744 265.13 38.632 263.85 40.552L241.962 72.136L245.514 62.44V88.744C245.514 94.824 242.57 97.864 236.682 97.864Z" fill="#9BC851"/>
<path d="M312.189 98.056C304.445 98.056 297.853 96.616 292.413 93.736C287.037 90.856 282.941 86.824 280.125 81.64C277.309 76.456 275.901 70.408 275.901 63.496C275.901 58.12 276.733 53.288 278.397 49C280.125 44.648 282.589 40.936 285.789 37.864C288.989 34.728 292.893 32.36 297.501 30.76C302.173 29.096 307.453 28.264 313.341 28.264C316.541 28.264 319.805 28.584 323.133 29.224C326.461 29.8 329.725 30.92 332.925 32.584C334.589 33.352 335.709 34.44 336.285 35.848C336.925 37.192 337.117 38.632 336.861 40.168C336.669 41.64 336.125 43.016 335.229 44.296C334.397 45.512 333.245 46.344 331.773 46.792C330.301 47.176 328.637 46.952 326.781 46.12C324.861 45.224 322.781 44.552 320.541 44.104C318.301 43.592 315.933 43.336 313.437 43.336C309.149 43.336 305.565 44.104 302.685 45.64C299.869 47.176 297.757 49.448 296.349 52.456C294.941 55.464 294.237 59.144 294.237 63.496C294.237 70.024 295.837 74.952 299.037 78.28C302.237 81.608 306.973 83.272 313.245 83.272C315.165 83.272 317.245 83.08 319.485 82.696C321.789 82.312 324.093 81.768 326.397 81.064L323.133 87.688V71.272H316.413C314.237 71.272 312.541 70.728 311.325 69.64C310.173 68.552 309.597 67.016 309.597 65.032C309.597 63.048 310.173 61.544 311.325 60.52C312.541 59.432 314.237 58.888 316.413 58.888H330.621C332.861 58.888 334.557 59.496 335.709 60.712C336.925 61.864 337.533 63.56 337.533 65.8V87.016C337.533 88.936 337.117 90.568 336.285 91.912C335.517 93.256 334.269 94.216 332.541 94.792C329.533 95.816 326.269 96.616 322.749 97.192C319.229 97.768 315.709 98.056 312.189 98.056ZM667.545 97C664.537 97 662.233 96.232 660.633 94.696C659.097 93.096 658.329 90.824 658.329 87.88V38.44C658.329 35.496 659.097 33.256 660.633 31.72C662.233 30.12 664.537 29.32 667.545 29.32H686.361C698.137 29.32 707.225 32.264 713.625 38.152C720.089 44.04 723.321 52.36 723.321 63.112C723.321 68.488 722.489 73.288 720.825 77.512C719.161 81.672 716.761 85.224 713.625 88.168C710.489 91.048 706.617 93.256 702.009 94.792C697.465 96.264 692.249 97 686.361 97H667.545ZM675.993 82.696H685.209C688.601 82.696 691.513 82.28 693.945 81.448C696.441 80.616 698.489 79.4 700.089 77.8C701.753 76.2 702.969 74.184 703.737 71.752C704.569 69.32 704.985 66.44 704.985 63.112C704.985 56.456 703.353 51.56 700.089 48.424C696.825 45.224 691.865 43.624 685.209 43.624H675.993V82.696Z" fill="#E08FA5"/>
<path d="M362.02 97.864C359.204 97.864 357.028 97.096 355.492 95.56C353.956 93.96 353.188 91.752 353.188 88.936V38.248C353.188 35.368 353.956 33.16 355.492 31.624C357.092 30.088 359.3 29.32 362.116 29.32H385.732C393.412 29.32 399.332 31.208 403.492 34.984C407.716 38.696 409.828 43.88 409.828 50.536C409.828 54.824 408.868 58.568 406.948 61.768C405.092 64.904 402.372 67.336 398.788 69.064C395.268 70.728 390.916 71.56 385.732 71.56L386.5 69.832H391.108C393.86 69.832 396.292 70.504 398.404 71.848C400.516 73.128 402.276 75.112 403.684 77.8L408.484 86.44C409.508 88.296 409.988 90.12 409.924 91.912C409.86 93.64 409.156 95.08 407.812 96.232C406.532 97.32 404.644 97.864 402.148 97.864C399.652 97.864 397.604 97.352 396.004 96.328C394.468 95.304 393.092 93.704 391.876 91.528L383.14 75.496C382.372 74.088 381.38 73.128 380.164 72.616C379.012 72.04 377.668 71.752 376.132 71.752H370.852V88.936C370.852 91.752 370.116 93.96 368.644 95.56C367.172 97.096 364.964 97.864 362.02 97.864ZM370.852 59.272H382.564C385.956 59.272 388.548 58.6 390.34 57.256C392.132 55.912 393.028 53.832 393.028 51.016C393.028 48.328 392.132 46.312 390.34 44.968C388.548 43.56 385.956 42.856 382.564 42.856H370.852V59.272ZM762.79 98.056C760.23 98.056 757.542 97.864 754.726 97.48C751.974 97.16 749.35 96.648 746.854 95.944C744.358 95.24 742.118 94.408 740.134 93.448C738.406 92.616 737.19 91.528 736.486 90.184C735.782 88.776 735.526 87.304 735.718 85.768C735.91 84.232 736.454 82.888 737.35 81.736C738.246 80.52 739.43 79.72 740.902 79.336C742.374 78.888 744.038 79.08 745.894 79.912C748.326 81.064 751.078 81.96 754.15 82.6C757.222 83.24 760.102 83.56 762.79 83.56C767.014 83.56 769.958 83.016 771.622 81.928C773.35 80.776 774.214 79.368 774.214 77.704C774.214 76.232 773.606 75.048 772.39 74.152C771.238 73.256 769.158 72.488 766.15 71.848L754.918 69.448C748.774 68.168 744.198 65.928 741.19 62.728C738.182 59.528 736.678 55.4 736.678 50.344C736.678 47.016 737.35 44.008 738.694 41.32C740.102 38.568 742.054 36.232 744.55 34.312C747.11 32.392 750.118 30.92 753.574 29.896C757.094 28.808 760.998 28.264 765.286 28.264C768.614 28.264 771.974 28.648 775.366 29.416C778.822 30.12 781.798 31.208 784.294 32.68C785.766 33.448 786.822 34.504 787.462 35.848C788.102 37.192 788.358 38.6 788.23 40.072C788.102 41.48 787.59 42.728 786.694 43.816C785.862 44.904 784.71 45.64 783.238 46.024C781.83 46.344 780.134 46.088 778.15 45.256C776.294 44.424 774.182 43.816 771.814 43.432C769.51 42.984 767.27 42.76 765.094 42.76C762.726 42.76 760.71 43.048 759.046 43.624C757.382 44.136 756.102 44.904 755.206 45.928C754.374 46.952 753.958 48.136 753.958 49.48C753.958 50.824 754.502 51.976 755.59 52.936C756.742 53.832 758.822 54.6 761.83 55.24L772.966 57.64C779.174 58.984 783.814 61.192 786.886 64.264C789.958 67.336 791.494 71.336 791.494 76.264C791.494 79.592 790.822 82.6 789.478 85.288C788.134 87.976 786.214 90.28 783.718 92.2C781.222 94.056 778.214 95.496 774.694 96.52C771.174 97.544 767.206 98.056 762.79 98.056Z" fill="#E6D436"/>
</g>
<defs>
<filter id="filter0_bd_554_3618" x="-93.8555" y="-71.7361" width="985.35" height="269.792" filterUnits="userSpaceOnUse" color-interpolation-filters="sRGB">
<feFlood flood-opacity="0" result="BackgroundImageFix"/>
<feGaussianBlur in="BackgroundImageFix" stdDeviation="50"/>
<feComposite in2="SourceAlpha" operator="in" result="effect1_backgroundBlur_554_3618"/>
<feColorMatrix in="SourceAlpha" type="matrix" values="0 0 0 0 0 0 0 0 0 0 0 0 0 0 0 0 0 0 127 0" result="hardAlpha"/>
<feOffset dy="4"/>
<feGaussianBlur stdDeviation="2"/>
<feComposite in2="hardAlpha" operator="out"/>
<feColorMatrix type="matrix" values="0 0 0 0 0 0 0 0 0 0 0 0 0 0 0 0 0 0 0.25 0"/>
<feBlend mode="normal" in2="effect1_backgroundBlur_554_3618" result="effect2_dropShadow_554_3618"/>
<feBlend mode="normal" in="SourceGraphic" in2="effect2_dropShadow_554_3618" result="shape"/>
</filter>
</defs>
</svg>
