<svg width="80" height="98" viewBox="0 0 80 98" fill="none" xmlns="http://www.w3.org/2000/svg">
<rect x="1" y="1" width="78" height="78" rx="19" fill="white" stroke="#9BC851" stroke-width="2"/>
<rect x="20.6849" y="10.5" width="38.6301" height="59" fill="#AFE448" stroke="black"/>
<rect x="21.3053" y="11.501" width="37.3071" height="28.3306" stroke="white" stroke-width="0.5"/>
<rect x="21.385" y="39.7516" width="37.3071" height="28.829" stroke="white" stroke-width="0.5"/>
<circle cx="39.9606" cy="39.9209" r="4.70377" stroke="white" stroke-width="0.5"/>
<rect x="35.3356" y="66.0632" width="9.32827" height="2.51763" stroke="white" stroke-width="0.5"/>
<rect x="35.2568" y="11.5013" width="9.40753" height="2.51763" stroke="white" stroke-width="0.5"/>
<path d="M29.63 11.501H50.3717V19.9723H29.63V11.501Z" fill="#AFE448" stroke="white" stroke-width="0.5"/>
<path d="M29.63 60.1095H50.3717V68.5808H29.63V60.1095Z" fill="#AFE448" stroke="white" stroke-width="0.5"/>
<path d="M15.1878 97C14.9825 97 14.8238 96.9487 14.7118 96.846C14.6092 96.734 14.5578 96.5753 14.5578 96.37V87.76C14.5578 87.5547 14.6092 87.4007 14.7118 87.298C14.8238 87.186 14.9825 87.13 15.1878 87.13H18.5058C19.1872 87.13 19.7612 87.2327 20.2278 87.438C20.7038 87.634 21.0678 87.9233 21.3198 88.306C21.5718 88.6887 21.6978 89.1553 21.6978 89.706C21.6978 90.322 21.5158 90.8353 21.1518 91.246C20.7972 91.6567 20.3118 91.9273 19.6958 92.058V91.862C20.3958 91.946 20.9418 92.198 21.3338 92.618C21.7352 93.038 21.9358 93.5933 21.9358 94.284C21.9358 95.1613 21.6512 95.8333 21.0818 96.3C20.5125 96.7667 19.7098 97 18.6738 97H15.1878ZM15.6778 96.076H18.5618C19.3085 96.076 19.8685 95.9267 20.2418 95.628C20.6152 95.3293 20.8018 94.8767 20.8018 94.27C20.8018 93.654 20.6152 93.2013 20.2418 92.912C19.8685 92.6133 19.3085 92.464 18.5618 92.464H15.6778V96.076ZM15.6778 91.54H18.3378C19.0658 91.54 19.6165 91.3907 19.9898 91.092C20.3725 90.7933 20.5638 90.364 20.5638 89.804C20.5638 89.2253 20.3725 88.7913 19.9898 88.502C19.6165 88.2033 19.0658 88.054 18.3378 88.054H15.6778V91.54ZM26.4548 97.126C25.8481 97.126 25.3161 96.9813 24.8588 96.692C24.4108 96.4027 24.0608 95.9967 23.8088 95.474C23.5661 94.942 23.4448 94.3167 23.4448 93.598C23.4448 92.87 23.5661 92.2447 23.8088 91.722C24.0608 91.19 24.4108 90.784 24.8588 90.504C25.3161 90.2147 25.8481 90.07 26.4548 90.07C27.0708 90.07 27.5981 90.224 28.0368 90.532C28.4754 90.84 28.7694 91.2553 28.9188 91.778L28.7788 91.946V90.672C28.7788 90.4853 28.8254 90.3453 28.9188 90.252C29.0214 90.1493 29.1614 90.098 29.3388 90.098C29.5254 90.098 29.6654 90.1493 29.7588 90.252C29.8521 90.3453 29.8988 90.4853 29.8988 90.672V96.51C29.8988 96.6967 29.8521 96.8413 29.7588 96.944C29.6654 97.0467 29.5254 97.098 29.3388 97.098C29.1614 97.098 29.0214 97.0467 28.9188 96.944C28.8254 96.8413 28.7788 96.6967 28.7788 96.51V95.25L28.9328 95.376C28.7834 95.908 28.4848 96.3327 28.0368 96.65C27.5981 96.9673 27.0708 97.126 26.4548 97.126ZM26.6928 96.216C27.1128 96.216 27.4814 96.1133 27.7988 95.908C28.1161 95.7027 28.3588 95.404 28.5268 95.012C28.7041 94.62 28.7928 94.1487 28.7928 93.598C28.7928 92.7487 28.6014 92.1 28.2188 91.652C27.8454 91.204 27.3368 90.98 26.6928 90.98C26.2634 90.98 25.8901 91.0827 25.5728 91.288C25.2648 91.484 25.0221 91.778 24.8448 92.17C24.6768 92.5527 24.5928 93.0287 24.5928 93.598C24.5928 94.438 24.7841 95.0867 25.1668 95.544C25.5494 95.992 26.0581 96.216 26.6928 96.216ZM34.0989 97.126C33.4269 97.126 32.9136 96.9207 32.5589 96.51C32.2042 96.0993 32.0269 95.5113 32.0269 94.746V87.606C32.0269 87.4193 32.0736 87.2793 32.1669 87.186C32.2602 87.0833 32.4002 87.032 32.5869 87.032C32.7642 87.032 32.9042 87.0833 33.0069 87.186C33.1096 87.2793 33.1609 87.4193 33.1609 87.606V94.662C33.1609 95.166 33.2589 95.544 33.4549 95.796C33.6602 96.0387 33.9589 96.16 34.3509 96.16C34.4349 96.16 34.5096 96.1553 34.5749 96.146C34.6402 96.1367 34.7056 96.132 34.7709 96.132C34.8736 96.1227 34.9436 96.146 34.9809 96.202C35.0276 96.258 35.0509 96.37 35.0509 96.538C35.0509 96.706 35.0136 96.832 34.9389 96.916C34.8642 97 34.7429 97.056 34.5749 97.084C34.5002 97.0933 34.4209 97.1027 34.3369 97.112C34.2529 97.1213 34.1736 97.126 34.0989 97.126ZM38.2415 97.126C37.5695 97.126 37.0561 96.9207 36.7015 96.51C36.3468 96.0993 36.1695 95.5113 36.1695 94.746V87.606C36.1695 87.4193 36.2161 87.2793 36.3095 87.186C36.4028 87.0833 36.5428 87.032 36.7295 87.032C36.9068 87.032 37.0468 87.0833 37.1495 87.186C37.2521 87.2793 37.3035 87.4193 37.3035 87.606V94.662C37.3035 95.166 37.4015 95.544 37.5975 95.796C37.8028 96.0387 38.1015 96.16 38.4935 96.16C38.5775 96.16 38.6521 96.1553 38.7175 96.146C38.7828 96.1367 38.8481 96.132 38.9135 96.132C39.0161 96.1227 39.0861 96.146 39.1235 96.202C39.1701 96.258 39.1935 96.37 39.1935 96.538C39.1935 96.706 39.1561 96.832 39.0815 96.916C39.0068 97 38.8855 97.056 38.7175 97.084C38.6428 97.0933 38.5635 97.1027 38.4795 97.112C38.3955 97.1213 38.3161 97.126 38.2415 97.126ZM41.1403 97.098C40.963 97.098 40.823 97.0467 40.7203 96.944C40.627 96.8413 40.5803 96.6967 40.5803 96.51V91.078H39.6843C39.535 91.078 39.4137 91.0407 39.3203 90.966C39.2363 90.882 39.1943 90.77 39.1943 90.63C39.1943 90.49 39.2363 90.3827 39.3203 90.308C39.4137 90.2333 39.535 90.196 39.6843 90.196H40.8883L40.5803 90.49V89.958C40.5803 89.0807 40.7903 88.4087 41.2103 87.942C41.6397 87.4753 42.2697 87.2093 43.1003 87.144L43.5203 87.102C43.6603 87.0927 43.7723 87.116 43.8563 87.172C43.9403 87.2187 43.9917 87.284 44.0103 87.368C44.0383 87.452 44.043 87.5407 44.0243 87.634C44.0057 87.7273 43.9637 87.8067 43.8983 87.872C43.8423 87.9373 43.7723 87.9747 43.6883 87.984L43.2683 88.012C42.7177 88.0493 42.321 88.222 42.0783 88.53C41.8357 88.8287 41.7143 89.258 41.7143 89.818V90.406L41.5463 90.196H45.3543C45.5317 90.196 45.667 90.2473 45.7603 90.35C45.863 90.4527 45.9143 90.602 45.9143 90.798V96.454C45.9143 96.65 45.8677 96.804 45.7743 96.916C45.681 97.0187 45.541 97.07 45.3543 97.07C45.1677 97.07 45.023 97.0187 44.9203 96.916C44.827 96.804 44.7803 96.65 44.7803 96.454V91.078H41.7143V96.51C41.7143 96.902 41.523 97.098 41.1403 97.098ZM45.3683 88.558C45.135 88.558 44.953 88.4973 44.8223 88.376C44.701 88.2453 44.6403 88.0727 44.6403 87.858C44.6403 87.634 44.701 87.466 44.8223 87.354C44.953 87.2327 45.135 87.172 45.3683 87.172C45.6017 87.172 45.779 87.2327 45.9003 87.354C46.031 87.466 46.0963 87.634 46.0963 87.858C46.0963 88.0727 46.031 88.2453 45.9003 88.376C45.779 88.4973 45.6017 88.558 45.3683 88.558ZM51.1027 97.126C50.384 97.126 49.7633 96.986 49.2407 96.706C48.7273 96.4167 48.326 96.0107 48.0367 95.488C47.7567 94.9653 47.6167 94.34 47.6167 93.612C47.6167 92.9027 47.7567 92.2867 48.0367 91.764C48.3167 91.232 48.6993 90.8167 49.1847 90.518C49.6793 90.2193 50.2487 90.07 50.8927 90.07C51.35 90.07 51.7607 90.1493 52.1247 90.308C52.4887 90.4573 52.7967 90.6767 53.0487 90.966C53.31 91.2553 53.506 91.6053 53.6367 92.016C53.7767 92.4267 53.8467 92.8887 53.8467 93.402C53.8467 93.5513 53.8047 93.6633 53.7207 93.738C53.6367 93.8033 53.5153 93.836 53.3567 93.836H48.4847V93.094H53.0907L52.8667 93.276C52.8667 92.772 52.792 92.3473 52.6427 92.002C52.4933 91.6473 52.274 91.3767 51.9847 91.19C51.7047 91.0033 51.35 90.91 50.9207 90.91C50.4447 90.91 50.0387 91.022 49.7027 91.246C49.376 91.4607 49.1287 91.764 48.9607 92.156C48.7927 92.5387 48.7087 92.9867 48.7087 93.5V93.584C48.7087 94.4427 48.914 95.096 49.3247 95.544C49.7447 95.992 50.3373 96.216 51.1027 96.216C51.42 96.216 51.7327 96.174 52.0407 96.09C52.358 96.006 52.666 95.866 52.9647 95.67C53.0953 95.586 53.212 95.5487 53.3147 95.558C53.4267 95.558 53.5153 95.5907 53.5807 95.656C53.646 95.712 53.688 95.7867 53.7067 95.88C53.7347 95.964 53.7253 96.0573 53.6787 96.16C53.6413 96.2627 53.562 96.3513 53.4407 96.426C53.1327 96.65 52.7687 96.8227 52.3487 96.944C51.9287 97.0653 51.5133 97.126 51.1027 97.126ZM57.5598 97.126C56.8878 97.126 56.3745 96.9207 56.0198 96.51C55.6652 96.0993 55.4878 95.5113 55.4878 94.746V87.606C55.4878 87.4193 55.5345 87.2793 55.6278 87.186C55.7212 87.0833 55.8612 87.032 56.0478 87.032C56.2252 87.032 56.3652 87.0833 56.4678 87.186C56.5705 87.2793 56.6218 87.4193 56.6218 87.606V94.662C56.6218 95.166 56.7198 95.544 56.9158 95.796C57.1212 96.0387 57.4198 96.16 57.8118 96.16C57.8958 96.16 57.9705 96.1553 58.0358 96.146C58.1012 96.1367 58.1665 96.132 58.2318 96.132C58.3345 96.1227 58.4045 96.146 58.4418 96.202C58.4885 96.258 58.5118 96.37 58.5118 96.538C58.5118 96.706 58.4745 96.832 58.3998 96.916C58.3252 97 58.2038 97.056 58.0358 97.084C57.9612 97.0933 57.8818 97.1027 57.7978 97.112C57.7138 97.1213 57.6345 97.126 57.5598 97.126ZM62.152 97.126C61.5454 97.126 61.0134 96.9813 60.556 96.692C60.108 96.4027 59.758 95.9967 59.506 95.474C59.2634 94.942 59.142 94.3167 59.142 93.598C59.142 92.87 59.2634 92.2447 59.506 91.722C59.758 91.19 60.108 90.784 60.556 90.504C61.0134 90.2147 61.5454 90.07 62.152 90.07C62.768 90.07 63.2954 90.224 63.734 90.532C64.1727 90.84 64.4667 91.2553 64.616 91.778H64.462V87.606C64.462 87.4193 64.5087 87.2793 64.602 87.186C64.7047 87.0833 64.8494 87.032 65.036 87.032C65.2134 87.032 65.3487 87.0833 65.442 87.186C65.5447 87.2793 65.596 87.4193 65.596 87.606V96.51C65.596 96.6967 65.5494 96.8413 65.456 96.944C65.3627 97.0467 65.2227 97.098 65.036 97.098C64.8587 97.098 64.7187 97.0467 64.616 96.944C64.5227 96.8413 64.476 96.6967 64.476 96.51V95.18L64.63 95.376C64.4807 95.908 64.182 96.3327 63.734 96.65C63.2954 96.9673 62.768 97.126 62.152 97.126ZM62.39 96.216C62.81 96.216 63.1787 96.1133 63.496 95.908C63.8134 95.7027 64.056 95.404 64.224 95.012C64.4014 94.62 64.49 94.1487 64.49 93.598C64.49 92.7487 64.2987 92.1 63.916 91.652C63.5427 91.204 63.034 90.98 62.39 90.98C61.9607 90.98 61.5874 91.0827 61.27 91.288C60.962 91.484 60.7194 91.778 60.542 92.17C60.374 92.5527 60.29 93.0287 60.29 93.598C60.29 94.438 60.4814 95.0867 60.864 95.544C61.2467 95.992 61.7554 96.216 62.39 96.216Z" fill="black"/>
</svg>
