<svg width="52" height="25" viewBox="0 0 52 25" fill="none" xmlns="http://www.w3.org/2000/svg">
<path d="M28.1397 23.7252C27.7148 23.3534 23.8464 21.9326 21.9652 21.2687C23.625 20.0072 30.729 15.6917 34.1814 13.7C37.6338 11.7082 46.3975 7.85748 46.9286 7.79109C47.4598 7.7247 50.204 9.71646 50.8458 10.4468C49.0399 10.9779 41.905 15.4926 38.5633 17.6835C35.2658 19.8523 28.5646 24.097 28.1397 23.7252Z" fill="#0066FF"/>
<path d="M21.8989 21.2688C21.3677 20.897 16.9416 19.4319 14.7949 18.7459C18.1145 15.0943 25.5504 11.6419 29.202 9.3846C32.8535 7.12727 40.7542 5.06912 41.6837 4.93634C42.6132 4.80355 46.995 7.79119 46.995 7.79119C46.995 7.79119 40.555 10.3965 36.1068 12.7042C27.2766 17.2853 22.5628 21.7335 21.8989 21.2688Z" fill="#FF2900"/>
<path d="M14.6619 18.6795C14.0245 18.2546 10.6784 17.2189 9.08496 16.7542C12.2718 13.4346 19.3757 8.72072 23.2265 6.72896C27.0772 4.73719 35.177 3.01106 36.2393 2.87824C37.3016 2.74542 41.8162 4.93639 41.8162 4.93639C41.8162 4.93639 37.1059 5.35073 26.5461 10.978C16.4545 16.3558 15.4586 19.2107 14.6619 18.6795Z" fill="#FFE500"/>
<path d="M9.01897 16.754C8.68701 16.5549 5.30102 15.3598 4.76988 15.4262C4.23874 15.4926 7.22638 13.1689 9.68289 11.0443C12.1394 8.91977 17.4508 5.66656 21.3015 4.07315C25.1522 2.47974 28.5382 2.0814 29.9988 1.81582C31.4595 1.55024 36.5716 2.87809 36.5716 2.87809C36.5716 2.87809 29.6669 4.40512 24.8867 5.99852C20.1064 7.59192 9.35093 16.9532 9.01897 16.754Z" fill="#FF2900"/>
<path d="M4.63693 15.3598C4.17219 15.3598 1.64929 15.0942 1.64929 14.6295C1.64929 14.1647 12.3384 5.66652 13.8654 4.86981C15.3924 4.07311 20.7038 1.94857 23.7578 1.48383C26.8119 1.01909 30.729 1.74941 30.4634 1.7494C30.1979 1.74939 26.3471 2.41332 23.957 3.14363C21.5669 3.87394 15.8572 6.99436 14.6621 7.65829C13.4671 8.32222 5.10168 15.3598 4.63693 15.3598Z" fill="#0066FF"/>
<path fill-rule="evenodd" clip-rule="evenodd" d="M31.7563 1.76578C32.4799 1.91479 33.2865 2.08091 34.343 2.24249C36.867 2.62851 39.0395 3.55183 40.7263 4.26872C41.2834 4.50552 41.7876 4.71979 42.2339 4.88474C43.1484 5.22269 44.2278 5.85695 45.1873 6.45724C45.4691 6.63353 45.7422 6.808 45.998 6.97137C46.1773 7.08587 46.348 7.19492 46.5072 7.29531C46.8961 7.5406 47.2169 7.73483 47.4383 7.8407C47.9012 8.06207 48.7547 8.68835 49.458 9.26378C49.8108 9.55245 50.1292 9.83107 50.3452 10.0433C50.4525 10.1488 50.5376 10.2408 50.5887 10.3109C50.6131 10.3443 50.6357 10.3806 50.6454 10.4151C50.6502 10.4324 50.6547 10.4596 50.6444 10.4885C50.6324 10.5223 50.606 10.5428 50.5788 10.5518C50.556 10.5594 50.5096 10.5806 50.436 10.618C50.3642 10.6546 50.271 10.7043 50.1571 10.7663C49.981 10.8622 49.7567 10.9867 49.4877 11.1362C49.4087 11.18 49.3258 11.2261 49.2391 11.2742C48.4761 11.6975 47.4221 12.2787 46.1416 12.9485C43.5878 14.2843 36.6621 18.9274 34.378 20.542C33.2334 21.3511 31.7541 22.2683 30.5157 22.9344C29.8969 23.2672 29.3359 23.5386 28.9059 23.7023C28.6914 23.7839 28.5057 23.8402 28.3599 23.863C28.2871 23.8744 28.2203 23.878 28.1629 23.8703C28.106 23.8627 28.0493 23.8426 28.0092 23.798C27.8488 23.6198 27.674 23.5565 27.266 23.4172L27.251 23.412C26.8459 23.2737 26.2352 23.0652 25.2396 22.5967C23.9584 21.9938 23.0509 21.6816 21.9642 21.3078C21.3503 21.0967 20.6791 20.8658 19.8512 20.5518C18.4477 20.0194 16.9428 19.5326 15.4322 19.044C14.4855 18.7378 13.5364 18.4308 12.6087 18.1114C11.6015 17.7647 10.9052 17.5008 10.1997 17.2334C10.063 17.1816 9.92597 17.1297 9.78629 17.077C8.92584 16.7525 7.96229 16.3986 6.34925 15.8675C3.76996 15.0182 2.10906 14.7819 1.60848 14.769L1.4585 14.7652L1.54274 14.641C1.73599 14.3562 2.15908 13.9293 2.70388 13.4312C3.25098 12.9309 3.92763 12.3529 4.63424 11.7645C5.37027 11.1516 6.13614 10.5295 6.82402 9.97076C7.46081 9.45352 8.03077 8.99057 8.44833 8.63943C9.3182 7.90795 10.6403 6.97077 11.8765 6.15323C13.1118 5.3363 14.2676 4.63453 14.8048 4.37589C15.8723 3.8619 20.1293 2.24584 21.5514 1.85081C21.7059 1.80791 21.8439 1.76814 21.9719 1.73126C22.4276 1.59995 22.7566 1.50514 23.25 1.43521C23.8806 1.34584 24.7811 1.29661 26.5721 1.25725C29.0251 1.20333 30.1981 1.44489 31.7563 1.76578ZM31.709 1.92387C30.1604 1.60476 29.01 1.36769 26.5757 1.42119C24.7837 1.46058 23.8926 1.50977 23.2731 1.59758C22.7919 1.66577 22.4754 1.75694 22.0223 1.88744C21.8934 1.92458 21.7533 1.96492 21.5953 2.00881C20.1825 2.40124 15.9347 4.01386 14.8759 4.52364C14.35 4.77689 13.2025 5.47291 11.967 6.29001C10.7324 7.10649 9.41647 8.03958 8.55387 8.76494C8.13836 9.11436 7.56567 9.57956 6.92649 10.0988C6.23684 10.659 5.46977 11.2821 4.73918 11.8905C4.03323 12.4784 3.35884 13.0545 2.81454 13.5522C2.34401 13.9824 1.97568 14.3496 1.76694 14.6134C2.42108 14.6629 4.0289 14.9308 6.40053 15.7117C8.01618 16.2437 8.98197 16.5984 9.84415 16.9236C9.98414 16.9764 10.1213 17.0284 10.2581 17.0802C10.9635 17.3475 11.6574 17.6105 12.6621 17.9564C13.5832 18.2735 14.5297 18.5796 15.4757 18.8857C16.9901 19.3756 18.5033 19.8651 19.9094 20.3984C20.7266 20.7084 21.3941 20.9381 22.0073 21.1491C23.1005 21.5253 24.0211 21.8421 25.3095 22.4484C26.2968 22.913 26.9011 23.1193 27.3034 23.2567L27.321 23.2627C27.7189 23.3985 27.9374 23.4732 28.1311 23.6883C28.1352 23.6929 28.1484 23.703 28.1846 23.7078C28.2204 23.7126 28.2699 23.7111 28.3346 23.701C28.4636 23.6808 28.6369 23.6292 28.8475 23.549C29.2677 23.3891 29.8215 23.1215 30.438 22.7899C31.6705 22.1271 33.1442 21.2134 34.2833 20.4081C36.5666 18.7941 43.5007 14.1448 46.0656 12.8032C47.3443 12.1343 48.3969 11.5539 49.1596 11.1308C49.246 11.0828 49.3287 11.0369 49.4076 10.9931C49.6768 10.8436 49.9019 10.7185 50.0787 10.6223C50.193 10.56 50.2878 10.5095 50.3616 10.4719C50.4012 10.4517 50.4363 10.4345 50.4658 10.4211C50.463 10.417 50.4598 10.4124 50.4563 10.4076C50.4134 10.3489 50.3364 10.2646 50.2302 10.1603C50.0193 9.95298 49.7052 9.6779 49.3542 9.3907C48.6498 8.81442 47.8103 8.20039 47.3675 7.98864C47.1361 7.87795 46.8073 7.67844 46.4197 7.43402C46.2585 7.33235 46.0874 7.22301 45.9081 7.10849C45.6534 6.9458 45.3823 6.77267 45.1003 6.59626C44.1403 5.99567 43.0739 5.36998 42.1771 5.03856C41.7205 4.86981 41.2092 4.65254 40.6469 4.4136C38.9621 3.69764 36.8195 2.78714 34.3182 2.40459C33.2462 2.24063 32.434 2.07326 31.709 1.92387Z" fill="black" stroke="black"/>
</svg>
