<svg width="89" height="108" viewBox="0 0 89 108" fill="none" xmlns="http://www.w3.org/2000/svg">
<g filter="url(#filter0_d_567_9675)">
<rect x="6.18237" y="4.14624" width="76" height="76" rx="18" fill="#F3AF13" fill-opacity="0.3" stroke="#F3AF13" stroke-width="4"/>
<path d="M46.9551 58.672C46.3624 58.1534 40.9659 56.1714 38.3418 55.2452C40.6572 53.4855 50.5671 47.4655 55.3831 44.687C60.1992 41.9086 72.4244 36.5369 73.1654 36.4442C73.9063 36.3516 77.7344 39.1301 78.6297 40.1489C76.1106 40.8898 66.1574 47.1877 61.4958 50.244C56.8959 53.2694 47.5478 59.1907 46.9551 58.672Z" fill="#0066FF"/>
<path d="M38.2492 55.2454C37.5083 54.7268 31.3339 52.683 28.3394 51.726C32.9701 46.6321 43.3431 41.8161 48.437 38.6672C53.5309 35.5182 64.5521 32.6472 65.8488 32.4619C67.1454 32.2767 73.258 36.4444 73.258 36.4444C73.258 36.4444 64.2743 40.0787 58.069 43.298C45.7511 49.6885 39.1754 55.8937 38.2492 55.2454Z" fill="#FF2900"/>
<path d="M28.1538 51.6334C27.2646 51.0407 22.5968 49.5959 20.374 48.9476C24.8196 44.3168 34.7295 37.741 40.1012 34.9625C45.4729 32.1841 56.772 29.7761 58.2539 29.5909C59.7357 29.4056 66.0336 32.4619 66.0336 32.4619C66.0336 32.4619 59.4628 33.0399 44.732 40.8899C30.6544 48.3918 29.2651 52.3743 28.1538 51.6334Z" fill="#FFE500"/>
<path d="M20.282 48.9474C19.8189 48.6695 15.0955 47.0024 14.3545 47.095C13.6136 47.1876 17.7813 43.9461 21.2081 40.9824C24.6349 38.0187 32.0442 33.4805 37.4159 31.2577C42.7876 29.035 47.511 28.4793 49.5485 28.1088C51.5861 27.7383 58.7175 29.5907 58.7175 29.5907C58.7175 29.5907 49.0855 31.7208 42.4171 33.9436C35.7488 36.1664 20.745 49.2252 20.282 48.9474Z" fill="#FF2900"/>
<path d="M14.1692 47.0024C13.5209 47.0024 10.0015 46.6319 10.0015 45.9837C10.0015 45.3354 24.9126 33.4805 27.0428 32.3691C29.1729 31.2577 36.5822 28.294 40.8425 27.6457C45.1029 26.9974 50.5672 28.0162 50.1967 28.0162C49.8263 28.0162 44.4545 28.9423 41.1204 29.9611C37.7862 30.9799 29.8212 35.3328 28.1542 36.259C26.4871 37.1852 14.8175 47.0024 14.1692 47.0024Z" fill="#0066FF"/>
<path fill-rule="evenodd" clip-rule="evenodd" d="M52.0002 28.039C53.0096 28.2469 54.1348 28.4786 55.6086 28.704C59.1296 29.2425 62.1601 30.5305 64.5131 31.5306C65.2904 31.8609 65.9937 32.1598 66.6163 32.3899C67.8919 32.8614 69.3977 33.7461 70.7362 34.5835C71.1293 34.8295 71.5104 35.0728 71.8672 35.3007C72.1173 35.4605 72.3554 35.6126 72.5775 35.7526C73.12 36.0948 73.5675 36.3657 73.8763 36.5134C74.522 36.8222 75.7127 37.6959 76.6938 38.4986C77.1859 38.9013 77.63 39.29 77.9314 39.5861C78.0811 39.7333 78.1998 39.8616 78.2711 39.9593C78.3051 40.0059 78.3367 40.0565 78.3501 40.1047C78.3568 40.1289 78.3632 40.1668 78.3488 40.2071C78.332 40.2542 78.2952 40.2828 78.2573 40.2954C78.2254 40.306 78.1607 40.3355 78.0581 40.3878C77.9579 40.4387 77.8279 40.5081 77.669 40.5946C77.4233 40.7284 77.1105 40.9021 76.7352 41.1106C76.625 41.1718 76.5094 41.236 76.3885 41.3031C75.324 41.8937 73.8537 42.7044 72.0674 43.6388C68.5049 45.5022 58.8437 51.9792 55.6574 54.2316C54.0607 55.3603 51.9971 56.6398 50.2696 57.5689C49.4063 58.0332 48.6237 58.4118 48.0239 58.6401C47.7246 58.754 47.4656 58.8326 47.2622 58.8643C47.1607 58.8802 47.0675 58.8853 46.9874 58.8745C46.908 58.8639 46.829 58.8359 46.773 58.7736C46.5493 58.525 46.3054 58.4367 45.7363 58.2424L45.7153 58.2352C45.1502 58.0423 44.2983 57.7514 42.9095 57.0979C41.1223 56.2568 39.8562 55.8213 38.3403 55.2999C37.4839 55.0053 36.5477 54.6833 35.3928 54.2452C33.4349 53.5026 31.3356 52.8235 29.2284 52.1419C27.9076 51.7147 26.5838 51.2865 25.2896 50.8409C23.8846 50.3572 22.9132 49.9891 21.929 49.6162C21.7384 49.5439 21.5472 49.4715 21.3524 49.398C20.1521 48.9453 18.8079 48.4515 16.5577 47.7107C12.9597 46.526 10.6427 46.1963 9.94446 46.1784L9.73523 46.173L9.85275 45.9998C10.1223 45.6025 10.7125 45.0069 11.4725 44.3121C12.2357 43.6143 13.1796 42.8079 14.1653 41.9871C15.1921 41.1321 16.2605 40.2643 17.22 39.4848C18.1084 38.7633 18.9034 38.1175 19.4859 37.6277C20.6994 36.6073 22.5438 35.2999 24.2682 34.1594C25.9913 33.0198 27.6038 32.0409 28.3531 31.6801C29.8422 30.9631 35.7806 28.7087 37.7645 28.1576C37.98 28.0978 38.1725 28.0423 38.3511 27.9909C38.9868 27.8077 39.4458 27.6754 40.1341 27.5779C41.0137 27.4532 42.2698 27.3845 44.7683 27.3296C48.1903 27.2544 49.8265 27.5914 52.0002 28.039ZM51.9342 28.2596C49.774 27.8144 48.1692 27.4837 44.7733 27.5583C42.2735 27.6133 41.0304 27.6819 40.1662 27.8044C39.495 27.8995 39.0534 28.0267 38.4214 28.2087C38.2416 28.2606 38.0462 28.3168 37.8258 28.3781C35.855 28.9255 29.9293 31.1751 28.4523 31.8862C27.7186 32.2395 26.1179 33.2104 24.3944 34.3502C22.6722 35.4892 20.8365 36.7909 19.6332 37.8027C19.0535 38.2902 18.2546 38.9391 17.363 39.6634C16.4009 40.4449 15.3309 41.3142 14.3117 42.1629C13.3269 42.9829 12.3862 43.7866 11.6269 44.4809C10.9705 45.081 10.4567 45.5932 10.1655 45.9613C11.078 46.0303 13.3209 46.4041 16.6293 47.4934C18.8831 48.2355 20.2304 48.7303 21.4331 49.1839C21.6284 49.2576 21.8198 49.3301 22.0106 49.4024C22.9945 49.7753 23.9626 50.1421 25.3641 50.6246C26.649 51.067 27.9693 51.4941 29.289 51.921C31.4016 52.6044 33.5125 53.2873 35.4739 54.0313C36.6139 54.4637 37.5451 54.7841 38.4005 55.0785C39.9254 55.6032 41.2097 56.0451 43.007 56.8909C44.3843 57.5391 45.2273 57.8269 45.7885 58.0185L45.813 58.0268C46.368 58.2164 46.6729 58.3205 46.9431 58.6206C46.9488 58.627 46.9672 58.641 47.0178 58.6478C47.0676 58.6545 47.1367 58.6524 47.2269 58.6383C47.407 58.6102 47.6487 58.5381 47.9425 58.4263C48.5287 58.2032 49.3012 57.83 50.1612 57.3674C51.8804 56.4427 53.9362 55.1682 55.5253 54.0448C58.7104 51.7933 68.3834 45.3076 71.9614 43.4361C73.7453 42.5029 75.2136 41.6933 76.2775 41.103C76.398 41.0362 76.5133 40.9721 76.6234 40.911C76.999 40.7024 77.313 40.528 77.5596 40.3937C77.7191 40.3069 77.8513 40.2363 77.9543 40.1839C78.0096 40.1558 78.0585 40.1318 78.0997 40.1131C78.0957 40.1073 78.0913 40.101 78.0863 40.0942C78.0266 40.0123 77.9191 39.8948 77.771 39.7493C77.4767 39.46 77.0386 39.0763 76.5489 38.6757C75.5664 37.8718 74.3952 37.0152 73.7776 36.7198C73.4548 36.5654 72.996 36.2871 72.4554 35.9461C72.2306 35.8043 71.9918 35.6518 71.7416 35.492C71.3864 35.2651 71.0082 35.0236 70.6149 34.7775C69.2757 33.9396 67.788 33.0668 66.537 32.6045C65.9 32.3691 65.1868 32.066 64.4024 31.7327C62.0522 30.7339 59.0632 29.4638 55.5741 28.9302C54.0786 28.7014 52.9455 28.468 51.9342 28.2596Z" fill="black" stroke="black"/>
<path d="M16.0617 99.2302C15.8843 99.2396 15.749 99.1929 15.6557 99.0902C15.553 98.9876 15.5017 98.8616 15.5017 98.7122C15.5017 98.6002 15.539 98.4976 15.6137 98.4042C15.679 98.3109 15.7863 98.2596 15.9357 98.2502L16.3697 98.2222C16.8457 98.1849 17.2097 98.0216 17.4617 97.7322C17.7137 97.4336 17.8397 97.0276 17.8397 96.5142V89.7662C17.8397 89.5702 17.8863 89.4256 17.9797 89.3322C18.0823 89.2296 18.227 89.1782 18.4137 89.1782C18.6003 89.1782 18.7403 89.2296 18.8337 89.3322C18.9363 89.4256 18.9877 89.5702 18.9877 89.7662V96.5282C18.9877 97.0602 18.8943 97.5222 18.7077 97.9142C18.521 98.2969 18.241 98.5956 17.8677 98.8102C17.5037 99.0249 17.0557 99.1509 16.5237 99.1882L16.0617 99.2302ZM23.6807 99.2722C23.1301 99.2722 22.6727 99.1742 22.3087 98.9782C21.9541 98.7729 21.6834 98.4696 21.4967 98.0682C21.3194 97.6669 21.2307 97.1676 21.2307 96.5702V92.8182C21.2307 92.6222 21.2774 92.4776 21.3707 92.3842C21.4734 92.2909 21.6134 92.2442 21.7907 92.2442C21.9774 92.2442 22.1174 92.2909 22.2107 92.3842C22.3134 92.4776 22.3647 92.6222 22.3647 92.8182V96.5562C22.3647 97.1536 22.4861 97.6016 22.7287 97.9002C22.9807 98.1896 23.3727 98.3342 23.9047 98.3342C24.4834 98.3342 24.9547 98.1382 25.3187 97.7462C25.6827 97.3542 25.8647 96.8409 25.8647 96.2062V92.8182C25.8647 92.6222 25.9114 92.4776 26.0047 92.3842C26.1074 92.2909 26.2521 92.2442 26.4387 92.2442C26.6161 92.2442 26.7514 92.2909 26.8447 92.3842C26.9474 92.4776 26.9987 92.6222 26.9987 92.8182V98.6562C26.9987 99.0482 26.8167 99.2442 26.4527 99.2442C26.2754 99.2442 26.1354 99.1929 26.0327 99.0902C25.9394 98.9876 25.8927 98.8429 25.8927 98.6562V97.3822L26.0747 97.5782C25.8881 98.1289 25.5801 98.5489 25.1507 98.8382C24.7307 99.1276 24.2407 99.2722 23.6807 99.2722ZM29.7084 99.2442C29.5217 99.2442 29.3817 99.1929 29.2884 99.0902C29.1951 98.9876 29.1484 98.8429 29.1484 98.6562V92.8182C29.1484 92.6316 29.1951 92.4916 29.2884 92.3982C29.3817 92.2956 29.5171 92.2442 29.6944 92.2442C29.8717 92.2442 30.0071 92.2956 30.1004 92.3982C30.2031 92.4916 30.2544 92.6316 30.2544 92.8182V94.0502L30.1004 93.8542C30.2777 93.3316 30.5624 92.9302 30.9544 92.6502C31.3557 92.3609 31.8317 92.2162 32.3824 92.2162C32.9611 92.2162 33.4277 92.3562 33.7824 92.6362C34.1464 92.9069 34.3891 93.3316 34.5104 93.9102H34.3004C34.4684 93.3876 34.7671 92.9769 35.1964 92.6782C35.6351 92.3702 36.1437 92.2162 36.7224 92.2162C37.2357 92.2162 37.6557 92.3142 37.9824 92.5102C38.3184 92.7062 38.5704 93.0049 38.7384 93.4062C38.9064 93.7982 38.9904 94.2976 38.9904 94.9042V98.6562C38.9904 98.8429 38.9391 98.9876 38.8364 99.0902C38.7431 99.1929 38.6031 99.2442 38.4164 99.2442C38.2391 99.2442 38.0991 99.1929 37.9964 99.0902C37.9031 98.9876 37.8564 98.8429 37.8564 98.6562V94.9602C37.8564 94.3349 37.7491 93.8776 37.5344 93.5882C37.3197 93.2896 36.9557 93.1402 36.4424 93.1402C35.8824 93.1402 35.4391 93.3362 35.1124 93.7282C34.7951 94.1109 34.6364 94.6336 34.6364 95.2962V98.6562C34.6364 98.8429 34.5851 98.9876 34.4824 99.0902C34.3891 99.1929 34.2491 99.2442 34.0624 99.2442C33.8851 99.2442 33.7451 99.1929 33.6424 99.0902C33.5491 98.9876 33.5024 98.8429 33.5024 98.6562V94.9602C33.5024 94.3349 33.3904 93.8776 33.1664 93.5882C32.9517 93.2896 32.5924 93.1402 32.0884 93.1402C31.5284 93.1402 31.0851 93.3362 30.7584 93.7282C30.4411 94.1109 30.2824 94.6336 30.2824 95.2962V98.6562C30.2824 99.0482 30.0911 99.2442 29.7084 99.2442ZM41.6706 101.764C41.484 101.764 41.344 101.713 41.2506 101.61C41.1573 101.517 41.1106 101.377 41.1106 101.19V92.8182C41.1106 92.6316 41.1573 92.4916 41.2506 92.3982C41.344 92.2956 41.4793 92.2442 41.6566 92.2442C41.8433 92.2442 41.9833 92.2956 42.0766 92.3982C42.1793 92.4916 42.2306 92.6316 42.2306 92.8182V94.1482L42.0766 93.9522C42.226 93.4202 42.52 93.0002 42.9586 92.6922C43.4066 92.3749 43.9386 92.2162 44.5546 92.2162C45.1613 92.2162 45.6886 92.3609 46.1366 92.6502C46.594 92.9302 46.944 93.3362 47.1866 93.8682C47.4386 94.3909 47.5646 95.0162 47.5646 95.7442C47.5646 96.4629 47.4386 97.0882 47.1866 97.6202C46.944 98.1429 46.5986 98.5489 46.1506 98.8382C45.7026 99.1276 45.1706 99.2722 44.5546 99.2722C43.9386 99.2722 43.4113 99.1182 42.9726 98.8102C42.534 98.4929 42.2353 98.0729 42.0766 97.5502H42.2446V101.19C42.2446 101.377 42.1933 101.517 42.0906 101.61C41.988 101.713 41.848 101.764 41.6706 101.764ZM44.3166 98.3622C44.746 98.3622 45.1146 98.2596 45.4226 98.0542C45.74 97.8489 45.9826 97.5502 46.1506 97.1582C46.328 96.7662 46.4166 96.2949 46.4166 95.7442C46.4166 94.8949 46.2253 94.2462 45.8426 93.7982C45.4693 93.3502 44.9606 93.1262 44.3166 93.1262C43.8966 93.1262 43.528 93.2289 43.2106 93.4342C42.8933 93.6302 42.646 93.9242 42.4686 94.3162C42.3006 94.6989 42.2166 95.1749 42.2166 95.7442C42.2166 96.5842 42.408 97.2329 42.7906 97.6902C43.1733 98.1382 43.682 98.3622 44.3166 98.3622ZM49.8327 101.764C49.6461 101.764 49.5061 101.713 49.4127 101.61C49.3194 101.517 49.2727 101.377 49.2727 101.19V92.8182C49.2727 92.6316 49.3194 92.4916 49.4127 92.3982C49.5061 92.2956 49.6414 92.2442 49.8187 92.2442C50.0054 92.2442 50.1454 92.2956 50.2387 92.3982C50.3414 92.4916 50.3927 92.6316 50.3927 92.8182V94.1482L50.2387 93.9522C50.3881 93.4202 50.6821 93.0002 51.1207 92.6922C51.5687 92.3749 52.1007 92.2162 52.7167 92.2162C53.3234 92.2162 53.8507 92.3609 54.2987 92.6502C54.7561 92.9302 55.1061 93.3362 55.3487 93.8682C55.6007 94.3909 55.7267 95.0162 55.7267 95.7442C55.7267 96.4629 55.6007 97.0882 55.3487 97.6202C55.1061 98.1429 54.7607 98.5489 54.3127 98.8382C53.8647 99.1276 53.3327 99.2722 52.7167 99.2722C52.1007 99.2722 51.5734 99.1182 51.1347 98.8102C50.6961 98.4929 50.3974 98.0729 50.2387 97.5502H50.4067V101.19C50.4067 101.377 50.3554 101.517 50.2527 101.61C50.1501 101.713 50.0101 101.764 49.8327 101.764ZM52.4787 98.3622C52.9081 98.3622 53.2767 98.2596 53.5847 98.0542C53.9021 97.8489 54.1447 97.5502 54.3127 97.1582C54.4901 96.7662 54.5787 96.2949 54.5787 95.7442C54.5787 94.8949 54.3874 94.2462 54.0047 93.7982C53.6314 93.3502 53.1227 93.1262 52.4787 93.1262C52.0587 93.1262 51.6901 93.2289 51.3727 93.4342C51.0554 93.6302 50.8081 93.9242 50.6307 94.3162C50.4627 94.6989 50.3787 95.1749 50.3787 95.7442C50.3787 96.5842 50.5701 97.2329 50.9527 97.6902C51.3354 98.1382 51.8441 98.3622 52.4787 98.3622ZM60.0248 99.2722C59.4182 99.2722 58.8862 99.1276 58.4288 98.8382C57.9808 98.5489 57.6308 98.1429 57.3788 97.6202C57.1362 97.0882 57.0148 96.4629 57.0148 95.7442C57.0148 95.0162 57.1362 94.3909 57.3788 93.8682C57.6308 93.3362 57.9808 92.9302 58.4288 92.6502C58.8862 92.3609 59.4182 92.2162 60.0248 92.2162C60.6408 92.2162 61.1682 92.3702 61.6068 92.6782C62.0455 92.9862 62.3395 93.4016 62.4888 93.9242L62.3488 94.0922V92.8182C62.3488 92.6316 62.3955 92.4916 62.4888 92.3982C62.5915 92.2956 62.7315 92.2442 62.9088 92.2442C63.0955 92.2442 63.2355 92.2956 63.3288 92.3982C63.4222 92.4916 63.4689 92.6316 63.4689 92.8182V98.6562C63.4689 98.8429 63.4222 98.9876 63.3288 99.0902C63.2355 99.1929 63.0955 99.2442 62.9088 99.2442C62.7315 99.2442 62.5915 99.1929 62.4888 99.0902C62.3955 98.9876 62.3488 98.8429 62.3488 98.6562V97.3962L62.5028 97.5222C62.3535 98.0542 62.0548 98.4789 61.6068 98.7962C61.1682 99.1136 60.6408 99.2722 60.0248 99.2722ZM60.2628 98.3622C60.6828 98.3622 61.0515 98.2596 61.3688 98.0542C61.6862 97.8489 61.9288 97.5502 62.0968 97.1582C62.2742 96.7662 62.3629 96.2949 62.3629 95.7442C62.3629 94.8949 62.1715 94.2462 61.7888 93.7982C61.4155 93.3502 60.9068 93.1262 60.2628 93.1262C59.8335 93.1262 59.4602 93.2289 59.1428 93.4342C58.8348 93.6302 58.5922 93.9242 58.4148 94.3162C58.2468 94.6989 58.1628 95.1749 58.1628 95.7442C58.1628 96.5842 58.3542 97.2329 58.7368 97.6902C59.1195 98.1382 59.6282 98.3622 60.2628 98.3622ZM68.187 99.2722C67.5803 99.2722 67.0483 99.1276 66.591 98.8382C66.143 98.5489 65.793 98.1429 65.541 97.6202C65.2983 97.0882 65.177 96.4629 65.177 95.7442C65.177 95.0162 65.2983 94.3909 65.541 93.8682C65.793 93.3362 66.143 92.9302 66.591 92.6502C67.0483 92.3609 67.5803 92.2162 68.187 92.2162C68.803 92.2162 69.3303 92.3702 69.769 92.6782C70.2076 92.9862 70.5016 93.4016 70.651 93.9242H70.497V89.7522C70.497 89.5656 70.5436 89.4256 70.637 89.3322C70.7396 89.2296 70.8843 89.1782 71.071 89.1782C71.2483 89.1782 71.3836 89.2296 71.477 89.3322C71.5796 89.4256 71.631 89.5656 71.631 89.7522V98.6562C71.631 98.8429 71.5843 98.9876 71.491 99.0902C71.3976 99.1929 71.2576 99.2442 71.071 99.2442C70.8936 99.2442 70.7536 99.1929 70.651 99.0902C70.5576 98.9876 70.511 98.8429 70.511 98.6562V97.3262L70.665 97.5222C70.5156 98.0542 70.217 98.4789 69.769 98.7962C69.3303 99.1136 68.803 99.2722 68.187 99.2722ZM68.425 98.3622C68.845 98.3622 69.2136 98.2596 69.531 98.0542C69.8483 97.8489 70.091 97.5502 70.259 97.1582C70.4363 96.7662 70.525 96.2949 70.525 95.7442C70.525 94.8949 70.3336 94.2462 69.951 93.7982C69.5776 93.3502 69.069 93.1262 68.425 93.1262C67.9956 93.1262 67.6223 93.2289 67.305 93.4342C66.997 93.6302 66.7543 93.9242 66.577 94.3162C66.409 94.6989 66.325 95.1749 66.325 95.7442C66.325 96.5842 66.5163 97.2329 66.899 97.6902C67.2816 98.1382 67.7903 98.3622 68.425 98.3622Z" fill="black"/>
</g>
<defs>
<filter id="filter0_d_567_9675" x="0.182373" y="0.14624" width="88" height="107.618" filterUnits="userSpaceOnUse" color-interpolation-filters="sRGB">
<feFlood flood-opacity="0" result="BackgroundImageFix"/>
<feColorMatrix in="SourceAlpha" type="matrix" values="0 0 0 0 0 0 0 0 0 0 0 0 0 0 0 0 0 0 127 0" result="hardAlpha"/>
<feOffset dy="2"/>
<feGaussianBlur stdDeviation="2"/>
<feComposite in2="hardAlpha" operator="out"/>
<feColorMatrix type="matrix" values="0 0 0 0 0.952941 0 0 0 0 0.686275 0 0 0 0 0.0745098 0 0 0 0.5 0"/>
<feBlend mode="normal" in2="BackgroundImageFix" result="effect1_dropShadow_567_9675"/>
<feBlend mode="normal" in="SourceGraphic" in2="effect1_dropShadow_567_9675" result="shape"/>
</filter>
</defs>
</svg>
