<svg width="61" height="61" viewBox="0 0 61 61" fill="none" xmlns="http://www.w3.org/2000/svg">
<rect x="1.08469" y="0.829321" width="59.2" height="59.2" rx="19.6" fill="#F8F8D3" stroke="#595F4B" stroke-width="0.8"/>
<path d="M32.7642 42.7652C32.3197 42.3762 28.2723 40.8897 26.3043 40.1951C28.0408 38.8753 35.4732 34.3603 39.0852 32.2764C42.6973 30.1926 51.8662 26.1638 52.4219 26.0943C52.9776 26.0249 55.8487 28.1087 56.5202 28.8728C54.6308 29.4285 47.166 34.1519 43.6697 36.4441C40.2198 38.7132 33.2088 43.1541 32.7642 42.7652Z" fill="#5ECFB1"/>
<path d="M26.2349 40.1952C25.6792 39.8062 21.0484 38.2734 18.8025 37.5557C22.2756 33.7353 30.0553 30.1232 33.8757 27.7615C37.6961 25.3998 45.9621 23.2465 46.9345 23.1076C47.907 22.9687 52.4915 26.0944 52.4915 26.0944C52.4915 26.0944 45.7537 28.8202 41.0997 31.2346C31.8613 36.0275 26.9295 40.6814 26.2349 40.1952Z" fill="#E9492A"/>
<path d="M18.6633 37.4862C17.9965 37.0417 14.4956 35.9581 12.8285 35.4718C16.1627 31.9988 23.5951 27.0669 27.6239 24.9831C31.6527 22.8992 40.127 21.0933 41.2384 20.9543C42.3498 20.8154 47.0732 23.1076 47.0732 23.1076C47.0732 23.1076 42.1451 23.5411 31.097 29.4286C20.5388 35.055 19.4968 38.0419 18.6633 37.4862Z" fill="#E6D436"/>
<path d="M12.7593 35.4717C12.412 35.2633 8.86946 34.013 8.31376 34.0824C7.75807 34.1519 10.8839 31.7207 13.4539 29.4979C16.024 27.2752 21.581 23.8715 25.6098 22.2044C29.6386 20.5374 33.1811 20.1206 34.7093 19.8427C36.2374 19.5649 41.586 20.9541 41.586 20.9541C41.586 20.9541 34.362 22.5518 29.3607 24.2188C24.3594 25.8859 13.1066 35.68 12.7593 35.4717Z" fill="#E9492A"/>
<path d="M8.17486 34.013C7.68862 34.013 5.04907 33.7351 5.04907 33.2489C5.04907 32.7627 16.2324 23.8715 17.8301 23.038C19.4277 22.2044 24.9846 19.9817 28.1799 19.4954C31.3751 19.0092 35.4734 19.7733 35.1955 19.7733C34.9177 19.7733 30.8889 20.4679 28.3883 21.232C25.8876 21.9961 19.9139 25.2608 18.6636 25.9554C17.4133 26.65 8.66109 34.013 8.17486 34.013Z" fill="#5ECFB1"/>
<path fill-rule="evenodd" clip-rule="evenodd" d="M36.5481 19.7904C37.3051 19.9463 38.1491 20.1201 39.2544 20.2892C41.8951 20.693 44.168 21.659 45.9328 22.4091C46.5157 22.6568 47.0432 22.881 47.5102 23.0536C48.4669 23.4072 49.5962 24.0707 50.6001 24.6988C50.8949 24.8832 51.1807 25.0658 51.4483 25.2367C51.6359 25.3565 51.8145 25.4706 51.981 25.5756C52.3879 25.8322 52.7236 26.0355 52.9552 26.1462C53.4394 26.3778 54.3325 27.0331 55.0683 27.6351C55.4374 27.9371 55.7705 28.2286 55.9965 28.4507C56.1088 28.5611 56.1978 28.6573 56.2513 28.7306C56.2768 28.7656 56.3005 28.8035 56.3105 28.8396C56.3156 28.8578 56.3203 28.8862 56.3095 28.9165C56.297 28.9518 56.2694 28.9732 56.2409 28.9827C56.217 28.9907 56.1685 29.0128 56.0915 29.052C56.0164 29.0902 55.9189 29.1422 55.7997 29.2071C55.6154 29.3074 55.3808 29.4377 55.0993 29.5941C55.0167 29.64 54.93 29.6881 54.8393 29.7384C54.0409 30.1814 52.9382 30.7894 51.5985 31.4902C48.9266 32.8878 41.6807 37.7455 39.291 39.4349C38.0935 40.2813 36.5457 41.241 35.2501 41.9378C34.6027 42.286 34.0157 42.57 33.5658 42.7412C33.3414 42.8266 33.1471 42.8856 32.9946 42.9094C32.9185 42.9213 32.8485 42.9251 32.7885 42.917C32.729 42.9091 32.6697 42.888 32.6277 42.8414C32.4599 42.6549 32.277 42.5887 31.8501 42.4429L31.8344 42.4375C31.4106 42.2929 30.7717 42.0747 29.7301 41.5846C28.3897 40.9538 27.4401 40.6271 26.3032 40.2361C25.6609 40.0151 24.9587 39.7736 24.0925 39.445C22.6241 38.8881 21.0497 38.3788 19.4692 37.8676C18.4787 37.5471 17.4858 37.226 16.5151 36.8918C15.4614 36.5291 14.7328 36.253 13.9947 35.9733C13.8517 35.9191 13.7084 35.8647 13.5622 35.8096C12.662 35.4701 11.6539 35.0998 9.96626 34.5441C7.26771 33.6556 5.53 33.4084 5.00629 33.3949L4.84937 33.3909L4.9375 33.261C5.13969 32.963 5.58234 32.5163 6.15233 31.9952C6.72473 31.4718 7.43267 30.8671 8.17195 30.2514C8.94201 29.6102 9.74329 28.9593 10.463 28.3748C11.1292 27.8336 11.7255 27.3493 12.1624 26.9819C13.0725 26.2166 14.4558 25.2361 15.7491 24.3807C17.0414 23.526 18.2508 22.7918 18.8128 22.5212C19.9296 21.9834 24.3834 20.2927 25.8714 19.8794C26.0329 19.8345 26.1773 19.7929 26.3113 19.7543C26.788 19.6169 27.1323 19.5177 27.6485 19.4446C28.3082 19.3511 29.2503 19.2995 31.1242 19.2584C33.6906 19.202 34.9178 19.4547 36.5481 19.7904ZM36.4986 19.9558C34.8784 19.6219 33.6748 19.3739 31.1279 19.4299C29.2531 19.4711 28.3208 19.5226 27.6726 19.6144C27.1692 19.6858 26.838 19.7812 26.364 19.9177C26.2291 19.9566 26.0826 19.9988 25.9173 20.0447C24.4392 20.4552 19.9949 22.1424 18.8872 22.6758C18.3369 22.9407 17.1364 23.6689 15.8437 24.5238C14.5521 25.3781 13.1753 26.3543 12.2728 27.1132C11.8381 27.4788 11.2389 27.9655 10.5702 28.5087C9.84865 29.0948 9.04611 29.7468 8.28174 30.3833C7.54315 30.9983 6.83758 31.6011 6.2681 32.1218C5.77582 32.5719 5.39046 32.956 5.17207 33.2321C5.85646 33.2839 7.53862 33.5642 10.0199 34.3812C11.7103 34.9377 12.7207 35.3089 13.6228 35.6491C13.7692 35.7043 13.9128 35.7587 14.0559 35.813C14.7938 36.0926 15.5199 36.3677 16.571 36.7296C17.5347 37.0614 18.5249 37.3817 19.5147 37.7019C21.0991 38.2145 22.6823 38.7266 24.1534 39.2846C25.0084 39.6089 25.7067 39.8492 26.3483 40.07C27.492 40.4636 28.4552 40.795 29.8032 41.4293C30.8361 41.9154 31.4684 42.1313 31.8893 42.275L31.9077 42.2813C32.324 42.4234 32.5526 42.5015 32.7552 42.7266C32.7596 42.7314 32.7734 42.7419 32.8113 42.747C32.8486 42.752 32.9005 42.7504 32.9681 42.7399C33.1032 42.7188 33.2844 42.6647 33.5048 42.5809C33.9445 42.4135 34.5238 42.1336 35.1689 41.7867C36.4583 41.0932 38.0001 40.1373 39.1919 39.2948C41.5808 37.6061 48.8355 32.7418 51.519 31.3382C52.8569 30.6383 53.9581 30.0311 54.7561 29.5884C54.8464 29.5383 54.9329 29.4902 55.0155 29.4444C55.2972 29.2879 55.5327 29.1571 55.7177 29.0564C55.8373 28.9913 55.9364 28.9384 56.0137 28.8991C56.0551 28.878 56.0918 28.86 56.1227 28.846C56.1197 28.8416 56.1164 28.8369 56.1127 28.8318C56.0679 28.7704 55.9872 28.6822 55.8762 28.5731C55.6555 28.3562 55.3269 28.0684 54.9596 27.7679C54.2227 27.165 53.3444 26.5225 52.8811 26.301C52.639 26.1852 52.295 25.9765 51.8895 25.7207C51.7209 25.6144 51.5418 25.5 51.3542 25.3801C51.0877 25.2099 50.8041 25.0288 50.5091 24.8442C49.5047 24.2159 48.3889 23.5613 47.4507 23.2145C46.973 23.038 46.438 22.8106 45.8498 22.5607C44.0871 21.8116 41.8454 20.859 39.2285 20.4588C38.1069 20.2872 37.2571 20.1121 36.4986 19.9558Z" fill="black"/>
</svg>
