<svg width="99" height="27" viewBox="0 0 99 27" fill="none" xmlns="http://www.w3.org/2000/svg">
<path d="M4.14432 26.7259C3.08832 26.7259 2.27232 26.4379 1.69632 25.8619C1.12032 25.2619 0.83232 24.4339 0.83232 23.3779V4.36985C0.83232 3.28985 1.12032 2.46185 1.69632 1.88585C2.29632 1.30985 3.12432 1.02185 4.18032 1.02185H13.0363C15.9163 1.02185 18.1363 1.76585 19.6963 3.25386C21.2803 4.71785 22.0723 6.74585 22.0723 9.33785C22.0723 11.9299 21.2803 13.9699 19.6963 15.4579C18.1363 16.9219 15.9163 17.6539 13.0363 17.6539H7.45632V23.3779C7.45632 24.4339 7.18032 25.2619 6.62832 25.8619C6.07632 26.4379 5.24832 26.7259 4.14432 26.7259ZM7.45632 12.5779H11.8843C13.1323 12.5779 14.0923 12.3139 14.7643 11.7859C15.4363 11.2339 15.7723 10.4179 15.7723 9.33785C15.7723 8.23385 15.4363 7.41785 14.7643 6.88985C14.0923 6.36185 13.1323 6.09786 11.8843 6.09786H7.45632V12.5779Z" fill="#E9492A"/>
<path d="M29.9484 26.4019C28.8924 26.4019 28.0644 26.1139 27.4644 25.5379C26.8884 24.9379 26.6004 24.1099 26.6004 23.0539V4.33385C26.6004 3.25385 26.8884 2.42585 27.4644 1.84985C28.0404 1.27385 28.8564 0.985854 29.9124 0.985854C30.9924 0.985854 31.8084 1.27385 32.3604 1.84985C32.9364 2.42585 33.2244 3.25385 33.2244 4.33385V20.8939H42.0084C42.9204 20.8939 43.6164 21.1339 44.0964 21.6139C44.6004 22.0699 44.8524 22.7419 44.8524 23.6299C44.8524 24.5179 44.6004 25.2019 44.0964 25.6819C43.6164 26.1619 42.9204 26.4019 42.0084 26.4019H29.9484Z" fill="#F6A43F"/>
<path d="M50.287 26.7259C49.543 26.7259 48.919 26.5579 48.415 26.2219C47.911 25.8619 47.599 25.3819 47.479 24.7819C47.359 24.1579 47.467 23.4619 47.803 22.6939L56.767 3.39785C57.199 2.46185 57.727 1.77785 58.351 1.34585C58.999 0.913854 59.731 0.697854 60.547 0.697854C61.363 0.697854 62.071 0.913854 62.671 1.34585C63.295 1.77785 63.835 2.46185 64.291 3.39785L73.255 22.6939C73.639 23.4619 73.771 24.1579 73.651 24.7819C73.555 25.4059 73.255 25.8859 72.751 26.2219C72.271 26.5579 71.671 26.7259 70.951 26.7259C69.991 26.7259 69.247 26.5099 68.719 26.0779C68.215 25.6459 67.759 24.9499 67.351 23.9899L65.407 19.4179L67.927 21.2539H53.095L55.651 19.4179L53.707 23.9899C53.275 24.9499 52.831 25.6459 52.375 26.0779C51.919 26.5099 51.223 26.7259 50.287 26.7259ZM60.475 7.93386L56.299 17.9059L55.291 16.1779H65.767L64.759 17.9059L60.547 7.93386H60.475Z" fill="#5ECFB1"/>
<path d="M87.2841 26.7259C86.2281 26.7259 85.4121 26.4379 84.8361 25.8619C84.2601 25.2619 83.9721 24.4099 83.9721 23.3059V13.4419L85.3401 17.0779L77.0601 5.16185C76.6521 4.58585 76.4721 3.94985 76.5201 3.25386C76.5921 2.53385 76.8801 1.93385 77.3841 1.45385C77.9121 0.949854 78.6561 0.697854 79.6161 0.697854C80.2881 0.697854 80.9001 0.865854 81.4521 1.20185C82.0041 1.51385 82.5201 2.05385 83.0001 2.82185L88.0401 10.2379H86.7441L91.7841 2.78585C92.2881 2.01785 92.8041 1.47785 93.3321 1.16585C93.8601 0.853854 94.4841 0.697854 95.2041 0.697854C96.1161 0.697854 96.8241 0.925854 97.3281 1.38185C97.8321 1.83785 98.0961 2.41385 98.1201 3.10985C98.1681 3.80585 97.9521 4.51385 97.4721 5.23386L89.2641 17.0779L90.5961 13.4419V23.3059C90.5961 25.5859 89.4921 26.7259 87.2841 26.7259Z" fill="#9BC851"/>
</svg>
