<svg width="44" height="39" viewBox="0 0 44 39" fill="none" xmlns="http://www.w3.org/2000/svg">
<path d="M16.0923 25.6128H29.2909L27.9078 26.9992H14.7091L16.0923 25.6128Z" fill="#F6A43F"/>
<path fill-rule="evenodd" clip-rule="evenodd" d="M16.0397 25.4962H29.5762L27.9605 27.1157H14.4241L16.0397 25.4962ZM16.145 25.7292L14.9943 26.8827H27.8552L29.0059 25.7292H16.145Z" fill="black"/>
<path d="M27.8328 27.9895H14.7091V27.0198H27.8328V27.9895Z" fill="#F6A43F"/>
<path fill-rule="evenodd" clip-rule="evenodd" d="M14.7091 26.9034H27.9553V28.1061H14.5865V26.9993H14.7091V26.9034ZM14.8316 27.1365V27.8731H27.7102V27.1365H14.8316Z" fill="black"/>
<path d="M29.2909 26.6891V25.6128L27.8328 26.9133V27.9896L29.2909 26.6891Z" fill="#F6A43F"/>
<path fill-rule="evenodd" clip-rule="evenodd" d="M29.4133 25.3438V26.7395L27.7101 28.2586V26.8628L29.4133 25.3438ZM27.9552 26.9637V27.7205L29.1683 26.6386V25.8818L27.9552 26.9637Z" fill="black"/>
<path fill-rule="evenodd" clip-rule="evenodd" d="M16.5399 26.4488L16.5399 1.44907L17.2823 1.44907L17.2823 26.4488L16.5399 26.4488Z" fill="#58676D"/>
<path fill-rule="evenodd" clip-rule="evenodd" d="M26.5389 26.4488L26.5389 1.44907L27.2814 1.44907L27.2814 26.4488L26.5389 26.4488Z" fill="#58676D"/>
<path d="M1.78152 37.5273C1.78152 37.849 1.50721 38.1098 1.16883 38.1098C0.830459 38.1098 0.556152 37.849 0.556152 37.5273C0.556152 37.2056 0.830459 36.9448 1.16883 36.9448C1.50721 36.9448 1.78152 37.2056 1.78152 37.5273Z" fill="black"/>
<path d="M43.444 33.6256C43.444 33.9474 43.1697 34.2082 42.8313 34.2082C42.4929 34.2082 42.2186 33.9474 42.2186 33.6256C42.2186 33.3039 42.4929 33.0431 42.8313 33.0431C43.1697 33.0431 43.444 33.3039 43.444 33.6256Z" fill="black"/>
<path d="M32.4516 37.4256C32.4516 37.7473 32.1773 38.0081 31.8389 38.0081C31.5005 38.0081 31.2262 37.7473 31.2262 37.4256C31.2262 37.1038 31.5005 36.843 31.8389 36.843C32.1773 36.843 32.4516 37.1038 32.4516 37.4256Z" fill="black"/>
<path d="M12.6443 34.4588C12.6443 34.7805 12.37 35.0414 12.0316 35.0414C11.6933 35.0414 11.4189 34.7805 11.4189 34.4588C11.4189 34.1371 11.6933 33.8763 12.0316 33.8763C12.37 33.8763 12.6443 34.1371 12.6443 34.4588Z" fill="black"/>
<path fill-rule="evenodd" clip-rule="evenodd" d="M6.36213 0.470367H38.2991L43.4375 33.5599L42.2252 33.7301L37.7558 4.94797L32.4344 37.6164L31.2235 37.4381L37.0554 1.63545H7.59907L12.6553 34.4906L11.4429 34.6592L6.88443 5.03893L1.77495 37.6132L0.562988 37.4413L6.36213 0.470367Z" fill="black"/>
</svg>
