<svg width="88" height="107" viewBox="0 0 88 107" fill="none" xmlns="http://www.w3.org/2000/svg">
<g filter="url(#filter0_d_567_9622)">
<path d="M9.25391 98.2442C9.06725 98.2442 8.92258 98.1929 8.81991 98.0902C8.72658 97.9782 8.67991 97.8289 8.67991 97.6422V88.8642C8.67991 88.6682 8.73125 88.5236 8.83391 88.4302C8.93658 88.3276 9.08125 88.2762 9.26791 88.2762H12.5859C13.6406 88.2762 14.4526 88.5376 15.0219 89.0602C15.5912 89.5736 15.8759 90.3016 15.8759 91.2442C15.8759 92.1776 15.5912 92.9056 15.0219 93.4282C14.4526 93.9509 13.6406 94.2122 12.5859 94.2122H9.82791V97.6422C9.82791 97.8289 9.78125 97.9782 9.68791 98.0902C9.59458 98.1929 9.44991 98.2442 9.25391 98.2442ZM9.82791 93.2462H12.4459C13.2019 93.2462 13.7712 93.0782 14.1539 92.7422C14.5459 92.3969 14.7419 91.8976 14.7419 91.2442C14.7419 90.5816 14.5459 90.0822 14.1539 89.7462C13.7712 89.4009 13.2019 89.2282 12.4459 89.2282H9.82791V93.2462ZM19.4573 98.2722C18.7853 98.2722 18.272 98.0669 17.9173 97.6562C17.5626 97.2456 17.3853 96.6576 17.3853 95.8922V88.7522C17.3853 88.5656 17.432 88.4256 17.5253 88.3322C17.6186 88.2296 17.7586 88.1782 17.9453 88.1782C18.1226 88.1782 18.2626 88.2296 18.3653 88.3322C18.468 88.4256 18.5193 88.5656 18.5193 88.7522V95.8082C18.5193 96.3122 18.6173 96.6902 18.8133 96.9422C19.0186 97.1849 19.3173 97.3062 19.7093 97.3062C19.7933 97.3062 19.868 97.3016 19.9333 97.2922C19.9986 97.2829 20.064 97.2782 20.1293 97.2782C20.232 97.2689 20.302 97.2922 20.3393 97.3482C20.386 97.4042 20.4093 97.5162 20.4093 97.6842C20.4093 97.8522 20.372 97.9782 20.2973 98.0622C20.2226 98.1462 20.1013 98.2022 19.9333 98.2302C19.8586 98.2396 19.7793 98.2489 19.6953 98.2582C19.6113 98.2676 19.532 98.2722 19.4573 98.2722ZM24.0495 98.2722C23.4428 98.2722 22.9108 98.1276 22.4535 97.8382C22.0055 97.5489 21.6555 97.1429 21.4035 96.6202C21.1608 96.0882 21.0395 95.4629 21.0395 94.7442C21.0395 94.0162 21.1608 93.3909 21.4035 92.8682C21.6555 92.3362 22.0055 91.9302 22.4535 91.6502C22.9108 91.3609 23.4428 91.2162 24.0495 91.2162C24.6655 91.2162 25.1928 91.3702 25.6315 91.6782C26.0702 91.9862 26.3642 92.4016 26.5135 92.9242L26.3735 93.0922V91.8182C26.3735 91.6316 26.4202 91.4916 26.5135 91.3982C26.6162 91.2956 26.7562 91.2442 26.9335 91.2442C27.1202 91.2442 27.2602 91.2956 27.3535 91.3982C27.4468 91.4916 27.4935 91.6316 27.4935 91.8182V97.6562C27.4935 97.8429 27.4468 97.9876 27.3535 98.0902C27.2602 98.1929 27.1202 98.2442 26.9335 98.2442C26.7562 98.2442 26.6162 98.1929 26.5135 98.0902C26.4202 97.9876 26.3735 97.8429 26.3735 97.6562V96.3962L26.5275 96.5222C26.3782 97.0542 26.0795 97.4789 25.6315 97.7962C25.1928 98.1136 24.6655 98.2722 24.0495 98.2722ZM24.2875 97.3622C24.7075 97.3622 25.0762 97.2596 25.3935 97.0542C25.7108 96.8489 25.9535 96.5502 26.1215 96.1582C26.2988 95.7662 26.3875 95.2949 26.3875 94.7442C26.3875 93.8949 26.1962 93.2462 25.8135 92.7982C25.4402 92.3502 24.9315 92.1262 24.2875 92.1262C23.8582 92.1262 23.4848 92.2289 23.1675 92.4342C22.8595 92.6302 22.6168 92.9242 22.4395 93.3162C22.2715 93.6989 22.1875 94.1749 22.1875 94.7442C22.1875 95.5842 22.3788 96.2329 22.7615 96.6902C23.1442 97.1382 23.6528 97.3622 24.2875 97.3622ZM31.1336 100.764C30.9936 100.764 30.8816 100.727 30.7976 100.652C30.7136 100.578 30.6623 100.475 30.6436 100.344C30.6343 100.223 30.6576 100.097 30.7136 99.9662L31.6796 97.7962V98.2862L28.9916 92.0422C28.9356 91.9022 28.917 91.7716 28.9356 91.6502C28.9543 91.5289 29.0103 91.4309 29.1036 91.3562C29.197 91.2816 29.3276 91.2442 29.4956 91.2442C29.645 91.2442 29.7616 91.2769 29.8456 91.3422C29.9296 91.4076 30.0043 91.5242 30.0696 91.6922L32.3656 97.3202H31.9876L34.3116 91.6922C34.3863 91.5242 34.4656 91.4076 34.5496 91.3422C34.6336 91.2769 34.755 91.2442 34.9136 91.2442C35.063 91.2442 35.175 91.2816 35.2496 91.3562C35.3336 91.4309 35.3803 91.5289 35.3896 91.6502C35.4083 91.7622 35.3896 91.8882 35.3336 92.0282L31.7496 100.316C31.675 100.484 31.591 100.601 31.4976 100.666C31.4136 100.732 31.2923 100.764 31.1336 100.764ZM39.7273 100.792C39.2327 100.792 38.7473 100.732 38.2713 100.61C37.8047 100.498 37.38 100.316 36.9973 100.064C36.8853 99.9989 36.8107 99.9196 36.7733 99.8262C36.7453 99.7329 36.7407 99.6396 36.7593 99.5462C36.778 99.4622 36.82 99.3829 36.8853 99.3082C36.9507 99.2429 37.0253 99.2009 37.1093 99.1822C37.2027 99.1636 37.296 99.1776 37.3893 99.2242C37.8 99.4762 38.192 99.6489 38.5653 99.7422C38.9387 99.8356 39.3073 99.8822 39.6713 99.8822C40.334 99.8822 40.8333 99.7049 41.1693 99.3502C41.5147 98.9956 41.6873 98.4822 41.6873 97.8102V96.2282H41.8273C41.6873 96.7696 41.3887 97.1989 40.9313 97.5162C40.4833 97.8336 39.956 97.9922 39.3493 97.9922C38.724 97.9922 38.1827 97.8522 37.7253 97.5722C37.268 97.2829 36.9133 96.8816 36.6613 96.3682C36.4187 95.8549 36.2973 95.2622 36.2973 94.5902C36.2973 94.0862 36.3673 93.6289 36.5073 93.2182C36.6473 92.7982 36.848 92.4436 37.1093 92.1542C37.38 91.8556 37.702 91.6269 38.0753 91.4682C38.458 91.3002 38.8827 91.2162 39.3493 91.2162C39.9653 91.2162 40.4973 91.3749 40.9453 91.6922C41.3933 92.0002 41.6827 92.4202 41.8133 92.9522L41.6733 93.1202V91.8182C41.6733 91.6316 41.72 91.4916 41.8133 91.3982C41.916 91.2956 42.056 91.2442 42.2333 91.2442C42.42 91.2442 42.56 91.2956 42.6533 91.3982C42.7467 91.4916 42.7933 91.6316 42.7933 91.8182V97.6562C42.7933 98.6922 42.532 99.4716 42.0093 99.9942C41.496 100.526 40.7353 100.792 39.7273 100.792ZM39.5593 97.0682C39.998 97.0682 40.376 96.9702 40.6933 96.7742C41.0107 96.5689 41.2533 96.2796 41.4213 95.9062C41.5987 95.5329 41.6873 95.0942 41.6873 94.5902C41.6873 93.8342 41.496 93.2369 41.1133 92.7982C40.7307 92.3502 40.2127 92.1262 39.5593 92.1262C39.13 92.1262 38.7567 92.2289 38.4393 92.4342C38.122 92.6302 37.8747 92.9149 37.6973 93.2882C37.5293 93.6522 37.4453 94.0862 37.4453 94.5902C37.4453 95.3462 37.6367 95.9482 38.0193 96.3962C38.402 96.8442 38.9153 97.0682 39.5593 97.0682ZM45.4944 98.2442C45.3078 98.2442 45.1631 98.1929 45.0604 98.0902C44.9671 97.9876 44.9204 97.8429 44.9204 97.6562V91.8182C44.9204 91.6316 44.9671 91.4916 45.0604 91.3982C45.1538 91.2956 45.2891 91.2442 45.4664 91.2442C45.6438 91.2442 45.7791 91.2956 45.8724 91.3982C45.9751 91.4916 46.0264 91.6316 46.0264 91.8182V92.9522H45.8864C46.0358 92.4016 46.3204 91.9769 46.7404 91.6782C47.1604 91.3796 47.6784 91.2209 48.2944 91.2022C48.4344 91.1929 48.5464 91.2256 48.6304 91.3002C48.7144 91.3656 48.7611 91.4822 48.7704 91.6502C48.7798 91.8089 48.7424 91.9349 48.6584 92.0282C48.5744 92.1216 48.4438 92.1776 48.2664 92.1962L48.0424 92.2242C47.4078 92.2802 46.9178 92.4856 46.5724 92.8402C46.2364 93.1856 46.0684 93.6616 46.0684 94.2682V97.6562C46.0684 97.8429 46.0171 97.9876 45.9144 98.0902C45.8211 98.1929 45.6811 98.2442 45.4944 98.2442ZM52.684 98.2722C52.0213 98.2722 51.4473 98.1276 50.962 97.8382C50.4767 97.5489 50.0987 97.1429 49.828 96.6202C49.5667 96.0882 49.436 95.4629 49.436 94.7442C49.436 94.2029 49.5107 93.7176 49.66 93.2882C49.8093 92.8496 50.0287 92.4762 50.318 92.1682C50.6073 91.8602 50.948 91.6269 51.34 91.4682C51.7413 91.3002 52.1893 91.2162 52.684 91.2162C53.3467 91.2162 53.9207 91.3609 54.406 91.6502C54.8913 91.9396 55.2647 92.3502 55.526 92.8822C55.7967 93.4049 55.932 94.0256 55.932 94.7442C55.932 95.2856 55.8573 95.7709 55.708 96.2002C55.5587 96.6296 55.3393 97.0029 55.05 97.3202C54.7607 97.6282 54.4153 97.8662 54.014 98.0342C53.622 98.1929 53.1787 98.2722 52.684 98.2722ZM52.684 97.3622C53.104 97.3622 53.4727 97.2596 53.79 97.0542C54.1073 96.8489 54.35 96.5502 54.518 96.1582C54.6953 95.7662 54.784 95.2949 54.784 94.7442C54.784 93.8949 54.5927 93.2462 54.21 92.7982C53.8367 92.3502 53.328 92.1262 52.684 92.1262C52.2547 92.1262 51.8813 92.2289 51.564 92.4342C51.256 92.6302 51.0133 92.9242 50.836 93.3162C50.668 93.6989 50.584 94.1749 50.584 94.7442C50.584 95.5842 50.7753 96.2329 51.158 96.6902C51.5407 97.1382 52.0493 97.3622 52.684 97.3622ZM60.0433 98.2722C59.4926 98.2722 59.0353 98.1742 58.6713 97.9782C58.3166 97.7729 58.046 97.4696 57.8593 97.0682C57.682 96.6669 57.5933 96.1676 57.5933 95.5702V91.8182C57.5933 91.6222 57.64 91.4776 57.7333 91.3842C57.836 91.2909 57.976 91.2442 58.1533 91.2442C58.34 91.2442 58.48 91.2909 58.5733 91.3842C58.676 91.4776 58.7273 91.6222 58.7273 91.8182V95.5562C58.7273 96.1536 58.8486 96.6016 59.0913 96.9002C59.3433 97.1896 59.7353 97.3342 60.2673 97.3342C60.846 97.3342 61.3173 97.1382 61.6813 96.7462C62.0453 96.3542 62.2273 95.8409 62.2273 95.2062V91.8182C62.2273 91.6222 62.274 91.4776 62.3673 91.3842C62.47 91.2909 62.6146 91.2442 62.8013 91.2442C62.9786 91.2442 63.114 91.2909 63.2073 91.3842C63.31 91.4776 63.3613 91.6222 63.3613 91.8182V97.6562C63.3613 98.0482 63.1793 98.2442 62.8153 98.2442C62.638 98.2442 62.498 98.1929 62.3953 98.0902C62.302 97.9876 62.2553 97.8429 62.2553 97.6562V96.3822L62.4373 96.5782C62.2506 97.1289 61.9426 97.5489 61.5133 97.8382C61.0933 98.1276 60.6033 98.2722 60.0433 98.2722ZM66.0429 98.2442C65.8563 98.2442 65.7163 98.1929 65.6229 98.0902C65.5296 97.9876 65.4829 97.8429 65.4829 97.6562V91.8182C65.4829 91.6316 65.5296 91.4916 65.6229 91.3982C65.7163 91.2956 65.8516 91.2442 66.0289 91.2442C66.2063 91.2442 66.3416 91.2956 66.4349 91.3982C66.5376 91.4916 66.5889 91.6316 66.5889 91.8182V93.0222L66.4349 92.8542C66.6309 92.3129 66.9483 91.9069 67.3869 91.6362C67.8349 91.3562 68.3483 91.2162 68.9269 91.2162C69.4683 91.2162 69.9163 91.3142 70.2709 91.5102C70.6349 91.7062 70.9056 92.0049 71.0829 92.4062C71.2603 92.7982 71.3489 93.2976 71.3489 93.9042V97.6562C71.3489 97.8429 71.2976 97.9876 71.1949 98.0902C71.1016 98.1929 70.9663 98.2442 70.7889 98.2442C70.6023 98.2442 70.4576 98.1929 70.3549 98.0902C70.2616 97.9876 70.2149 97.8429 70.2149 97.6562V93.9742C70.2149 93.3396 70.0889 92.8776 69.8369 92.5882C69.5943 92.2896 69.2023 92.1402 68.6609 92.1402C68.0356 92.1402 67.5363 92.3362 67.1629 92.7282C66.7989 93.1109 66.6169 93.6242 66.6169 94.2682V97.6562C66.6169 98.0482 66.4256 98.2442 66.0429 98.2442ZM76.03 98.2722C75.4233 98.2722 74.8913 98.1276 74.434 97.8382C73.986 97.5489 73.636 97.1429 73.384 96.6202C73.1413 96.0882 73.02 95.4629 73.02 94.7442C73.02 94.0162 73.1413 93.3909 73.384 92.8682C73.636 92.3362 73.986 91.9302 74.434 91.6502C74.8913 91.3609 75.4233 91.2162 76.03 91.2162C76.646 91.2162 77.1733 91.3702 77.612 91.6782C78.0506 91.9862 78.3446 92.4016 78.494 92.9242H78.34V88.7522C78.34 88.5656 78.3866 88.4256 78.48 88.3322C78.5826 88.2296 78.7273 88.1782 78.914 88.1782C79.0913 88.1782 79.2266 88.2296 79.32 88.3322C79.4226 88.4256 79.474 88.5656 79.474 88.7522V97.6562C79.474 97.8429 79.4273 97.9876 79.334 98.0902C79.2406 98.1929 79.1006 98.2442 78.914 98.2442C78.7366 98.2442 78.5966 98.1929 78.494 98.0902C78.4006 97.9876 78.354 97.8429 78.354 97.6562V96.3262L78.508 96.5222C78.3586 97.0542 78.06 97.4789 77.612 97.7962C77.1733 98.1136 76.646 98.2722 76.03 98.2722ZM76.268 97.3622C76.688 97.3622 77.0566 97.2596 77.374 97.0542C77.6913 96.8489 77.934 96.5502 78.102 96.1582C78.2793 95.7662 78.368 95.2949 78.368 94.7442C78.368 93.8949 78.1766 93.2462 77.794 92.7982C77.4206 92.3502 76.912 92.1262 76.268 92.1262C75.8386 92.1262 75.4653 92.2289 75.148 92.4342C74.84 92.6302 74.5973 92.9242 74.42 93.3162C74.252 93.6989 74.168 94.1749 74.168 94.7442C74.168 95.5842 74.3593 96.2329 74.742 96.6902C75.1246 97.1382 75.6333 97.3622 76.268 97.3622Z" fill="black"/>
<path d="M6 22.1462C6 12.2051 14.0589 4.14624 24 4.14624H64C73.9411 4.14624 82 12.2051 82 22.1462V62.1462C82 72.0874 73.9411 80.1462 64 80.1462H42.664H24C14.0589 80.1462 6 72.0874 6 62.1462V22.1462Z" fill="#5ECFB1" fill-opacity="0.3" stroke="#5ECFB1" stroke-width="4"/>
<path d="M36.1242 50.347H53.721L51.8769 52.1955H34.2802L36.1242 50.347Z" fill="#F6A43F"/>
<path fill-rule="evenodd" clip-rule="evenodd" d="M36.054 50.1917H54.1012L51.9472 52.3508H33.9L36.054 50.1917ZM36.1944 50.5023L34.6603 52.0401H51.8067L53.3409 50.5023H36.1944Z" fill="black"/>
<path d="M51.7769 53.5157H34.2802V52.2229H51.7769V53.5157Z" fill="#F6A43F"/>
<path fill-rule="evenodd" clip-rule="evenodd" d="M34.2801 52.0677H51.9402V53.6712H34.1167V52.1956H34.2801V52.0677ZM34.4434 52.3784V53.3606H51.6135V52.3784H34.4434Z" fill="black"/>
<path d="M53.7209 51.782V50.347L51.7769 52.0809V53.5158L53.7209 51.782Z" fill="#F6A43F"/>
<path fill-rule="evenodd" clip-rule="evenodd" d="M53.8842 49.9883V51.8492L51.6134 53.8744V52.0136L53.8842 49.9883ZM51.9401 52.1481V53.1571L53.5575 51.7147V50.7057L51.9401 52.1481Z" fill="black"/>
<path fill-rule="evenodd" clip-rule="evenodd" d="M36.7209 51.4617L36.7209 18.1313L37.7108 18.1313L37.7108 51.4617L36.7209 51.4617Z" fill="#58676D"/>
<path fill-rule="evenodd" clip-rule="evenodd" d="M50.0519 51.4617L50.0519 18.1313L51.0417 18.1313L51.0417 51.4617L50.0519 51.4617Z" fill="#58676D"/>
<path d="M17.0447 66.2318C17.0447 66.6607 16.679 67.0085 16.2279 67.0085C15.7767 67.0085 15.411 66.6607 15.411 66.2318C15.411 65.8029 15.7767 65.4551 16.2279 65.4551C16.679 65.4551 17.0447 65.8029 17.0447 66.2318Z" fill="black"/>
<path d="M72.5901 61.0299C72.5901 61.4588 72.2244 61.8065 71.7733 61.8065C71.3221 61.8065 70.9564 61.4588 70.9564 61.0299C70.9564 60.601 71.3221 60.2532 71.7733 60.2532C72.2244 60.2532 72.5901 60.601 72.5901 61.0299Z" fill="black"/>
<path d="M57.9348 66.0962C57.9348 66.5251 57.5691 66.8728 57.118 66.8728C56.6669 66.8728 56.3011 66.5251 56.3011 66.0962C56.3011 65.6672 56.6669 65.3195 57.118 65.3195C57.5691 65.3195 57.9348 65.6672 57.9348 66.0962Z" fill="black"/>
<path d="M31.5272 62.1408C31.5272 62.5697 31.1615 62.9174 30.7104 62.9174C30.2593 62.9174 29.8936 62.5697 29.8936 62.1408C29.8936 61.7119 30.2593 61.3641 30.7104 61.3641C31.1615 61.3641 31.5272 61.7119 31.5272 62.1408Z" fill="black"/>
<path fill-rule="evenodd" clip-rule="evenodd" d="M23.1518 16.8265H65.731L72.5816 60.9424L70.9654 61.1693L65.0066 22.7962L57.9121 66.3506L56.2976 66.1128L64.0728 18.3799H24.801L31.5421 62.1831L29.9256 62.408L23.8482 22.9175L17.0361 66.3463L15.4203 66.1171L23.1518 16.8265Z" fill="black"/>
</g>
<defs>
<filter id="filter0_d_567_9622" x="0" y="0.14624" width="88" height="106.646" filterUnits="userSpaceOnUse" color-interpolation-filters="sRGB">
<feFlood flood-opacity="0" result="BackgroundImageFix"/>
<feColorMatrix in="SourceAlpha" type="matrix" values="0 0 0 0 0 0 0 0 0 0 0 0 0 0 0 0 0 0 127 0" result="hardAlpha"/>
<feOffset dy="2"/>
<feGaussianBlur stdDeviation="2"/>
<feComposite in2="hardAlpha" operator="out"/>
<feColorMatrix type="matrix" values="0 0 0 0 0.368627 0 0 0 0 0.811765 0 0 0 0 0.694118 0 0 0 0.5 0"/>
<feBlend mode="normal" in2="BackgroundImageFix" result="effect1_dropShadow_567_9622"/>
<feBlend mode="normal" in="SourceGraphic" in2="effect1_dropShadow_567_9622" result="shape"/>
</filter>
</defs>
</svg>
