<svg viewBox="0 0 60 60" fill="none" xmlns="http://www.w3.org/2000/svg">
<rect x="1" y="1" width="58" height="58" rx="19" fill="white" stroke="#3F3F3F" stroke-width="2"/>
<path d="M24.0923 36.3227H37.2909L35.9078 37.7091H22.7091L24.0923 36.3227Z" fill="#F6A43F"/>
<path fill-rule="evenodd" clip-rule="evenodd" d="M24.0397 36.2061H37.5762L35.9605 37.8256H22.4241L24.0397 36.2061ZM24.145 36.4392L22.9943 37.5926H35.8552L37.0059 36.4392H24.145Z" fill="black"/>
<path d="M35.8328 38.6993H22.7091V37.7296H35.8328V38.6993Z" fill="#F6A43F"/>
<path fill-rule="evenodd" clip-rule="evenodd" d="M22.7091 37.6133H35.9553V38.816H22.5865V37.7092H22.7091V37.6133ZM22.8316 37.8464V38.583H35.7102V37.8464H22.8316Z" fill="black"/>
<path d="M37.2909 37.3989V36.3227L35.8328 37.6232V38.6994L37.2909 37.3989Z" fill="#F6A43F"/>
<path fill-rule="evenodd" clip-rule="evenodd" d="M37.4133 36.0537V37.4494L35.7101 38.9685V37.5727L37.4133 36.0537ZM35.9552 37.6737V38.4304L37.1683 37.3485V36.5917L35.9552 37.6737Z" fill="black"/>
<path fill-rule="evenodd" clip-rule="evenodd" d="M24.5399 37.1587L24.5399 12.159L25.2823 12.159L25.2823 37.1587L24.5399 37.1587Z" fill="#58676D"/>
<path fill-rule="evenodd" clip-rule="evenodd" d="M34.5389 37.1587L34.5389 12.159L35.2814 12.159L35.2814 37.1587L34.5389 37.1587Z" fill="#58676D"/>
<path d="M9.78152 48.2372C9.78152 48.5589 9.50721 48.8197 9.16883 48.8197C8.83046 48.8197 8.55615 48.5589 8.55615 48.2372C8.55615 47.9154 8.83046 47.6546 9.16883 47.6546C9.50721 47.6546 9.78152 47.9154 9.78152 48.2372Z" fill="black"/>
<path d="M51.444 44.3355C51.444 44.6572 51.1697 44.918 50.8313 44.918C50.4929 44.918 50.2186 44.6572 50.2186 44.3355C50.2186 44.0138 50.4929 43.753 50.8313 43.753C51.1697 43.753 51.444 44.0138 51.444 44.3355Z" fill="black"/>
<path d="M40.4516 48.1355C40.4516 48.4572 40.1773 48.718 39.8389 48.718C39.5005 48.718 39.2262 48.4572 39.2262 48.1355C39.2262 47.8138 39.5005 47.5529 39.8389 47.5529C40.1773 47.5529 40.4516 47.8138 40.4516 48.1355Z" fill="black"/>
<path d="M20.6443 45.1687C20.6443 45.4904 20.37 45.7513 20.0316 45.7513C19.6933 45.7513 19.4189 45.4904 19.4189 45.1687C19.4189 44.847 19.6933 44.5862 20.0316 44.5862C20.37 44.5862 20.6443 44.847 20.6443 45.1687Z" fill="black"/>
<path fill-rule="evenodd" clip-rule="evenodd" d="M14.3621 11.1803H46.2991L51.4375 44.2698L50.2252 44.44L45.7558 15.6579L40.4344 48.3263L39.2235 48.148L45.0554 12.3453H15.5991L20.6553 45.2005L19.4429 45.3692L14.8844 15.7488L9.77495 48.3231L8.56299 48.1512L14.3621 11.1803Z" fill="black"/>
</svg>