<svg viewBox="0 0 68 69" fill="none" xmlns="http://www.w3.org/2000/svg">
<g filter="url(#filter0_d_547_3146)">
<rect x="5" y="3.2901" width="58" height="58" rx="19" fill="#B0DCEB" stroke="#3F3F3F" stroke-width="2"/>
<path d="M28.0923 38.6127H41.2909L39.9078 39.9992H26.7091L28.0923 38.6127Z" fill="#F6A43F"/>
<path fill-rule="evenodd" clip-rule="evenodd" d="M28.0397 38.4962H41.5762L39.9605 40.1157H26.4241L28.0397 38.4962ZM28.145 38.7292L26.9943 39.8827H39.8552L41.0059 38.7292H28.145Z" fill="black"/>
<path d="M39.8328 40.9894H26.7091V40.0197H39.8328V40.9894Z" fill="#F6A43F"/>
<path fill-rule="evenodd" clip-rule="evenodd" d="M26.7091 39.9034H39.9553V41.1061H26.5865V39.9993H26.7091V39.9034ZM26.8316 40.1364V40.8731H39.7102V40.1364H26.8316Z" fill="black"/>
<path d="M41.2909 39.689V38.6127L39.8328 39.9132V40.9895L41.2909 39.689Z" fill="#F6A43F"/>
<path fill-rule="evenodd" clip-rule="evenodd" d="M41.4133 38.3438V39.7395L39.7101 41.2586V39.8628L41.4133 38.3438ZM39.9552 39.9637V40.7205L41.1683 39.6386V38.8818L39.9552 39.9637Z" fill="black"/>
<path fill-rule="evenodd" clip-rule="evenodd" d="M28.5399 39.4488L28.5399 14.449L29.2823 14.449L29.2823 39.4488L28.5399 39.4488Z" fill="#58676D"/>
<path fill-rule="evenodd" clip-rule="evenodd" d="M38.5389 39.4488L38.5389 14.449L39.2814 14.449L39.2814 39.4488L38.5389 39.4488Z" fill="#58676D"/>
<path d="M13.7815 50.5272C13.7815 50.849 13.5072 51.1098 13.1688 51.1098C12.8305 51.1098 12.5562 50.849 12.5562 50.5272C12.5562 50.2055 12.8305 49.9447 13.1688 49.9447C13.5072 49.9447 13.7815 50.2055 13.7815 50.5272Z" fill="black"/>
<path d="M55.444 46.6256C55.444 46.9473 55.1697 47.2081 54.8313 47.2081C54.4929 47.2081 54.2186 46.9473 54.2186 46.6256C54.2186 46.3038 54.4929 46.043 54.8313 46.043C55.1697 46.043 55.444 46.3038 55.444 46.6256Z" fill="black"/>
<path d="M44.4516 50.4256C44.4516 50.7473 44.1773 51.0081 43.8389 51.0081C43.5005 51.0081 43.2262 50.7473 43.2262 50.4256C43.2262 50.1038 43.5005 49.843 43.8389 49.843C44.1773 49.843 44.4516 50.1038 44.4516 50.4256Z" fill="black"/>
<path d="M24.6443 47.4588C24.6443 47.7805 24.37 48.0414 24.0316 48.0414C23.6933 48.0414 23.4189 47.7805 23.4189 47.4588C23.4189 47.1371 23.6933 46.8763 24.0316 46.8763C24.37 46.8763 24.6443 47.1371 24.6443 47.4588Z" fill="black"/>
<path fill-rule="evenodd" clip-rule="evenodd" d="M18.3621 13.4703H50.2991L55.4375 46.5599L54.2252 46.7301L49.7558 17.9479L44.4344 50.6164L43.2235 50.4381L49.0554 14.6354H19.5991L24.6553 47.4905L23.4429 47.6592L18.8844 18.0389L13.7749 50.6132L12.563 50.4413L18.3621 13.4703Z" fill="black"/>
</g>
<defs>
<filter id="filter0_d_547_3146" x="0" y="0.2901" width="68" height="68" filterUnits="userSpaceOnUse" color-interpolation-filters="sRGB">
<feFlood flood-opacity="0" result="BackgroundImageFix"/>
<feColorMatrix in="SourceAlpha" type="matrix" values="0 0 0 0 0 0 0 0 0 0 0 0 0 0 0 0 0 0 127 0" result="hardAlpha"/>
<feOffset dy="2"/>
<feGaussianBlur stdDeviation="2"/>
<feComposite in2="hardAlpha" operator="out"/>
<feColorMatrix type="matrix" values="0 0 0 0 0 0 0 0 0 0 0 0 0 0 0 0 0 0 0.25 0"/>
<feBlend mode="normal" in2="BackgroundImageFix" result="effect1_dropShadow_547_3146"/>
<feBlend mode="normal" in="SourceGraphic" in2="effect1_dropShadow_547_3146" result="shape"/>
</filter>
</defs>
</svg>