<svg width="88" height="106" viewBox="0 0 88 106" fill="none" xmlns="http://www.w3.org/2000/svg">
<g filter="url(#filter0_d_567_9652)">
<rect x="6" y="4.14624" width="76" height="76" rx="18" fill="#9BC851" fill-opacity="0.3" stroke="#9BC851" stroke-width="4"/>
<rect x="25.1115" y="12.3716" width="38.6301" height="59" fill="#AFE448" stroke="black"/>
<rect x="25.7318" y="13.3726" width="37.3071" height="28.3306" stroke="white" stroke-width="0.5"/>
<rect x="25.8115" y="41.6233" width="37.3071" height="28.829" stroke="white" stroke-width="0.5"/>
<circle cx="44.3871" cy="41.7925" r="4.70377" stroke="white" stroke-width="0.5"/>
<rect x="39.7621" y="67.9348" width="9.32827" height="2.51763" stroke="white" stroke-width="0.5"/>
<rect x="39.6833" y="13.3729" width="9.40753" height="2.51763" stroke="white" stroke-width="0.5"/>
<path d="M34.0565 13.3726H54.7983V21.8439H34.0565V13.3726Z" fill="#AFE448" stroke="white" stroke-width="0.5"/>
<path d="M34.0565 61.9811H54.7983V70.4525H34.0565V61.9811Z" fill="#AFE448" stroke="white" stroke-width="0.5"/>
<path d="M19.1878 99.1462C18.9825 99.1462 18.8238 99.0949 18.7118 98.9922C18.6092 98.8802 18.5578 98.7216 18.5578 98.5162V89.9062C18.5578 89.7009 18.6092 89.5469 18.7118 89.4442C18.8238 89.3322 18.9825 89.2762 19.1878 89.2762H22.5058C23.1872 89.2762 23.7612 89.3789 24.2278 89.5842C24.7038 89.7802 25.0678 90.0696 25.3198 90.4522C25.5718 90.8349 25.6978 91.3016 25.6978 91.8522C25.6978 92.4682 25.5158 92.9816 25.1518 93.3922C24.7972 93.8029 24.3118 94.0736 23.6958 94.2042V94.0082C24.3958 94.0922 24.9418 94.3442 25.3338 94.7642C25.7352 95.1842 25.9358 95.7396 25.9358 96.4302C25.9358 97.3076 25.6512 97.9796 25.0818 98.4462C24.5125 98.9129 23.7098 99.1462 22.6738 99.1462H19.1878ZM19.6778 98.2222H22.5618C23.3085 98.2222 23.8685 98.0729 24.2418 97.7742C24.6152 97.4756 24.8018 97.0229 24.8018 96.4162C24.8018 95.8002 24.6152 95.3476 24.2418 95.0582C23.8685 94.7596 23.3085 94.6102 22.5618 94.6102H19.6778V98.2222ZM19.6778 93.6862H22.3378C23.0658 93.6862 23.6165 93.5369 23.9898 93.2382C24.3725 92.9396 24.5638 92.5102 24.5638 91.9502C24.5638 91.3716 24.3725 90.9376 23.9898 90.6482C23.6165 90.3496 23.0658 90.2002 22.3378 90.2002H19.6778V93.6862ZM30.4548 99.2722C29.8481 99.2722 29.3161 99.1276 28.8588 98.8382C28.4108 98.5489 28.0608 98.1429 27.8088 97.6202C27.5661 97.0882 27.4448 96.4629 27.4448 95.7442C27.4448 95.0162 27.5661 94.3909 27.8088 93.8682C28.0608 93.3362 28.4108 92.9302 28.8588 92.6502C29.3161 92.3609 29.8481 92.2162 30.4548 92.2162C31.0708 92.2162 31.5981 92.3702 32.0368 92.6782C32.4754 92.9862 32.7694 93.4016 32.9188 93.9242L32.7788 94.0922V92.8182C32.7788 92.6316 32.8254 92.4916 32.9188 92.3982C33.0214 92.2956 33.1614 92.2442 33.3388 92.2442C33.5254 92.2442 33.6654 92.2956 33.7588 92.3982C33.8521 92.4916 33.8988 92.6316 33.8988 92.8182V98.6562C33.8988 98.8429 33.8521 98.9876 33.7588 99.0902C33.6654 99.1929 33.5254 99.2442 33.3388 99.2442C33.1614 99.2442 33.0214 99.1929 32.9188 99.0902C32.8254 98.9876 32.7788 98.8429 32.7788 98.6562V97.3962L32.9328 97.5222C32.7834 98.0542 32.4848 98.4789 32.0368 98.7962C31.5981 99.1136 31.0708 99.2722 30.4548 99.2722ZM30.6928 98.3622C31.1128 98.3622 31.4814 98.2596 31.7988 98.0542C32.1161 97.8489 32.3588 97.5502 32.5268 97.1582C32.7041 96.7662 32.7928 96.2949 32.7928 95.7442C32.7928 94.8949 32.6014 94.2462 32.2188 93.7982C31.8454 93.3502 31.3368 93.1262 30.6928 93.1262C30.2634 93.1262 29.8901 93.2289 29.5728 93.4342C29.2648 93.6302 29.0221 93.9242 28.8448 94.3162C28.6768 94.6989 28.5928 95.1749 28.5928 95.7442C28.5928 96.5842 28.7841 97.2329 29.1668 97.6902C29.5494 98.1382 30.0581 98.3622 30.6928 98.3622ZM38.0989 99.2722C37.4269 99.2722 36.9136 99.0669 36.5589 98.6562C36.2042 98.2456 36.0269 97.6576 36.0269 96.8922V89.7522C36.0269 89.5656 36.0736 89.4256 36.1669 89.3322C36.2602 89.2296 36.4002 89.1782 36.5869 89.1782C36.7642 89.1782 36.9042 89.2296 37.0069 89.3322C37.1096 89.4256 37.1609 89.5656 37.1609 89.7522V96.8082C37.1609 97.3122 37.2589 97.6902 37.4549 97.9422C37.6602 98.1849 37.9589 98.3062 38.3509 98.3062C38.4349 98.3062 38.5096 98.3016 38.5749 98.2922C38.6402 98.2829 38.7056 98.2782 38.7709 98.2782C38.8736 98.2689 38.9436 98.2922 38.9809 98.3482C39.0276 98.4042 39.0509 98.5162 39.0509 98.6842C39.0509 98.8522 39.0136 98.9782 38.9389 99.0622C38.8642 99.1462 38.7429 99.2022 38.5749 99.2302C38.5002 99.2396 38.4209 99.2489 38.3369 99.2582C38.2529 99.2676 38.1736 99.2722 38.0989 99.2722ZM42.2415 99.2722C41.5695 99.2722 41.0561 99.0669 40.7015 98.6562C40.3468 98.2456 40.1695 97.6576 40.1695 96.8922V89.7522C40.1695 89.5656 40.2161 89.4256 40.3095 89.3322C40.4028 89.2296 40.5428 89.1782 40.7295 89.1782C40.9068 89.1782 41.0468 89.2296 41.1495 89.3322C41.2521 89.4256 41.3035 89.5656 41.3035 89.7522V96.8082C41.3035 97.3122 41.4015 97.6902 41.5975 97.9422C41.8028 98.1849 42.1015 98.3062 42.4935 98.3062C42.5775 98.3062 42.6521 98.3016 42.7175 98.2922C42.7828 98.2829 42.8481 98.2782 42.9135 98.2782C43.0161 98.2689 43.0861 98.2922 43.1235 98.3482C43.1701 98.4042 43.1935 98.5162 43.1935 98.6842C43.1935 98.8522 43.1561 98.9782 43.0815 99.0622C43.0068 99.1462 42.8855 99.2022 42.7175 99.2302C42.6428 99.2396 42.5635 99.2489 42.4795 99.2582C42.3955 99.2676 42.3161 99.2722 42.2415 99.2722ZM45.1403 99.2442C44.963 99.2442 44.823 99.1929 44.7203 99.0902C44.627 98.9876 44.5803 98.8429 44.5803 98.6562V93.2242H43.6843C43.535 93.2242 43.4137 93.1869 43.3203 93.1122C43.2363 93.0282 43.1943 92.9162 43.1943 92.7762C43.1943 92.6362 43.2363 92.5289 43.3203 92.4542C43.4137 92.3796 43.535 92.3422 43.6843 92.3422H44.8883L44.5803 92.6362V92.1042C44.5803 91.2269 44.7903 90.5549 45.2103 90.0882C45.6397 89.6216 46.2697 89.3556 47.1003 89.2902L47.5203 89.2482C47.6603 89.2389 47.7723 89.2622 47.8563 89.3182C47.9403 89.3649 47.9917 89.4302 48.0103 89.5142C48.0383 89.5982 48.043 89.6869 48.0243 89.7802C48.0057 89.8736 47.9637 89.9529 47.8983 90.0182C47.8423 90.0836 47.7723 90.1209 47.6883 90.1302L47.2683 90.1582C46.7177 90.1956 46.321 90.3682 46.0783 90.6762C45.8357 90.9749 45.7143 91.4042 45.7143 91.9642V92.5522L45.5463 92.3422H49.3543C49.5317 92.3422 49.667 92.3936 49.7603 92.4962C49.863 92.5989 49.9143 92.7482 49.9143 92.9442V98.6002C49.9143 98.7962 49.8677 98.9502 49.7743 99.0622C49.681 99.1649 49.541 99.2162 49.3543 99.2162C49.1677 99.2162 49.023 99.1649 48.9203 99.0622C48.827 98.9502 48.7803 98.7962 48.7803 98.6002V93.2242H45.7143V98.6562C45.7143 99.0482 45.523 99.2442 45.1403 99.2442ZM49.3683 90.7042C49.135 90.7042 48.953 90.6436 48.8223 90.5222C48.701 90.3916 48.6403 90.2189 48.6403 90.0042C48.6403 89.7802 48.701 89.6122 48.8223 89.5002C48.953 89.3789 49.135 89.3182 49.3683 89.3182C49.6017 89.3182 49.779 89.3789 49.9003 89.5002C50.031 89.6122 50.0963 89.7802 50.0963 90.0042C50.0963 90.2189 50.031 90.3916 49.9003 90.5222C49.779 90.6436 49.6017 90.7042 49.3683 90.7042ZM55.1027 99.2722C54.384 99.2722 53.7633 99.1322 53.2407 98.8522C52.7273 98.5629 52.326 98.1569 52.0367 97.6342C51.7567 97.1116 51.6167 96.4862 51.6167 95.7582C51.6167 95.0489 51.7567 94.4329 52.0367 93.9102C52.3167 93.3782 52.6993 92.9629 53.1847 92.6642C53.6793 92.3656 54.2487 92.2162 54.8927 92.2162C55.35 92.2162 55.7607 92.2956 56.1247 92.4542C56.4887 92.6036 56.7967 92.8229 57.0487 93.1122C57.31 93.4016 57.506 93.7516 57.6367 94.1622C57.7767 94.5729 57.8467 95.0349 57.8467 95.5482C57.8467 95.6976 57.8047 95.8096 57.7207 95.8842C57.6367 95.9496 57.5153 95.9822 57.3567 95.9822H52.4847V95.2402H57.0907L56.8667 95.4222C56.8667 94.9182 56.792 94.4936 56.6427 94.1482C56.4933 93.7936 56.274 93.5229 55.9847 93.3362C55.7047 93.1496 55.35 93.0562 54.9207 93.0562C54.4447 93.0562 54.0387 93.1682 53.7027 93.3922C53.376 93.6069 53.1287 93.9102 52.9607 94.3022C52.7927 94.6849 52.7087 95.1329 52.7087 95.6462V95.7302C52.7087 96.5889 52.914 97.2422 53.3247 97.6902C53.7447 98.1382 54.3373 98.3622 55.1027 98.3622C55.42 98.3622 55.7327 98.3202 56.0407 98.2362C56.358 98.1522 56.666 98.0122 56.9647 97.8162C57.0953 97.7322 57.212 97.6949 57.3147 97.7042C57.4267 97.7042 57.5153 97.7369 57.5807 97.8022C57.646 97.8582 57.688 97.9329 57.7067 98.0262C57.7347 98.1102 57.7253 98.2036 57.6787 98.3062C57.6413 98.4089 57.562 98.4976 57.4407 98.5722C57.1327 98.7962 56.7687 98.9689 56.3487 99.0902C55.9287 99.2116 55.5133 99.2722 55.1027 99.2722ZM61.5598 99.2722C60.8878 99.2722 60.3745 99.0669 60.0198 98.6562C59.6652 98.2456 59.4878 97.6576 59.4878 96.8922V89.7522C59.4878 89.5656 59.5345 89.4256 59.6278 89.3322C59.7212 89.2296 59.8612 89.1782 60.0478 89.1782C60.2252 89.1782 60.3652 89.2296 60.4678 89.3322C60.5705 89.4256 60.6218 89.5656 60.6218 89.7522V96.8082C60.6218 97.3122 60.7198 97.6902 60.9158 97.9422C61.1212 98.1849 61.4198 98.3062 61.8118 98.3062C61.8958 98.3062 61.9705 98.3016 62.0358 98.2922C62.1012 98.2829 62.1665 98.2782 62.2318 98.2782C62.3345 98.2689 62.4045 98.2922 62.4418 98.3482C62.4885 98.4042 62.5118 98.5162 62.5118 98.6842C62.5118 98.8522 62.4745 98.9782 62.3998 99.0622C62.3252 99.1462 62.2038 99.2022 62.0358 99.2302C61.9612 99.2396 61.8818 99.2489 61.7978 99.2582C61.7138 99.2676 61.6345 99.2722 61.5598 99.2722ZM66.152 99.2722C65.5454 99.2722 65.0134 99.1276 64.556 98.8382C64.108 98.5489 63.758 98.1429 63.506 97.6202C63.2634 97.0882 63.142 96.4629 63.142 95.7442C63.142 95.0162 63.2634 94.3909 63.506 93.8682C63.758 93.3362 64.108 92.9302 64.556 92.6502C65.0134 92.3609 65.5454 92.2162 66.152 92.2162C66.768 92.2162 67.2954 92.3702 67.734 92.6782C68.1727 92.9862 68.4667 93.4016 68.616 93.9242H68.462V89.7522C68.462 89.5656 68.5087 89.4256 68.602 89.3322C68.7047 89.2296 68.8494 89.1782 69.036 89.1782C69.2134 89.1782 69.3487 89.2296 69.442 89.3322C69.5447 89.4256 69.596 89.5656 69.596 89.7522V98.6562C69.596 98.8429 69.5494 98.9876 69.456 99.0902C69.3627 99.1929 69.2227 99.2442 69.036 99.2442C68.8587 99.2442 68.7187 99.1929 68.616 99.0902C68.5227 98.9876 68.476 98.8429 68.476 98.6562V97.3262L68.63 97.5222C68.4807 98.0542 68.182 98.4789 67.734 98.7962C67.2954 99.1136 66.768 99.2722 66.152 99.2722ZM66.39 98.3622C66.81 98.3622 67.1787 98.2596 67.496 98.0542C67.8134 97.8489 68.056 97.5502 68.224 97.1582C68.4014 96.7662 68.49 96.2949 68.49 95.7442C68.49 94.8949 68.2987 94.2462 67.916 93.7982C67.5427 93.3502 67.034 93.1262 66.39 93.1262C65.9607 93.1262 65.5874 93.2289 65.27 93.4342C64.962 93.6302 64.7194 93.9242 64.542 94.3162C64.374 94.6989 64.29 95.1749 64.29 95.7442C64.29 96.5842 64.4814 97.2329 64.864 97.6902C65.2467 98.1382 65.7554 98.3622 66.39 98.3622Z" fill="black"/>
</g>
<defs>
<filter id="filter0_d_567_9652" x="0" y="0.14624" width="88" height="105.126" filterUnits="userSpaceOnUse" color-interpolation-filters="sRGB">
<feFlood flood-opacity="0" result="BackgroundImageFix"/>
<feColorMatrix in="SourceAlpha" type="matrix" values="0 0 0 0 0 0 0 0 0 0 0 0 0 0 0 0 0 0 127 0" result="hardAlpha"/>
<feOffset dy="2"/>
<feGaussianBlur stdDeviation="2"/>
<feComposite in2="hardAlpha" operator="out"/>
<feColorMatrix type="matrix" values="0 0 0 0 0.686275 0 0 0 0 0.894118 0 0 0 0 0.282353 0 0 0 0.5 0"/>
<feBlend mode="normal" in2="BackgroundImageFix" result="effect1_dropShadow_567_9652"/>
<feBlend mode="normal" in="SourceGraphic" in2="effect1_dropShadow_567_9652" result="shape"/>
</filter>
</defs>
</svg>
