<svg viewBox="0 0 61 60" fill="none" xmlns="http://www.w3.org/2000/svg">
<rect x="1.85352" y="1" width="58" height="58" rx="19" fill="white" stroke="#3F3F3F" stroke-width="2"/>
<path d="M32.1397 41.7252C31.7148 41.3534 27.8464 39.9326 25.9652 39.2687C27.625 38.0072 34.729 33.6917 38.1814 31.7C41.6338 29.7082 50.3975 25.8575 50.9286 25.7911C51.4598 25.7247 54.204 27.7165 54.8458 28.4468C53.0399 28.9779 45.905 33.4926 42.5633 35.6835C39.2658 37.8523 32.5646 42.097 32.1397 41.7252Z" fill="#0066FF"/>
<path d="M25.8989 39.2688C25.3677 38.897 20.9416 37.4319 18.7949 36.7459C22.1145 33.0943 29.5504 29.6419 33.202 27.3846C36.8535 25.1273 44.7542 23.0691 45.6837 22.9363C46.6132 22.8036 50.995 25.7912 50.995 25.7912C50.995 25.7912 44.555 28.3965 40.1068 30.7042C31.2766 35.2853 26.5628 39.7335 25.8989 39.2688Z" fill="#FF2900"/>
<path d="M18.6619 36.6795C18.0245 36.2546 14.6784 35.2189 13.085 34.7542C16.2718 31.4346 23.3757 26.7207 27.2265 24.729C31.0772 22.7372 39.177 21.0111 40.2393 20.8782C41.3016 20.7454 45.8162 22.9364 45.8162 22.9364C45.8162 22.9364 41.1059 23.3507 30.5461 28.978C20.4545 34.3558 19.4586 37.2107 18.6619 36.6795Z" fill="#FFE500"/>
<path d="M13.019 34.754C12.687 34.5549 9.30102 33.3598 8.76988 33.4262C8.23874 33.4926 11.2264 31.1689 13.6829 29.0443C16.1394 26.9198 21.4508 23.6666 25.3015 22.0732C29.1522 20.4797 32.5382 20.0814 33.9988 19.8158C35.4595 19.5502 40.5717 20.8781 40.5717 20.8781C40.5717 20.8781 33.6669 22.4051 28.8867 23.9985C24.1064 25.5919 13.3509 34.9532 13.019 34.754Z" fill="#FF2900"/>
<path d="M8.63693 33.3598C8.17219 33.3598 5.64929 33.0942 5.64929 32.6295C5.64929 32.1647 16.3384 23.6665 17.8654 22.8698C19.3924 22.0731 24.7038 19.9486 27.7578 19.4838C30.8119 19.0191 34.729 19.7494 34.4634 19.7494C34.1979 19.7494 30.3471 20.4133 27.957 21.1436C25.5669 21.8739 19.8572 24.9944 18.6621 25.6583C17.4671 26.3222 9.10168 33.3598 8.63693 33.3598Z" fill="#0066FF"/>
<path fill-rule="evenodd" clip-rule="evenodd" d="M35.7563 19.7658C36.4799 19.9148 37.2865 20.0809 38.343 20.2425C40.867 20.6285 43.0395 21.5518 44.7263 22.2687C45.2834 22.5055 45.7876 22.7198 46.2339 22.8847C47.1484 23.2227 48.2278 23.8569 49.1873 24.4572C49.4691 24.6335 49.7422 24.808 49.998 24.9714C50.1773 25.0859 50.348 25.1949 50.5072 25.2953C50.8961 25.5406 51.2169 25.7348 51.4383 25.8407C51.9012 26.0621 52.7547 26.6883 53.458 27.2638C53.8108 27.5524 54.1292 27.8311 54.3452 28.0433C54.4525 28.1488 54.5376 28.2408 54.5887 28.3109C54.6131 28.3443 54.6357 28.3806 54.6454 28.4151C54.6502 28.4324 54.6547 28.4596 54.6444 28.4885C54.6324 28.5223 54.606 28.5428 54.5788 28.5518C54.556 28.5594 54.5096 28.5806 54.436 28.618C54.3642 28.6546 54.271 28.7043 54.1571 28.7663C53.981 28.8622 53.7567 28.9867 53.4877 29.1362C53.4087 29.18 53.3258 29.2261 53.2391 29.2742C52.4761 29.6975 51.4221 30.2787 50.1416 30.9485C47.5878 32.2843 40.6621 36.9274 38.378 38.542C37.2334 39.3511 35.7541 40.2683 34.5157 40.9344C33.8969 41.2672 33.3359 41.5386 32.9059 41.7023C32.6914 41.7839 32.5057 41.8402 32.3599 41.863C32.2871 41.8744 32.2203 41.878 32.1629 41.8703C32.106 41.8627 32.0493 41.8426 32.0092 41.798C31.8488 41.6198 31.674 41.5565 31.266 41.4172L31.251 41.412C30.8459 41.2737 30.2352 41.0652 29.2396 40.5967C27.9584 39.9938 27.0509 39.6816 25.9642 39.3078C25.3502 39.0967 24.6791 38.8658 23.8512 38.5518C22.4477 38.0194 20.9428 37.5326 19.4322 37.044C18.4855 36.7378 17.5364 36.4308 16.6087 36.1114C15.6015 35.7647 14.9052 35.5008 14.1997 35.2334C14.063 35.1816 13.926 35.1297 13.7863 35.077C12.9258 34.7525 11.9623 34.3986 10.3492 33.8675C7.76996 33.0182 6.10906 32.7819 5.60848 32.769L5.4585 32.7652L5.54274 32.641C5.73599 32.3562 6.15908 31.9293 6.70388 31.4312C7.25098 30.9309 7.92763 30.3529 8.63424 29.7645C9.37027 29.1516 10.1361 28.5295 10.824 27.9708C11.4608 27.4535 12.0308 26.9906 12.4483 26.6394C13.3182 25.908 14.6403 24.9708 15.8765 24.1532C17.1118 23.3363 18.2676 22.6345 18.8048 22.3759C19.8723 21.8619 24.1293 20.2458 25.5514 19.8508C25.7059 19.8079 25.8439 19.7681 25.9719 19.7313C26.4276 19.6 26.7566 19.5051 27.25 19.4352C27.8806 19.3458 28.7811 19.2966 30.5721 19.2572C33.0251 19.2033 34.1981 19.4449 35.7563 19.7658ZM35.709 19.9239C34.1604 19.6048 33.01 19.3677 30.5757 19.4212C28.7837 19.4606 27.8926 19.5098 27.273 19.5976C26.7919 19.6658 26.4754 19.7569 26.0223 19.8874C25.8934 19.9246 25.7533 19.9649 25.5953 20.0088C24.1825 20.4012 19.9347 22.0139 18.8759 22.5236C18.35 22.7769 17.2025 23.4729 15.967 24.29C14.7324 25.1065 13.4165 26.0396 12.5539 26.7649C12.1384 27.1144 11.5657 27.5796 10.9265 28.0988C10.2368 28.659 9.46977 29.2821 8.73918 29.8905C8.03323 30.4784 7.35884 31.0545 6.81454 31.5522C6.34401 31.9824 5.97568 32.3496 5.76694 32.6134C6.42108 32.6629 8.0289 32.9308 10.4005 33.7117C12.0162 34.2437 12.982 34.5984 13.8442 34.9236C13.9841 34.9764 14.1213 35.0284 14.2581 35.0802C14.9635 35.3475 15.6574 35.6105 16.6621 35.9564C17.5832 36.2735 18.5297 36.5796 19.4757 36.8857C20.9901 37.3756 22.5033 37.8651 23.9094 38.3984C24.7266 38.7084 25.3941 38.9381 26.0073 39.1491C27.1005 39.5253 28.0211 39.8421 29.3095 40.4484C30.2968 40.913 30.9011 41.1193 31.3034 41.2567L31.321 41.2627C31.7189 41.3985 31.9374 41.4732 32.1311 41.6883C32.1352 41.6929 32.1484 41.703 32.1846 41.7078C32.2204 41.7126 32.2699 41.7111 32.3346 41.701C32.4636 41.6808 32.6369 41.6292 32.8475 41.549C33.2677 41.3891 33.8215 41.1215 34.438 40.7899C35.6705 40.1271 37.1442 39.2134 38.2833 38.4081C40.5666 36.7941 47.5007 32.1448 50.0656 30.8032C51.3443 30.1343 52.3969 29.5539 53.1596 29.1308C53.246 29.0828 53.3287 29.0369 53.4075 28.9931C53.6768 28.8436 53.9019 28.7185 54.0787 28.6223C54.193 28.56 54.2878 28.5095 54.3616 28.4719C54.4012 28.4517 54.4363 28.4345 54.4658 28.4211C54.463 28.417 54.4598 28.4124 54.4563 28.4076C54.4134 28.3489 54.3364 28.2646 54.2302 28.1603C54.0193 27.953 53.7052 27.6779 53.3542 27.3907C52.6498 26.8144 51.8103 26.2004 51.3675 25.9886C51.1361 25.8779 50.8073 25.6784 50.4197 25.434C50.2585 25.3324 50.0874 25.223 49.908 25.1085C49.6534 24.9458 49.3823 24.7727 49.1003 24.5963C48.1403 23.9957 47.0739 23.37 46.1771 23.0386C45.7205 22.8698 45.2092 22.6525 44.6469 22.4136C42.9621 21.6976 40.8195 20.7871 38.3182 20.4046C37.2462 20.2406 36.434 20.0733 35.709 19.9239Z" fill="black" stroke="black"/>
</svg>