<svg width="81" height="100" viewBox="0 0 81 100" fill="none" xmlns="http://www.w3.org/2000/svg">
<rect x="0.182373" y="0.5" width="80" height="80" rx="20" fill="white"/>
<rect x="1.18237" y="1.5" width="78" height="78" rx="19" fill="white" fill-opacity="0.8" stroke="#F3AF13" stroke-width="2"/>
<path d="M42.9551 56.0724C42.3624 55.5537 36.9659 53.5718 34.3418 52.6456C36.6572 50.8859 46.5671 44.8659 51.3831 42.0874C56.1992 39.3089 68.4244 33.9372 69.1654 33.8446C69.9063 33.752 73.7344 36.5305 74.6297 37.5492C72.1106 38.2902 62.1574 44.588 57.4958 47.6444C52.8959 50.6698 43.5478 56.591 42.9551 56.0724Z" fill="#0066FF"/>
<path d="M34.2492 52.6457C33.5083 52.1271 27.3339 50.0834 24.3394 49.1263C28.9701 44.0325 39.3431 39.2165 44.437 36.0675C49.5309 32.9186 60.5521 30.0475 61.8488 29.8623C63.1454 29.677 69.258 33.8447 69.258 33.8447C69.258 33.8447 60.2743 37.479 54.069 40.6983C41.7511 47.0888 35.1754 53.2941 34.2492 52.6457Z" fill="#FF2900"/>
<path d="M24.1538 49.0338C23.2646 48.4411 18.5968 46.9963 16.374 46.348C20.8196 41.7172 30.7295 35.1414 36.1012 32.3629C41.4729 29.5845 52.772 27.1765 54.2539 26.9912C55.7357 26.806 62.0336 29.8623 62.0336 29.8623C62.0336 29.8623 55.4628 30.4403 40.732 38.2903C26.6544 45.7922 25.2651 49.7747 24.1538 49.0338Z" fill="#FFE500"/>
<path d="M16.282 46.3477C15.8189 46.0699 11.0955 44.4028 10.3545 44.4954C9.61362 44.588 13.7813 41.3465 17.2081 38.3828C20.6349 35.4191 28.0442 30.8809 33.4159 28.6581C38.7876 26.4353 43.511 25.8796 45.5485 25.5092C47.5861 25.1387 54.7175 26.991 54.7175 26.991C54.7175 26.991 45.0855 29.1212 38.4171 31.344C31.7488 33.5667 16.745 46.6256 16.282 46.3477Z" fill="#FF2900"/>
<path d="M10.1692 44.4028C9.52087 44.4028 6.00146 44.0323 6.00146 43.384C6.00146 42.7357 20.9126 30.8809 23.0428 29.7695C25.1729 28.6581 32.5822 25.6944 36.8425 25.0461C41.1029 24.3978 46.5672 25.4166 46.1967 25.4165C45.8263 25.4165 40.4545 26.3427 37.1204 27.3615C33.7862 28.3802 25.8212 32.7332 24.1542 33.6593C22.4871 34.5855 10.8175 44.4028 10.1692 44.4028Z" fill="#0066FF"/>
<path fill-rule="evenodd" clip-rule="evenodd" d="M48.0002 25.4394C49.0096 25.6472 50.1348 25.879 51.6086 26.1044C55.1296 26.6429 58.1601 27.9309 60.5131 28.9309C61.2904 29.2613 61.9937 29.5602 62.6163 29.7903C63.8919 30.2617 65.3977 31.1465 66.7362 31.9839C67.1293 32.2298 67.5104 32.4732 67.8672 32.7011C68.1173 32.8608 68.3554 33.0129 68.5775 33.153C69.12 33.4952 69.5675 33.7661 69.8763 33.9138C70.522 34.2226 71.7127 35.0963 72.6938 35.899C73.1859 36.3017 73.63 36.6903 73.9314 36.9865C74.0811 37.1336 74.1998 37.2619 74.2711 37.3597C74.3051 37.4063 74.3367 37.4569 74.3501 37.505C74.3568 37.5292 74.3632 37.5671 74.3488 37.6075C74.332 37.6545 74.2952 37.6831 74.2573 37.6958C74.2254 37.7064 74.1607 37.7359 74.0581 37.7881C73.9579 37.8391 73.8279 37.9084 73.669 37.995C73.4233 38.1288 73.1105 38.3025 72.7352 38.5109C72.625 38.5721 72.5094 38.6363 72.3885 38.7034C71.324 39.294 69.8537 40.1047 68.0674 41.0391C64.5049 42.9026 54.8437 49.3796 51.6574 51.632C50.0607 52.7606 47.9971 54.0401 46.2696 54.9692C45.4063 55.4335 44.6237 55.8121 44.0239 56.0405C43.7246 56.1543 43.4656 56.2329 43.2622 56.2647C43.1607 56.2805 43.0675 56.2856 42.9874 56.2749C42.908 56.2643 42.829 56.2362 42.773 56.174C42.5493 55.9254 42.3054 55.8371 41.7363 55.6427L41.7153 55.6356C41.1502 55.4426 40.2983 55.1518 38.9095 54.4983C37.1223 53.6572 35.8562 53.2217 34.3403 52.7002C33.4839 52.4057 32.5477 52.0836 31.3928 51.6455C29.4349 50.9029 27.3356 50.2239 25.2284 49.5422C23.9076 49.115 22.5838 48.6868 21.2896 48.2413C19.8846 47.7576 18.9132 47.3895 17.929 47.0165C17.7384 46.9443 17.5472 46.8718 17.3524 46.7983C16.1521 46.3457 14.8079 45.8519 12.5577 45.111C8.95968 43.9263 6.64275 43.5967 5.94446 43.5787L5.73523 43.5733L5.85275 43.4002C6.12233 43.0029 6.71253 42.4073 7.47252 41.7124C8.23571 41.0146 9.17963 40.2083 10.1653 39.3874C11.1921 38.5324 12.2605 37.6646 13.22 36.8852C14.1084 36.1637 14.9034 35.5178 15.4859 35.028C16.6994 34.0076 18.5438 32.7003 20.2682 31.5598C21.9913 30.4202 23.6038 29.4412 24.3531 29.0804C25.8422 28.3634 31.7806 26.1091 33.7645 25.558C33.98 25.4981 34.1725 25.4427 34.3511 25.3912C34.9868 25.2081 35.4458 25.0758 36.1341 24.9782C37.0137 24.8536 38.2698 24.7849 40.7683 24.73C44.1903 24.6548 45.8265 24.9917 48.0002 25.4394ZM47.9342 25.6599C45.774 25.2148 44.1692 24.8841 40.7733 24.9587C38.2735 25.0136 37.0304 25.0823 36.1662 25.2047C35.495 25.2999 35.0534 25.4271 34.4214 25.6091C34.2416 25.6609 34.0462 25.7172 33.8258 25.7784C31.855 26.3258 25.9293 28.5754 24.4523 29.2866C23.7186 29.6398 22.1179 30.6108 20.3944 31.7506C18.6722 32.8896 16.8365 34.1912 15.6332 35.2031C15.0535 35.6905 14.2546 36.3395 13.363 37.0638C12.4009 37.8453 11.3309 38.7145 10.3117 39.5632C9.32694 40.3833 8.38619 41.187 7.62688 41.8812C6.97051 42.4814 6.45669 42.9936 6.1655 43.3616C7.07802 43.4307 9.3209 43.8044 12.6293 44.8937C14.8831 45.6358 16.2304 46.1307 17.4331 46.5843C17.6284 46.6579 17.8198 46.7305 18.0106 46.8028C18.9945 47.1757 19.9626 47.5425 21.3641 48.025C22.649 48.4673 23.9693 48.8945 25.289 49.3214C27.4016 50.0048 29.5125 50.6877 31.4739 51.4316C32.6139 51.864 33.5451 52.1845 34.4005 52.4788C35.9254 53.0036 37.2097 53.4455 39.007 54.2913C40.3843 54.9394 41.2273 55.2272 41.7885 55.4188L41.813 55.4272C42.368 55.6167 42.6729 55.7208 42.9431 56.021C42.9488 56.0274 42.9672 56.0414 43.0178 56.0482C43.0676 56.0548 43.1367 56.0527 43.2269 56.0386C43.407 56.0105 43.6487 55.9385 43.9425 55.8267C44.5287 55.6035 45.3012 55.2303 46.1612 54.7678C47.8804 53.8431 49.9362 52.5685 51.5253 51.4452C54.7104 49.1936 64.3834 42.708 67.9614 40.8364C69.7453 39.9033 71.2136 39.0937 72.2775 38.5034C72.398 38.4365 72.5133 38.3725 72.6234 38.3113C72.999 38.1027 73.313 37.9283 73.5596 37.7941C73.7191 37.7072 73.8513 37.6367 73.9543 37.5842C74.0096 37.5561 74.0585 37.5321 74.0997 37.5134C74.0957 37.5076 74.0913 37.5013 74.0863 37.4945C74.0266 37.4127 73.9191 37.2951 73.771 37.1496C73.4767 36.8604 73.0386 36.4767 72.5489 36.076C71.5664 35.2721 70.3952 34.4156 69.7776 34.1202C69.4548 33.9658 68.996 33.6875 68.4554 33.3465C68.2306 33.2047 67.9918 33.0521 67.7416 32.8924C67.3864 32.6654 67.0082 32.4239 66.6149 32.1778C65.2757 31.34 63.788 30.4672 62.537 30.0049C61.9 29.7695 61.1868 29.4664 60.4024 29.1331C58.0522 28.1343 55.0632 26.8642 51.5741 26.3305C50.0786 26.1018 48.9455 25.8683 47.9342 25.6599Z" fill="black" stroke="black"/>
<path d="M12.0617 96.584C11.8843 96.5933 11.749 96.5467 11.6557 96.444C11.553 96.3413 11.5017 96.2153 11.5017 96.066C11.5017 95.954 11.539 95.8513 11.6137 95.758C11.679 95.6647 11.7863 95.6133 11.9357 95.604L12.3697 95.576C12.8457 95.5387 13.2097 95.3753 13.4617 95.086C13.7137 94.7873 13.8397 94.3813 13.8397 93.868V87.12C13.8397 86.924 13.8863 86.7793 13.9797 86.686C14.0823 86.5833 14.227 86.532 14.4137 86.532C14.6003 86.532 14.7403 86.5833 14.8337 86.686C14.9363 86.7793 14.9877 86.924 14.9877 87.12V93.882C14.9877 94.414 14.8943 94.876 14.7077 95.268C14.521 95.6507 14.241 95.9493 13.8677 96.164C13.5037 96.3787 13.0557 96.5047 12.5237 96.542L12.0617 96.584ZM19.6807 96.626C19.1301 96.626 18.6727 96.528 18.3087 96.332C17.9541 96.1267 17.6834 95.8233 17.4967 95.422C17.3194 95.0207 17.2307 94.5213 17.2307 93.924V90.172C17.2307 89.976 17.2774 89.8313 17.3707 89.738C17.4734 89.6447 17.6134 89.598 17.7907 89.598C17.9774 89.598 18.1174 89.6447 18.2107 89.738C18.3134 89.8313 18.3647 89.976 18.3647 90.172V93.91C18.3647 94.5073 18.4861 94.9553 18.7287 95.254C18.9807 95.5433 19.3727 95.688 19.9047 95.688C20.4834 95.688 20.9547 95.492 21.3187 95.1C21.6827 94.708 21.8647 94.1947 21.8647 93.56V90.172C21.8647 89.976 21.9114 89.8313 22.0047 89.738C22.1074 89.6447 22.2521 89.598 22.4387 89.598C22.6161 89.598 22.7514 89.6447 22.8447 89.738C22.9474 89.8313 22.9987 89.976 22.9987 90.172V96.01C22.9987 96.402 22.8167 96.598 22.4527 96.598C22.2754 96.598 22.1354 96.5467 22.0327 96.444C21.9394 96.3413 21.8927 96.1967 21.8927 96.01V94.736L22.0747 94.932C21.8881 95.4827 21.5801 95.9027 21.1507 96.192C20.7307 96.4813 20.2407 96.626 19.6807 96.626ZM25.7084 96.598C25.5217 96.598 25.3817 96.5467 25.2884 96.444C25.1951 96.3413 25.1484 96.1967 25.1484 96.01V90.172C25.1484 89.9853 25.1951 89.8453 25.2884 89.752C25.3817 89.6493 25.5171 89.598 25.6944 89.598C25.8717 89.598 26.0071 89.6493 26.1004 89.752C26.2031 89.8453 26.2544 89.9853 26.2544 90.172V91.404L26.1004 91.208C26.2777 90.6853 26.5624 90.284 26.9544 90.004C27.3557 89.7147 27.8317 89.57 28.3824 89.57C28.9611 89.57 29.4277 89.71 29.7824 89.99C30.1464 90.2607 30.3891 90.6853 30.5104 91.264H30.3004C30.4684 90.7413 30.7671 90.3307 31.1964 90.032C31.6351 89.724 32.1437 89.57 32.7224 89.57C33.2357 89.57 33.6557 89.668 33.9824 89.864C34.3184 90.06 34.5704 90.3587 34.7384 90.76C34.9064 91.152 34.9904 91.6513 34.9904 92.258V96.01C34.9904 96.1967 34.9391 96.3413 34.8364 96.444C34.7431 96.5467 34.6031 96.598 34.4164 96.598C34.2391 96.598 34.0991 96.5467 33.9964 96.444C33.9031 96.3413 33.8564 96.1967 33.8564 96.01V92.314C33.8564 91.6887 33.7491 91.2313 33.5344 90.942C33.3197 90.6433 32.9557 90.494 32.4424 90.494C31.8824 90.494 31.4391 90.69 31.1124 91.082C30.7951 91.4647 30.6364 91.9873 30.6364 92.65V96.01C30.6364 96.1967 30.5851 96.3413 30.4824 96.444C30.3891 96.5467 30.2491 96.598 30.0624 96.598C29.8851 96.598 29.7451 96.5467 29.6424 96.444C29.5491 96.3413 29.5024 96.1967 29.5024 96.01V92.314C29.5024 91.6887 29.3904 91.2313 29.1664 90.942C28.9517 90.6433 28.5924 90.494 28.0884 90.494C27.5284 90.494 27.0851 90.69 26.7584 91.082C26.4411 91.4647 26.2824 91.9873 26.2824 92.65V96.01C26.2824 96.402 26.0911 96.598 25.7084 96.598ZM37.6706 99.118C37.484 99.118 37.344 99.0667 37.2506 98.964C37.1573 98.8707 37.1106 98.7307 37.1106 98.544V90.172C37.1106 89.9853 37.1573 89.8453 37.2506 89.752C37.344 89.6493 37.4793 89.598 37.6566 89.598C37.8433 89.598 37.9833 89.6493 38.0766 89.752C38.1793 89.8453 38.2306 89.9853 38.2306 90.172V91.502L38.0766 91.306C38.226 90.774 38.52 90.354 38.9586 90.046C39.4066 89.7287 39.9386 89.57 40.5546 89.57C41.1613 89.57 41.6886 89.7147 42.1366 90.004C42.594 90.284 42.944 90.69 43.1866 91.222C43.4386 91.7447 43.5646 92.37 43.5646 93.098C43.5646 93.8167 43.4386 94.442 43.1866 94.974C42.944 95.4967 42.5986 95.9027 42.1506 96.192C41.7026 96.4813 41.1706 96.626 40.5546 96.626C39.9386 96.626 39.4113 96.472 38.9726 96.164C38.534 95.8467 38.2353 95.4267 38.0766 94.904H38.2446V98.544C38.2446 98.7307 38.1933 98.8707 38.0906 98.964C37.988 99.0667 37.848 99.118 37.6706 99.118ZM40.3166 95.716C40.746 95.716 41.1146 95.6133 41.4226 95.408C41.74 95.2027 41.9826 94.904 42.1506 94.512C42.328 94.12 42.4166 93.6487 42.4166 93.098C42.4166 92.2487 42.2253 91.6 41.8426 91.152C41.4693 90.704 40.9606 90.48 40.3166 90.48C39.8966 90.48 39.528 90.5827 39.2106 90.788C38.8933 90.984 38.646 91.278 38.4686 91.67C38.3006 92.0527 38.2166 92.5287 38.2166 93.098C38.2166 93.938 38.408 94.5867 38.7906 95.044C39.1733 95.492 39.682 95.716 40.3166 95.716ZM45.8327 99.118C45.6461 99.118 45.5061 99.0667 45.4127 98.964C45.3194 98.8707 45.2727 98.7307 45.2727 98.544V90.172C45.2727 89.9853 45.3194 89.8453 45.4127 89.752C45.5061 89.6493 45.6414 89.598 45.8187 89.598C46.0054 89.598 46.1454 89.6493 46.2387 89.752C46.3414 89.8453 46.3927 89.9853 46.3927 90.172V91.502L46.2387 91.306C46.3881 90.774 46.6821 90.354 47.1207 90.046C47.5687 89.7287 48.1007 89.57 48.7167 89.57C49.3234 89.57 49.8507 89.7147 50.2987 90.004C50.7561 90.284 51.1061 90.69 51.3487 91.222C51.6007 91.7447 51.7267 92.37 51.7267 93.098C51.7267 93.8167 51.6007 94.442 51.3487 94.974C51.1061 95.4967 50.7607 95.9027 50.3127 96.192C49.8647 96.4813 49.3327 96.626 48.7167 96.626C48.1007 96.626 47.5734 96.472 47.1347 96.164C46.6961 95.8467 46.3974 95.4267 46.2387 94.904H46.4067V98.544C46.4067 98.7307 46.3554 98.8707 46.2527 98.964C46.1501 99.0667 46.0101 99.118 45.8327 99.118ZM48.4787 95.716C48.9081 95.716 49.2767 95.6133 49.5847 95.408C49.9021 95.2027 50.1447 94.904 50.3127 94.512C50.4901 94.12 50.5787 93.6487 50.5787 93.098C50.5787 92.2487 50.3874 91.6 50.0047 91.152C49.6314 90.704 49.1227 90.48 48.4787 90.48C48.0587 90.48 47.6901 90.5827 47.3727 90.788C47.0554 90.984 46.8081 91.278 46.6307 91.67C46.4627 92.0527 46.3787 92.5287 46.3787 93.098C46.3787 93.938 46.5701 94.5867 46.9527 95.044C47.3354 95.492 47.8441 95.716 48.4787 95.716ZM56.0248 96.626C55.4182 96.626 54.8862 96.4813 54.4288 96.192C53.9808 95.9027 53.6308 95.4967 53.3788 94.974C53.1362 94.442 53.0148 93.8167 53.0148 93.098C53.0148 92.37 53.1362 91.7447 53.3788 91.222C53.6308 90.69 53.9808 90.284 54.4288 90.004C54.8862 89.7147 55.4182 89.57 56.0248 89.57C56.6408 89.57 57.1682 89.724 57.6068 90.032C58.0455 90.34 58.3395 90.7553 58.4888 91.278L58.3488 91.446V90.172C58.3488 89.9853 58.3955 89.8453 58.4888 89.752C58.5915 89.6493 58.7315 89.598 58.9088 89.598C59.0955 89.598 59.2355 89.6493 59.3288 89.752C59.4222 89.8453 59.4689 89.9853 59.4689 90.172V96.01C59.4689 96.1967 59.4222 96.3413 59.3288 96.444C59.2355 96.5467 59.0955 96.598 58.9088 96.598C58.7315 96.598 58.5915 96.5467 58.4888 96.444C58.3955 96.3413 58.3488 96.1967 58.3488 96.01V94.75L58.5028 94.876C58.3535 95.408 58.0548 95.8327 57.6068 96.15C57.1682 96.4673 56.6408 96.626 56.0248 96.626ZM56.2628 95.716C56.6828 95.716 57.0515 95.6133 57.3688 95.408C57.6862 95.2027 57.9288 94.904 58.0968 94.512C58.2742 94.12 58.3629 93.6487 58.3629 93.098C58.3629 92.2487 58.1715 91.6 57.7888 91.152C57.4155 90.704 56.9068 90.48 56.2628 90.48C55.8335 90.48 55.4602 90.5827 55.1428 90.788C54.8348 90.984 54.5922 91.278 54.4148 91.67C54.2468 92.0527 54.1628 92.5287 54.1628 93.098C54.1628 93.938 54.3542 94.5867 54.7368 95.044C55.1195 95.492 55.6282 95.716 56.2628 95.716ZM64.187 96.626C63.5803 96.626 63.0483 96.4813 62.591 96.192C62.143 95.9027 61.793 95.4967 61.541 94.974C61.2983 94.442 61.177 93.8167 61.177 93.098C61.177 92.37 61.2983 91.7447 61.541 91.222C61.793 90.69 62.143 90.284 62.591 90.004C63.0483 89.7147 63.5803 89.57 64.187 89.57C64.803 89.57 65.3303 89.724 65.769 90.032C66.2076 90.34 66.5016 90.7553 66.651 91.278H66.497V87.106C66.497 86.9193 66.5436 86.7793 66.637 86.686C66.7396 86.5833 66.8843 86.532 67.071 86.532C67.2483 86.532 67.3836 86.5833 67.477 86.686C67.5796 86.7793 67.631 86.9193 67.631 87.106V96.01C67.631 96.1967 67.5843 96.3413 67.491 96.444C67.3976 96.5467 67.2576 96.598 67.071 96.598C66.8936 96.598 66.7536 96.5467 66.651 96.444C66.5576 96.3413 66.511 96.1967 66.511 96.01V94.68L66.665 94.876C66.5156 95.408 66.217 95.8327 65.769 96.15C65.3303 96.4673 64.803 96.626 64.187 96.626ZM64.425 95.716C64.845 95.716 65.2136 95.6133 65.531 95.408C65.8483 95.2027 66.091 94.904 66.259 94.512C66.4363 94.12 66.525 93.6487 66.525 93.098C66.525 92.2487 66.3336 91.6 65.951 91.152C65.5776 90.704 65.069 90.48 64.425 90.48C63.9956 90.48 63.6223 90.5827 63.305 90.788C62.997 90.984 62.7543 91.278 62.577 91.67C62.409 92.0527 62.325 92.5287 62.325 93.098C62.325 93.938 62.5163 94.5867 62.899 95.044C63.2816 95.492 63.7903 95.716 64.425 95.716Z" fill="black"/>
</svg>
