<svg viewBox="0 0 69 69" fill="none" xmlns="http://www.w3.org/2000/svg">
<g filter="url(#filter0_d_547_3143)">
<rect x="5.85352" y="3.41858" width="58" height="58" rx="19" fill="#B0DCEB" stroke="#3F3F3F" stroke-width="2"/>
<path d="M36.8411 43.5817C36.4162 43.2099 32.5478 41.7891 30.6667 41.1251C32.3265 39.8637 39.4304 35.5482 42.8828 33.5565C46.3352 31.5647 55.0989 27.714 55.6301 27.6476C56.1612 27.5812 58.9054 29.5729 59.5472 30.3032C57.7413 30.8344 50.6064 35.349 47.2647 37.54C43.9672 39.7088 37.266 43.9534 36.8411 43.5817Z" fill="#0066FF"/>
<path d="M30.6003 41.1252C30.0691 40.7535 25.643 39.2884 23.4963 38.6024C26.8159 34.9508 34.2518 31.4984 37.9034 29.2411C41.555 26.9837 49.4556 24.9256 50.3851 24.7928C51.3146 24.66 55.6965 27.6477 55.6965 27.6477C55.6965 27.6477 49.2564 30.2529 44.8082 32.5607C35.978 37.1417 31.2642 41.59 30.6003 41.1252Z" fill="#FF2900"/>
<path d="M23.3633 38.536C22.7259 38.1111 19.3798 37.0754 17.7864 36.6107C20.9732 33.2911 28.0771 28.5772 31.9279 26.5855C35.7786 24.5937 43.8784 22.8676 44.9407 22.7347C46.003 22.6019 50.5176 24.7929 50.5176 24.7929C50.5176 24.7929 45.8074 25.2072 35.2475 30.8345C25.1559 36.2123 24.16 39.0672 23.3633 38.536Z" fill="#FFE500"/>
<path d="M17.7204 36.6105C17.3884 36.4114 14.0024 35.2163 13.4713 35.2827C12.9402 35.3491 15.9278 33.0254 18.3843 30.9008C20.8408 28.7763 26.1522 25.5231 30.0029 23.9297C33.8536 22.3362 37.2396 21.9379 38.7003 21.6723C40.1609 21.4067 45.2731 22.7346 45.2731 22.7346C45.2731 22.7346 38.3683 24.2616 33.5881 25.855C28.8078 27.4484 18.0523 36.8097 17.7204 36.6105Z" fill="#FF2900"/>
<path d="M13.3383 35.2163C12.8736 35.2163 10.3507 34.9507 10.3507 34.486C10.3507 34.0212 21.0398 25.523 22.5668 24.7263C24.0939 23.9296 29.4052 21.8051 32.4592 21.3403C35.5133 20.8756 39.4304 21.6059 39.1648 21.6059C38.8993 21.6059 35.0485 22.2698 32.6584 23.0001C30.2683 23.7304 24.5586 26.8509 23.3635 27.5148C22.1685 28.1787 13.8031 35.2163 13.3383 35.2163Z" fill="#0066FF"/>
<path fill-rule="evenodd" clip-rule="evenodd" d="M40.4577 21.6223C41.1813 21.7713 41.988 21.9374 43.0445 22.099C45.5684 22.485 47.7409 23.4083 49.4277 24.1252C49.9848 24.362 50.489 24.5763 50.9353 24.7412C51.8498 25.0792 52.9292 25.7135 53.8887 26.3137C54.1705 26.49 54.4437 26.6645 54.6994 26.8279C54.8787 26.9424 55.0495 27.0514 55.2086 27.1518C55.5975 27.3971 55.9183 27.5913 56.1397 27.6972C56.6026 27.9186 57.4561 28.5449 58.1594 29.1203C58.5122 29.409 58.8306 29.6876 59.0466 29.8998C59.1539 30.0053 59.239 30.0973 59.2901 30.1674C59.3145 30.2008 59.3372 30.2371 59.3468 30.2716C59.3516 30.2889 59.3561 30.3161 59.3458 30.345C59.3338 30.3788 59.3074 30.3993 59.2802 30.4083C59.2574 30.4159 59.211 30.4371 59.1374 30.4745C59.0656 30.5111 58.9725 30.5608 58.8585 30.6228C58.6824 30.7187 58.4582 30.8432 58.1891 30.9927C58.1101 31.0366 58.0272 31.0826 57.9406 31.1307C57.1775 31.554 56.1235 32.1352 54.843 32.805C52.2892 34.1408 45.3635 38.7839 43.0794 40.3986C41.9348 41.2076 40.4555 42.1248 39.2171 42.7909C38.5983 43.1237 38.0373 43.3951 37.6073 43.5588C37.3928 43.6404 37.2071 43.6967 37.0613 43.7195C36.9885 43.7309 36.9217 43.7345 36.8643 43.7268C36.8074 43.7192 36.7508 43.6991 36.7106 43.6545C36.5502 43.4763 36.3754 43.413 35.9674 43.2737L35.9524 43.2685C35.5473 43.1302 34.9366 42.9217 33.9411 42.4533C32.6598 41.8503 31.7523 41.5381 30.6656 41.1643C30.0517 40.9532 29.3806 40.7223 28.5526 40.4083C27.1491 39.8759 25.6443 39.3891 24.1336 38.9005C23.1869 38.5943 22.2378 38.2873 21.3101 37.9679C20.3029 37.6212 19.6066 37.3573 18.9011 37.0899C18.7644 37.0381 18.6274 36.9862 18.4877 36.9335C17.6273 36.609 16.6637 36.2551 15.0507 35.724C12.4714 34.8747 10.8105 34.6384 10.3099 34.6255L10.1599 34.6217L10.2442 34.4975C10.4374 34.2127 10.8605 33.7858 11.4053 33.2877C11.9524 32.7875 12.629 32.2094 13.3357 31.621C14.0717 31.0081 14.8376 30.386 15.5254 29.8273C16.1622 29.31 16.7322 28.8471 17.1497 28.4959C18.0196 27.7645 19.3418 26.8273 20.5779 26.0097C21.8132 25.1928 22.9691 24.491 23.5062 24.2324C24.5737 23.7184 28.8307 22.1024 30.2528 21.7073C30.4073 21.6644 30.5453 21.6246 30.6733 21.5878C31.129 21.4565 31.4581 21.3616 31.9515 21.2917C32.582 21.2024 33.4825 21.1531 35.2735 21.1138C37.7266 21.0598 38.8995 21.3014 40.4577 21.6223ZM40.4104 21.7804C38.8619 21.4613 37.7115 21.2242 35.2771 21.2777C33.4851 21.3171 32.594 21.3663 31.9745 21.4541C31.4933 21.5223 31.1768 21.6134 30.7237 21.7439C30.5948 21.7811 30.4548 21.8214 30.2967 21.8653C28.884 22.2577 24.6361 23.8704 23.5774 24.3801C23.0514 24.6334 21.9039 25.3294 20.6684 26.1465C19.4338 26.963 18.1179 27.8961 17.2553 28.6215C16.8398 28.9709 16.2671 29.4361 15.6279 29.9553C14.9383 30.5155 14.1712 31.1386 13.4406 31.747C12.7346 32.3349 12.0603 32.911 11.516 33.4087C11.0454 33.8389 10.6771 34.2061 10.4684 34.4699C11.1225 34.5194 12.7303 34.7873 15.1019 35.5682C16.7176 36.1002 17.6834 36.4549 18.5456 36.7801C18.6856 36.8329 18.8228 36.8849 18.9595 36.9367C19.6649 37.204 20.3588 37.467 21.3635 37.8129C22.2846 38.13 23.2311 38.4362 24.1771 38.7422C25.6915 39.2321 27.2047 39.7216 28.6108 40.2549C29.428 40.5649 30.0955 40.7946 30.7087 41.0056C31.8019 41.3818 32.7225 41.6986 34.0109 42.3049C34.9982 42.7695 35.6025 42.9758 36.0048 43.1132L36.0224 43.1192C36.4203 43.255 36.6389 43.3297 36.8325 43.5448C36.8366 43.5494 36.8498 43.5595 36.8861 43.5643C36.9218 43.5691 36.9713 43.5676 37.036 43.5575C37.165 43.5373 37.3383 43.4857 37.5489 43.4055C37.9692 43.2456 38.5229 42.9781 39.1395 42.6465C40.3719 41.9836 41.8456 41.0699 42.9847 40.2646C45.268 38.6506 52.2021 34.0013 54.767 32.6597C56.0458 31.9908 57.0983 31.4104 57.861 30.9873C57.9474 30.9393 58.0301 30.8934 58.109 30.8496C58.3782 30.7001 58.6033 30.5751 58.7801 30.4788C58.8944 30.4165 58.9892 30.366 59.063 30.3284C59.1027 30.3082 59.1377 30.291 59.1673 30.2776C59.1644 30.2735 59.1612 30.269 59.1577 30.2641C59.1148 30.2054 59.0378 30.1211 58.9316 30.0168C58.7207 29.8095 58.4066 29.5344 58.0556 29.2472C57.3512 28.6709 56.5117 28.0569 56.069 27.8451C55.8375 27.7345 55.5087 27.5349 55.1211 27.2905C54.96 27.1889 54.7888 27.0795 54.6095 26.965C54.3548 26.8023 54.0837 26.6292 53.8017 26.4528C52.8417 25.8522 51.7753 25.2265 50.8785 24.8951C50.4219 24.7263 49.9106 24.509 49.3483 24.2701C47.6635 23.5541 45.5209 22.6436 43.0197 22.2611C41.9476 22.0971 41.1354 21.9298 40.4104 21.7804Z" fill="black" stroke="black"/>
</g>
<defs>
<filter id="filter0_d_547_3143" x="0.853516" y="0.418579" width="68" height="68" filterUnits="userSpaceOnUse" color-interpolation-filters="sRGB">
<feFlood flood-opacity="0" result="BackgroundImageFix"/>
<feColorMatrix in="SourceAlpha" type="matrix" values="0 0 0 0 0 0 0 0 0 0 0 0 0 0 0 0 0 0 127 0" result="hardAlpha"/>
<feOffset dy="2"/>
<feGaussianBlur stdDeviation="2"/>
<feComposite in2="hardAlpha" operator="out"/>
<feColorMatrix type="matrix" values="0 0 0 0 0 0 0 0 0 0 0 0 0 0 0 0 0 0 0.25 0"/>
<feBlend mode="normal" in2="BackgroundImageFix" result="effect1_dropShadow_547_3143"/>
<feBlend mode="normal" in="SourceGraphic" in2="effect1_dropShadow_547_3143" result="shape"/>
</filter>
</defs>
</svg>