<svg viewBox="0 0 786 71" fill="none" xmlns="http://www.w3.org/2000/svg">
<path d="M8.976 69.864C6.16 69.864 3.984 69.096 2.448 67.56C0.912 65.96 0.144 63.752 0.144 60.936V10.248C0.144 7.368 0.912 5.16 2.448 3.62399C4.048 2.088 6.256 1.32 9.072 1.32H32.688C40.368 1.32 46.288 3.304 50.448 7.272C54.672 11.176 56.784 16.584 56.784 23.496C56.784 30.408 54.672 35.848 50.448 39.816C46.288 43.72 40.368 45.672 32.688 45.672H17.808V60.936C17.808 63.752 17.072 65.96 15.6 67.56C14.128 69.096 11.92 69.864 8.976 69.864ZM17.808 32.136H29.616C32.944 32.136 35.504 31.432 37.296 30.024C39.088 28.552 39.984 26.376 39.984 23.496C39.984 20.552 39.088 18.376 37.296 16.968C35.504 15.56 32.944 14.856 29.616 14.856H17.808V32.136ZM451.449 70.056C444.601 70.056 438.585 68.616 433.401 65.736C428.217 62.792 424.185 58.696 421.305 53.448C418.489 48.2 417.081 42.088 417.081 35.112C417.081 29.864 417.881 25.096 419.481 20.808C421.145 16.52 423.481 12.84 426.489 9.768C429.561 6.696 433.209 4.36 437.433 2.75999C441.657 1.096 446.329 0.263998 451.449 0.263998C458.297 0.263998 464.281 1.704 469.401 4.584C474.585 7.464 478.617 11.528 481.497 16.776C484.377 21.96 485.817 28.072 485.817 35.112C485.817 40.36 484.985 45.128 483.321 49.416C481.721 53.704 479.385 57.416 476.313 60.552C473.305 63.624 469.689 65.992 465.465 67.656C461.241 69.256 456.569 70.056 451.449 70.056ZM451.449 55.272C454.841 55.272 457.721 54.472 460.089 52.872C462.457 51.272 464.281 48.968 465.561 45.96C466.841 42.952 467.481 39.336 467.481 35.112C467.481 28.776 466.073 23.848 463.257 20.328C460.441 16.808 456.505 15.048 451.449 15.048C448.121 15.048 445.241 15.848 442.809 17.448C440.441 18.984 438.617 21.256 437.337 24.264C436.057 27.208 435.417 30.824 435.417 35.112C435.417 41.448 436.825 46.408 439.641 49.992C442.457 53.512 446.393 55.272 451.449 55.272Z" fill="#E9492A"/>
<path d="M77.787 69C74.971 69 72.763 68.232 71.163 66.696C69.627 65.096 68.859 62.888 68.859 60.072V10.152C68.859 7.272 69.627 5.064 71.163 3.528C72.699 1.992 74.875 1.224 77.691 1.224C80.571 1.224 82.747 1.992 84.219 3.528C85.755 5.064 86.523 7.272 86.523 10.152V54.312H109.947C112.379 54.312 114.235 54.952 115.515 56.232C116.859 57.448 117.531 59.24 117.531 61.608C117.531 63.976 116.859 65.8 115.515 67.08C114.235 68.36 112.379 69 109.947 69H77.787ZM530.039 70.056C525.111 70.056 520.759 69.448 516.983 68.232C513.207 66.952 510.007 65.064 507.383 62.568C504.823 60.072 502.871 56.968 501.527 53.256C500.247 49.48 499.607 45.128 499.607 40.2V9.384C499.607 6.43999 500.375 4.23199 501.911 2.75999C503.447 1.224 505.623 0.455996 508.439 0.455996C511.319 0.455996 513.495 1.224 514.967 2.75999C516.503 4.23199 517.271 6.43999 517.271 9.384V40.392C517.271 45.32 518.359 49.032 520.535 51.528C522.711 54.024 525.879 55.272 530.039 55.272C534.135 55.272 537.271 54.024 539.447 51.528C541.623 49.032 542.711 45.32 542.711 40.392V9.384C542.711 6.43999 543.447 4.23199 544.919 2.75999C546.455 1.224 548.631 0.455996 551.447 0.455996C554.263 0.455996 556.407 1.224 557.879 2.75999C559.351 4.23199 560.087 6.43999 560.087 9.384V40.2C560.087 46.792 558.935 52.328 556.631 56.808C554.391 61.224 551.031 64.552 546.551 66.792C542.071 68.968 536.567 70.056 530.039 70.056Z" fill="#F6A43F"/>
<path d="M132.023 69.864C130.039 69.864 128.375 69.416 127.031 68.52C125.687 67.56 124.855 66.28 124.535 64.68C124.215 63.016 124.503 61.16 125.399 59.112L149.303 7.65599C150.455 5.16 151.863 3.336 153.527 2.184C155.255 1.032 157.207 0.455996 159.383 0.455996C161.559 0.455996 163.447 1.032 165.047 2.184C166.711 3.336 168.151 5.16 169.367 7.65599L193.271 59.112C194.295 61.16 194.647 63.016 194.327 64.68C194.071 66.344 193.271 67.624 191.927 68.52C190.647 69.416 189.047 69.864 187.127 69.864C184.567 69.864 182.583 69.288 181.175 68.136C179.831 66.984 178.615 65.128 177.527 62.568L172.343 50.376L179.063 55.272H139.511L146.327 50.376L141.143 62.568C139.991 65.128 138.807 66.984 137.591 68.136C136.375 69.288 134.519 69.864 132.023 69.864ZM159.191 19.752L148.055 46.344L145.367 41.736H173.303L170.615 46.344L159.383 19.752H159.191ZM583.995 69.864C581.307 69.864 579.259 69.16 577.851 67.752C576.443 66.344 575.739 64.264 575.739 61.512V9.192C575.739 6.376 576.443 4.23199 577.851 2.75999C579.259 1.224 581.115 0.455996 583.419 0.455996C585.467 0.455996 587.067 0.839996 588.219 1.608C589.371 2.376 590.651 3.65599 592.059 5.44799L622.491 43.464H619.803V8.712C619.803 6.024 620.475 3.976 621.819 2.568C623.227 1.16 625.275 0.455996 627.963 0.455996C630.651 0.455996 632.667 1.16 634.011 2.568C635.419 3.976 636.123 6.024 636.123 8.712V61.896C636.123 64.328 635.483 66.28 634.203 67.752C632.923 69.16 631.195 69.864 629.019 69.864C626.843 69.864 625.115 69.48 623.835 68.712C622.619 67.88 621.307 66.6 619.899 64.872L589.467 26.76H592.155V61.512C592.155 64.264 591.451 66.344 590.043 67.752C588.699 69.16 586.683 69.864 583.995 69.864Z" fill="#5ECFB1"/>
<path d="M230.682 69.864C227.866 69.864 225.69 69.096 224.154 67.56C222.618 65.96 221.85 63.688 221.85 60.744V34.44L225.498 44.136L203.418 12.36C202.33 10.824 201.85 9.128 201.978 7.272C202.17 5.352 202.938 3.752 204.282 2.472C205.69 1.128 207.674 0.455996 210.234 0.455996C212.026 0.455996 213.658 0.903996 215.13 1.8C216.602 2.632 217.978 4.072 219.258 6.12L232.698 25.896H229.242L242.682 6.024C244.026 3.976 245.402 2.536 246.81 1.704C248.218 0.871996 249.882 0.455996 251.802 0.455996C254.234 0.455996 256.122 1.064 257.466 2.27999C258.81 3.49599 259.514 5.032 259.578 6.888C259.706 8.744 259.13 10.632 257.85 12.552L235.962 44.136L239.514 34.44V60.744C239.514 66.824 236.57 69.864 230.682 69.864Z" fill="#9BC851"/>
<path d="M306.189 70.056C298.445 70.056 291.853 68.616 286.413 65.736C281.037 62.856 276.941 58.824 274.125 53.64C271.309 48.456 269.901 42.408 269.901 35.496C269.901 30.12 270.733 25.288 272.397 21C274.125 16.648 276.589 12.936 279.789 9.86399C282.989 6.728 286.893 4.36 291.501 2.75999C296.173 1.096 301.453 0.263998 307.341 0.263998C310.541 0.263998 313.805 0.583998 317.133 1.224C320.461 1.8 323.725 2.92 326.925 4.584C328.589 5.352 329.709 6.44 330.285 7.848C330.925 9.192 331.117 10.632 330.861 12.168C330.669 13.64 330.125 15.016 329.229 16.296C328.397 17.512 327.245 18.344 325.773 18.792C324.301 19.176 322.637 18.952 320.781 18.12C318.861 17.224 316.781 16.552 314.541 16.104C312.301 15.592 309.933 15.336 307.437 15.336C303.149 15.336 299.565 16.104 296.685 17.64C293.869 19.176 291.757 21.448 290.349 24.456C288.941 27.464 288.237 31.144 288.237 35.496C288.237 42.024 289.837 46.952 293.037 50.28C296.237 53.608 300.973 55.272 307.245 55.272C309.165 55.272 311.245 55.08 313.485 54.696C315.789 54.312 318.093 53.768 320.397 53.064L317.133 59.688V43.272H310.413C308.237 43.272 306.541 42.728 305.325 41.64C304.173 40.552 303.597 39.016 303.597 37.032C303.597 35.048 304.173 33.544 305.325 32.52C306.541 31.432 308.237 30.888 310.413 30.888H324.621C326.861 30.888 328.557 31.496 329.709 32.712C330.925 33.864 331.533 35.56 331.533 37.8V59.016C331.533 60.936 331.117 62.568 330.285 63.912C329.517 65.256 328.269 66.216 326.541 66.792C323.533 67.816 320.269 68.616 316.749 69.192C313.229 69.768 309.709 70.056 306.189 70.056ZM661.545 69C658.537 69 656.233 68.232 654.633 66.696C653.097 65.096 652.329 62.824 652.329 59.88V10.44C652.329 7.496 653.097 5.256 654.633 3.72C656.233 2.12 658.537 1.32 661.545 1.32H680.361C692.137 1.32 701.225 4.264 707.625 10.152C714.089 16.04 717.321 24.36 717.321 35.112C717.321 40.488 716.489 45.288 714.825 49.512C713.161 53.672 710.761 57.224 707.625 60.168C704.489 63.048 700.617 65.256 696.009 66.792C691.465 68.264 686.249 69 680.361 69H661.545ZM669.993 54.696H679.209C682.601 54.696 685.513 54.28 687.945 53.448C690.441 52.616 692.489 51.4 694.089 49.8C695.753 48.2 696.969 46.184 697.737 43.752C698.569 41.32 698.985 38.44 698.985 35.112C698.985 28.456 697.353 23.56 694.089 20.424C690.825 17.224 685.865 15.624 679.209 15.624H669.993V54.696Z" fill="#E08FA5"/>
<path d="M356.02 69.864C353.204 69.864 351.028 69.096 349.492 67.56C347.956 65.96 347.188 63.752 347.188 60.936V10.248C347.188 7.368 347.956 5.16 349.492 3.62399C351.092 2.088 353.3 1.32 356.116 1.32H379.732C387.412 1.32 393.332 3.208 397.492 6.984C401.716 10.696 403.828 15.88 403.828 22.536C403.828 26.824 402.868 30.568 400.948 33.768C399.092 36.904 396.372 39.336 392.788 41.064C389.268 42.728 384.916 43.56 379.732 43.56L380.5 41.832H385.108C387.86 41.832 390.292 42.504 392.404 43.848C394.516 45.128 396.276 47.112 397.684 49.8L402.484 58.44C403.508 60.296 403.988 62.12 403.924 63.912C403.86 65.64 403.156 67.08 401.812 68.232C400.532 69.32 398.644 69.864 396.148 69.864C393.652 69.864 391.604 69.352 390.004 68.328C388.468 67.304 387.092 65.704 385.876 63.528L377.14 47.496C376.372 46.088 375.38 45.128 374.164 44.616C373.012 44.04 371.668 43.752 370.132 43.752H364.852V60.936C364.852 63.752 364.116 65.96 362.644 67.56C361.172 69.096 358.964 69.864 356.02 69.864ZM364.852 31.272H376.564C379.956 31.272 382.548 30.6 384.34 29.256C386.132 27.912 387.028 25.832 387.028 23.016C387.028 20.328 386.132 18.312 384.34 16.968C382.548 15.56 379.956 14.856 376.564 14.856H364.852V31.272ZM756.79 70.056C754.23 70.056 751.542 69.864 748.726 69.48C745.974 69.16 743.35 68.648 740.854 67.944C738.358 67.24 736.118 66.408 734.134 65.448C732.406 64.616 731.19 63.528 730.486 62.184C729.782 60.776 729.526 59.304 729.718 57.768C729.91 56.232 730.454 54.888 731.35 53.736C732.246 52.52 733.43 51.72 734.902 51.336C736.374 50.888 738.038 51.08 739.894 51.912C742.326 53.064 745.078 53.96 748.15 54.6C751.222 55.24 754.102 55.56 756.79 55.56C761.014 55.56 763.958 55.016 765.622 53.928C767.35 52.776 768.214 51.368 768.214 49.704C768.214 48.232 767.606 47.048 766.39 46.152C765.238 45.256 763.158 44.488 760.15 43.848L748.918 41.448C742.774 40.168 738.198 37.928 735.19 34.728C732.182 31.528 730.678 27.4 730.678 22.344C730.678 19.016 731.35 16.008 732.694 13.32C734.102 10.568 736.054 8.232 738.55 6.31199C741.11 4.392 744.118 2.92 747.574 1.89599C751.094 0.807997 754.998 0.263998 759.286 0.263998C762.614 0.263998 765.974 0.647997 769.366 1.41599C772.822 2.12 775.798 3.208 778.294 4.68C779.766 5.448 780.822 6.504 781.462 7.848C782.102 9.192 782.358 10.6 782.23 12.072C782.102 13.48 781.59 14.728 780.694 15.816C779.862 16.904 778.71 17.64 777.238 18.024C775.83 18.344 774.134 18.088 772.15 17.256C770.294 16.424 768.182 15.816 765.814 15.432C763.51 14.984 761.27 14.76 759.094 14.76C756.726 14.76 754.71 15.048 753.046 15.624C751.382 16.136 750.102 16.904 749.206 17.928C748.374 18.952 747.958 20.136 747.958 21.48C747.958 22.824 748.502 23.976 749.59 24.936C750.742 25.832 752.822 26.6 755.83 27.24L766.966 29.64C773.174 30.984 777.814 33.192 780.886 36.264C783.958 39.336 785.494 43.336 785.494 48.264C785.494 51.592 784.822 54.6 783.478 57.288C782.134 59.976 780.214 62.28 777.718 64.2C775.222 66.056 772.214 67.496 768.694 68.52C765.174 69.544 761.206 70.056 756.79 70.056Z" fill="#E6D436"/>
</svg>
