<svg width="80" height="100" viewBox="0 0 80 100" fill="none" xmlns="http://www.w3.org/2000/svg">
<path d="M1 20.0815C1 9.58813 9.50659 1.08154 20 1.08154H60C70.4934 1.08154 79 9.58813 79 20.0815V60.0815C79 70.575 70.4934 79.0815 60 79.0815H20C9.50659 79.0815 1 70.575 1 60.0815V20.0815Z" fill="white" stroke="#5ECFB1" stroke-width="2"/>
<path d="M32.1237 48.4319H49.7205L47.8765 50.2803H30.2797L32.1237 48.4319Z" fill="#F6A43F"/>
<path fill-rule="evenodd" clip-rule="evenodd" d="M32.0535 48.2765H50.1007L47.9467 50.4356H29.8995L32.0535 48.2765ZM32.194 48.5872L30.6598 50.125H47.8063L49.3404 48.5872H32.194Z" fill="black"/>
<path d="M47.7764 51.6005H30.2797V50.3077H47.7764V51.6005Z" fill="#F6A43F"/>
<path fill-rule="evenodd" clip-rule="evenodd" d="M30.2796 50.1526H47.9397V51.7561H30.1162V50.2805H30.2796V50.1526ZM30.4429 50.4633V51.4455H47.613V50.4633H30.4429Z" fill="black"/>
<path d="M49.7205 49.8668V48.4319L47.7764 50.1657V51.6006L49.7205 49.8668Z" fill="#F6A43F"/>
<path fill-rule="evenodd" clip-rule="evenodd" d="M49.8837 48.0732V49.9341L47.6129 51.9593V50.0985L49.8837 48.0732ZM47.9397 50.233V51.242L49.557 49.7996V48.7906L47.9397 50.233Z" fill="black"/>
<path fill-rule="evenodd" clip-rule="evenodd" d="M32.7204 49.5465L32.7205 16.2162L33.7103 16.2162L33.7103 49.5465L32.7204 49.5465Z" fill="#58676D"/>
<path fill-rule="evenodd" clip-rule="evenodd" d="M46.0514 49.5465L46.0514 16.2162L47.0413 16.2162L47.0413 49.5465L46.0514 49.5465Z" fill="#58676D"/>
<path d="M13.0442 64.3166C13.0442 64.7456 12.6785 65.0933 12.2274 65.0933C11.7762 65.0933 11.4105 64.7456 11.4105 64.3166C11.4105 63.8877 11.7762 63.54 12.2274 63.54C12.6785 63.54 13.0442 63.8877 13.0442 64.3166Z" fill="black"/>
<path d="M68.5896 59.1148C68.5896 59.5437 68.2239 59.8914 67.7728 59.8914C67.3216 59.8914 66.9559 59.5437 66.9559 59.1148C66.9559 58.6859 67.3216 58.3381 67.7728 58.3381C68.2239 58.3381 68.5896 58.6859 68.5896 59.1148Z" fill="black"/>
<path d="M53.9343 64.181C53.9343 64.6099 53.5686 64.9577 53.1175 64.9577C52.6664 64.9577 52.3007 64.6099 52.3007 64.181C52.3007 63.7521 52.6664 63.4044 53.1175 63.4044C53.5686 63.4044 53.9343 63.7521 53.9343 64.181Z" fill="black"/>
<path d="M27.5268 60.2257C27.5268 60.6546 27.161 61.0023 26.7099 61.0023C26.2588 61.0023 25.8931 60.6546 25.8931 60.2257C25.8931 59.7967 26.2588 59.449 26.7099 59.449C27.161 59.449 27.5268 59.7967 27.5268 60.2257Z" fill="black"/>
<path fill-rule="evenodd" clip-rule="evenodd" d="M19.1514 14.9114H61.7305L68.5811 59.0273L66.9649 59.2541L61.0061 20.8811L53.9116 64.4355L52.2971 64.1977L60.0723 16.4647H20.8005L27.5416 60.268L25.9251 60.4929L19.8477 21.0023L13.0356 64.4311L11.4198 64.202L19.1514 14.9114Z" fill="black"/>
<path d="M5.25391 97.1795C5.06725 97.1795 4.92258 97.1282 4.81991 97.0255C4.72658 96.9135 4.67991 96.7642 4.67991 96.5775V87.7995C4.67991 87.6035 4.73125 87.4589 4.83391 87.3655C4.93658 87.2629 5.08125 87.2115 5.26791 87.2115H8.58591C9.64058 87.2115 10.4526 87.4729 11.0219 87.9955C11.5912 88.5089 11.8759 89.2369 11.8759 90.1795C11.8759 91.1129 11.5912 91.8409 11.0219 92.3635C10.4526 92.8862 9.64058 93.1475 8.58591 93.1475H5.82791V96.5775C5.82791 96.7642 5.78125 96.9135 5.68791 97.0255C5.59458 97.1282 5.44991 97.1795 5.25391 97.1795ZM5.82791 92.1815H8.44591C9.20191 92.1815 9.77125 92.0135 10.1539 91.6775C10.5459 91.3322 10.7419 90.8329 10.7419 90.1795C10.7419 89.5169 10.5459 89.0175 10.1539 88.6815C9.77125 88.3362 9.20191 88.1635 8.44591 88.1635H5.82791V92.1815ZM15.4573 97.2075C14.7853 97.2075 14.272 97.0022 13.9173 96.5915C13.5626 96.1809 13.3853 95.5929 13.3853 94.8275V87.6875C13.3853 87.5009 13.432 87.3609 13.5253 87.2675C13.6186 87.1649 13.7586 87.1135 13.9453 87.1135C14.1226 87.1135 14.2626 87.1649 14.3653 87.2675C14.468 87.3609 14.5193 87.5009 14.5193 87.6875V94.7435C14.5193 95.2475 14.6173 95.6255 14.8133 95.8775C15.0186 96.1202 15.3173 96.2415 15.7093 96.2415C15.7933 96.2415 15.868 96.2369 15.9333 96.2275C15.9986 96.2182 16.064 96.2135 16.1293 96.2135C16.232 96.2042 16.302 96.2275 16.3393 96.2835C16.386 96.3395 16.4093 96.4515 16.4093 96.6195C16.4093 96.7875 16.372 96.9135 16.2973 96.9975C16.2226 97.0815 16.1013 97.1375 15.9333 97.1655C15.8586 97.1749 15.7793 97.1842 15.6953 97.1935C15.6113 97.2029 15.532 97.2075 15.4573 97.2075ZM20.0495 97.2075C19.4428 97.2075 18.9108 97.0629 18.4535 96.7735C18.0055 96.4842 17.6555 96.0782 17.4035 95.5555C17.1608 95.0235 17.0395 94.3982 17.0395 93.6795C17.0395 92.9515 17.1608 92.3262 17.4035 91.8035C17.6555 91.2715 18.0055 90.8655 18.4535 90.5855C18.9108 90.2962 19.4428 90.1515 20.0495 90.1515C20.6655 90.1515 21.1928 90.3055 21.6315 90.6135C22.0702 90.9215 22.3642 91.3369 22.5135 91.8595L22.3735 92.0275V90.7535C22.3735 90.5669 22.4202 90.4269 22.5135 90.3335C22.6162 90.2309 22.7562 90.1795 22.9335 90.1795C23.1202 90.1795 23.2602 90.2309 23.3535 90.3335C23.4468 90.4269 23.4935 90.5669 23.4935 90.7535V96.5915C23.4935 96.7782 23.4468 96.9229 23.3535 97.0255C23.2602 97.1282 23.1202 97.1795 22.9335 97.1795C22.7562 97.1795 22.6162 97.1282 22.5135 97.0255C22.4202 96.9229 22.3735 96.7782 22.3735 96.5915V95.3315L22.5275 95.4575C22.3782 95.9895 22.0795 96.4142 21.6315 96.7315C21.1928 97.0489 20.6655 97.2075 20.0495 97.2075ZM20.2875 96.2975C20.7075 96.2975 21.0762 96.1949 21.3935 95.9895C21.7108 95.7842 21.9535 95.4855 22.1215 95.0935C22.2988 94.7015 22.3875 94.2302 22.3875 93.6795C22.3875 92.8302 22.1962 92.1815 21.8135 91.7335C21.4402 91.2855 20.9315 91.0615 20.2875 91.0615C19.8582 91.0615 19.4848 91.1642 19.1675 91.3695C18.8595 91.5655 18.6168 91.8595 18.4395 92.2515C18.2715 92.6342 18.1875 93.1102 18.1875 93.6795C18.1875 94.5195 18.3788 95.1682 18.7615 95.6255C19.1442 96.0735 19.6528 96.2975 20.2875 96.2975ZM27.1336 99.6995C26.9936 99.6995 26.8816 99.6622 26.7976 99.5875C26.7136 99.5129 26.6623 99.4102 26.6436 99.2795C26.6343 99.1582 26.6576 99.0322 26.7136 98.9015L27.6796 96.7315V97.2215L24.9916 90.9775C24.9356 90.8375 24.917 90.7069 24.9356 90.5855C24.9543 90.4642 25.0103 90.3662 25.1036 90.2915C25.197 90.2169 25.3276 90.1795 25.4956 90.1795C25.645 90.1795 25.7616 90.2122 25.8456 90.2775C25.9296 90.3429 26.0043 90.4595 26.0696 90.6275L28.3656 96.2555H27.9876L30.3116 90.6275C30.3863 90.4595 30.4656 90.3429 30.5496 90.2775C30.6336 90.2122 30.755 90.1795 30.9136 90.1795C31.063 90.1795 31.175 90.2169 31.2496 90.2915C31.3336 90.3662 31.3803 90.4642 31.3896 90.5855C31.4083 90.6975 31.3896 90.8235 31.3336 90.9635L27.7496 99.2515C27.675 99.4195 27.591 99.5362 27.4976 99.6015C27.4136 99.6669 27.2923 99.6995 27.1336 99.6995ZM35.7273 99.7275C35.2327 99.7275 34.7473 99.6669 34.2713 99.5455C33.8047 99.4335 33.38 99.2515 32.9973 98.9995C32.8853 98.9342 32.8107 98.8549 32.7733 98.7615C32.7453 98.6682 32.7407 98.5749 32.7593 98.4815C32.778 98.3975 32.82 98.3182 32.8853 98.2435C32.9507 98.1782 33.0253 98.1362 33.1093 98.1175C33.2027 98.0989 33.296 98.1129 33.3893 98.1595C33.8 98.4115 34.192 98.5842 34.5653 98.6775C34.9387 98.7709 35.3073 98.8175 35.6713 98.8175C36.334 98.8175 36.8333 98.6402 37.1693 98.2855C37.5147 97.9309 37.6873 97.4175 37.6873 96.7455V95.1635H37.8273C37.6873 95.7049 37.3887 96.1342 36.9313 96.4515C36.4833 96.7689 35.956 96.9275 35.3493 96.9275C34.724 96.9275 34.1827 96.7875 33.7253 96.5075C33.268 96.2182 32.9133 95.8169 32.6613 95.3035C32.4187 94.7902 32.2973 94.1975 32.2973 93.5255C32.2973 93.0215 32.3673 92.5642 32.5073 92.1535C32.6473 91.7335 32.848 91.3789 33.1093 91.0895C33.38 90.7909 33.702 90.5622 34.0753 90.4035C34.458 90.2355 34.8827 90.1515 35.3493 90.1515C35.9653 90.1515 36.4973 90.3102 36.9453 90.6275C37.3933 90.9355 37.6827 91.3555 37.8133 91.8875L37.6733 92.0555V90.7535C37.6733 90.5669 37.72 90.4269 37.8133 90.3335C37.916 90.2309 38.056 90.1795 38.2333 90.1795C38.42 90.1795 38.56 90.2309 38.6533 90.3335C38.7467 90.4269 38.7933 90.5669 38.7933 90.7535V96.5915C38.7933 97.6275 38.532 98.4069 38.0093 98.9295C37.496 99.4615 36.7353 99.7275 35.7273 99.7275ZM35.5593 96.0035C35.998 96.0035 36.376 95.9055 36.6933 95.7095C37.0107 95.5042 37.2533 95.2149 37.4213 94.8415C37.5987 94.4682 37.6873 94.0295 37.6873 93.5255C37.6873 92.7695 37.496 92.1722 37.1133 91.7335C36.7307 91.2855 36.2127 91.0615 35.5593 91.0615C35.13 91.0615 34.7567 91.1642 34.4393 91.3695C34.122 91.5655 33.8747 91.8502 33.6973 92.2235C33.5293 92.5875 33.4453 93.0215 33.4453 93.5255C33.4453 94.2815 33.6367 94.8835 34.0193 95.3315C34.402 95.7795 34.9153 96.0035 35.5593 96.0035ZM41.4944 97.1795C41.3078 97.1795 41.1631 97.1282 41.0604 97.0255C40.9671 96.9229 40.9204 96.7782 40.9204 96.5915V90.7535C40.9204 90.5669 40.9671 90.4269 41.0604 90.3335C41.1538 90.2309 41.2891 90.1795 41.4664 90.1795C41.6438 90.1795 41.7791 90.2309 41.8724 90.3335C41.9751 90.4269 42.0264 90.5669 42.0264 90.7535V91.8875H41.8864C42.0358 91.3369 42.3204 90.9122 42.7404 90.6135C43.1604 90.3149 43.6784 90.1562 44.2944 90.1375C44.4344 90.1282 44.5464 90.1609 44.6304 90.2355C44.7144 90.3009 44.7611 90.4175 44.7704 90.5855C44.7798 90.7442 44.7424 90.8702 44.6584 90.9635C44.5744 91.0569 44.4438 91.1129 44.2664 91.1315L44.0424 91.1595C43.4078 91.2155 42.9178 91.4209 42.5724 91.7755C42.2364 92.1209 42.0684 92.5969 42.0684 93.2035V96.5915C42.0684 96.7782 42.0171 96.9229 41.9144 97.0255C41.8211 97.1282 41.6811 97.1795 41.4944 97.1795ZM48.684 97.2075C48.0213 97.2075 47.4473 97.0629 46.962 96.7735C46.4767 96.4842 46.0987 96.0782 45.828 95.5555C45.5667 95.0235 45.436 94.3982 45.436 93.6795C45.436 93.1382 45.5107 92.6529 45.66 92.2235C45.8093 91.7849 46.0287 91.4115 46.318 91.1035C46.6073 90.7955 46.948 90.5622 47.34 90.4035C47.7413 90.2355 48.1893 90.1515 48.684 90.1515C49.3467 90.1515 49.9207 90.2962 50.406 90.5855C50.8913 90.8749 51.2647 91.2855 51.526 91.8175C51.7967 92.3402 51.932 92.9609 51.932 93.6795C51.932 94.2209 51.8573 94.7062 51.708 95.1355C51.5587 95.5649 51.3393 95.9382 51.05 96.2555C50.7607 96.5635 50.4153 96.8015 50.014 96.9695C49.622 97.1282 49.1787 97.2075 48.684 97.2075ZM48.684 96.2975C49.104 96.2975 49.4727 96.1949 49.79 95.9895C50.1073 95.7842 50.35 95.4855 50.518 95.0935C50.6953 94.7015 50.784 94.2302 50.784 93.6795C50.784 92.8302 50.5927 92.1815 50.21 91.7335C49.8367 91.2855 49.328 91.0615 48.684 91.0615C48.2547 91.0615 47.8813 91.1642 47.564 91.3695C47.256 91.5655 47.0133 91.8595 46.836 92.2515C46.668 92.6342 46.584 93.1102 46.584 93.6795C46.584 94.5195 46.7753 95.1682 47.158 95.6255C47.5407 96.0735 48.0493 96.2975 48.684 96.2975ZM56.0433 97.2075C55.4926 97.2075 55.0353 97.1095 54.6713 96.9135C54.3166 96.7082 54.046 96.4049 53.8593 96.0035C53.682 95.6022 53.5933 95.1029 53.5933 94.5055V90.7535C53.5933 90.5575 53.64 90.4129 53.7333 90.3195C53.836 90.2262 53.976 90.1795 54.1533 90.1795C54.34 90.1795 54.48 90.2262 54.5733 90.3195C54.676 90.4129 54.7273 90.5575 54.7273 90.7535V94.4915C54.7273 95.0889 54.8486 95.5369 55.0913 95.8355C55.3433 96.1249 55.7353 96.2695 56.2673 96.2695C56.846 96.2695 57.3173 96.0735 57.6813 95.6815C58.0453 95.2895 58.2273 94.7762 58.2273 94.1415V90.7535C58.2273 90.5575 58.274 90.4129 58.3673 90.3195C58.47 90.2262 58.6146 90.1795 58.8013 90.1795C58.9786 90.1795 59.114 90.2262 59.2073 90.3195C59.31 90.4129 59.3613 90.5575 59.3613 90.7535V96.5915C59.3613 96.9835 59.1793 97.1795 58.8153 97.1795C58.638 97.1795 58.498 97.1282 58.3953 97.0255C58.302 96.9229 58.2553 96.7782 58.2553 96.5915V95.3175L58.4373 95.5135C58.2506 96.0642 57.9426 96.4842 57.5133 96.7735C57.0933 97.0629 56.6033 97.2075 56.0433 97.2075ZM62.0429 97.1795C61.8563 97.1795 61.7163 97.1282 61.6229 97.0255C61.5296 96.9229 61.4829 96.7782 61.4829 96.5915V90.7535C61.4829 90.5669 61.5296 90.4269 61.6229 90.3335C61.7163 90.2309 61.8516 90.1795 62.0289 90.1795C62.2063 90.1795 62.3416 90.2309 62.4349 90.3335C62.5376 90.4269 62.5889 90.5669 62.5889 90.7535V91.9575L62.4349 91.7895C62.6309 91.2482 62.9483 90.8422 63.3869 90.5715C63.8349 90.2915 64.3483 90.1515 64.9269 90.1515C65.4683 90.1515 65.9163 90.2495 66.2709 90.4455C66.6349 90.6415 66.9056 90.9402 67.0829 91.3415C67.2603 91.7335 67.3489 92.2329 67.3489 92.8395V96.5915C67.3489 96.7782 67.2976 96.9229 67.1949 97.0255C67.1016 97.1282 66.9663 97.1795 66.7889 97.1795C66.6023 97.1795 66.4576 97.1282 66.3549 97.0255C66.2616 96.9229 66.2149 96.7782 66.2149 96.5915V92.9095C66.2149 92.2749 66.0889 91.8129 65.8369 91.5235C65.5943 91.2249 65.2023 91.0755 64.6609 91.0755C64.0356 91.0755 63.5363 91.2715 63.1629 91.6635C62.7989 92.0462 62.6169 92.5595 62.6169 93.2035V96.5915C62.6169 96.9835 62.4256 97.1795 62.0429 97.1795ZM72.03 97.2075C71.4233 97.2075 70.8913 97.0629 70.434 96.7735C69.986 96.4842 69.636 96.0782 69.384 95.5555C69.1413 95.0235 69.02 94.3982 69.02 93.6795C69.02 92.9515 69.1413 92.3262 69.384 91.8035C69.636 91.2715 69.986 90.8655 70.434 90.5855C70.8913 90.2962 71.4233 90.1515 72.03 90.1515C72.646 90.1515 73.1733 90.3055 73.612 90.6135C74.0506 90.9215 74.3446 91.3369 74.494 91.8595H74.34V87.6875C74.34 87.5009 74.3866 87.3609 74.48 87.2675C74.5826 87.1649 74.7273 87.1135 74.914 87.1135C75.0913 87.1135 75.2266 87.1649 75.32 87.2675C75.4226 87.3609 75.474 87.5009 75.474 87.6875V96.5915C75.474 96.7782 75.4273 96.9229 75.334 97.0255C75.2406 97.1282 75.1006 97.1795 74.914 97.1795C74.7366 97.1795 74.5966 97.1282 74.494 97.0255C74.4006 96.9229 74.354 96.7782 74.354 96.5915V95.2615L74.508 95.4575C74.3586 95.9895 74.06 96.4142 73.612 96.7315C73.1733 97.0489 72.646 97.2075 72.03 97.2075ZM72.268 96.2975C72.688 96.2975 73.0566 96.1949 73.374 95.9895C73.6913 95.7842 73.934 95.4855 74.102 95.0935C74.2793 94.7015 74.368 94.2302 74.368 93.6795C74.368 92.8302 74.1766 92.1815 73.794 91.7335C73.4206 91.2855 72.912 91.0615 72.268 91.0615C71.8386 91.0615 71.4653 91.1642 71.148 91.3695C70.84 91.5655 70.5973 91.8595 70.42 92.2515C70.252 92.6342 70.168 93.1102 70.168 93.6795C70.168 94.5195 70.3593 95.1682 70.742 95.6255C71.1246 96.0735 71.6333 96.2975 72.268 96.2975Z" fill="black"/>
</svg>
